<?xml version="1.0" encoding="utf-8"?>
<!-- Generator: Adobe Illustrator 17.1.0, SVG Export Plug-In . SVG Version: 6.00 Build 0)  -->
<!DOCTYPE svg PUBLIC "-//W3C//DTD SVG 1.1 Tiny//EN" "http://www.w3.org/Graphics/SVG/1.1/DTD/svg11-tiny.dtd">
<svg version="1.1" baseProfile="tiny" id="Layer_1" xmlns="http://www.w3.org/2000/svg" xmlns:xlink="http://www.w3.org/1999/xlink"
	 x="0px" y="0px" viewBox="0 0 130 130" xml:space="preserve">
<path fill="#AD2700" d="M0,65c0,35.898,29.103,65,65,65c35.899,0,65-29.101,65-65c0-35.9-29.101-65-65-65C29.103,0,0,29.101,0,65"/>
<g>
	<path fill="#F46000" d="M12.555,46.774c-5.264,2.914-8.831,8.519-8.831,14.962c0,5.082,2.229,9.631,5.748,12.763v-9.482
		C9.472,58.624,10.566,52.489,12.555,46.774z"/>
	<path fill="#F46000" d="M120.528,65.017C120.528,34.349,95.667,9.49,65,9.49c-24.274,0-44.896,15.582-52.446,37.284
		c-1.988,5.716-3.082,11.85-3.082,18.243v9.482v24.303C20.885,117.509,41.483,130,65,130c23.518,0,44.116-12.491,55.528-31.198
		V65.017z M75.038,55.595c2.116,0.001,3.834,1.717,3.834,3.835c0,2.117-1.717,3.834-3.834,3.832
		c-2.118,0.001-3.835-1.716-3.835-3.832C71.203,57.312,72.92,55.596,75.038,55.595z M69.765,67.976
		c1.2,0.001,2.174,0.974,2.174,2.175c0,1.203-0.974,2.173-2.174,2.173c-1.201,0-2.176-0.971-2.176-2.173
		C67.589,68.949,68.563,67.977,69.765,67.976z M55.619,36.933c0.454,0,0.913,0.032,1.375,0.1c5.117,0.752,8.659,5.509,7.907,10.629
		l-4.019-0.59V47.07c0.204-1.402-0.148-2.799-0.993-3.937c-0.846-1.136-2.084-1.875-3.486-2.081
		c-0.261-0.038-0.526-0.057-0.784-0.057c-2.607,0-4.857,1.949-5.238,4.534l-4.019-0.59C47.047,40.28,51.049,36.933,55.619,36.933z
		 M31.905,33.449c0.454,0,0.913,0.033,1.375,0.1c5.117,0.752,8.658,5.509,7.907,10.629l-4.019-0.59v-0.001
		c0.205-1.402-0.148-2.799-0.993-3.937c-0.846-1.136-2.084-1.876-3.486-2.081c-0.261-0.038-0.525-0.057-0.784-0.057
		c-2.607,0-4.857,1.949-5.238,4.534l-4.019-0.59C23.333,36.797,27.335,33.449,31.905,33.449z M19.462,81.619
		c-2.118,0-3.834-1.716-3.834-3.834c0-2.117,1.716-3.832,3.834-3.835c2.118,0.003,3.835,1.717,3.835,3.835
		C23.297,79.903,21.58,81.619,19.462,81.619z M51.679,108.488c-2.118,0-3.834-1.717-3.834-3.834s1.714-3.834,3.834-3.835
		c2.116,0.001,3.833,1.716,3.833,3.835C55.513,106.771,53.796,108.488,51.679,108.488z M55.513,78.387v14.873
		c0,2.117-1.716,3.834-3.834,3.836c-2.117,0-3.834-1.718-3.834-3.836V76.855l-0.003-0.026c0-1.912-1.397-3.491-3.226-3.784
		l-21.68-3.186c-5.551-0.814-9.388-5.975-8.572-11.524c0.814-5.549,5.983-9.398,11.523-8.572l30.882,4.538
		c5.551,0.815,9.389,5.975,8.572,11.524c-0.569,3.865-3.243,6.899-6.691,8.111C56.821,74.588,55.513,76.335,55.513,78.387z
		 M79.91,82.713c-6.393,3.146-13.73,2.192-19.042-1.839c4.6,1.35,9.703,1.047,14.342-1.235c9.841-4.838,13.894-16.74,9.052-26.577
		l-0.011-0.02c1.591,1.472,2.943,3.253,3.954,5.312C92.642,67.372,88.927,78.28,79.91,82.713z"/>
	<path fill="#AD2700" d="M84.252,53.042l0.011,0.02c4.841,9.837,0.788,21.738-9.052,26.577c-4.639,2.282-9.742,2.585-14.342,1.235
		c5.312,4.031,12.649,4.985,19.042,1.839c9.016-4.433,12.732-15.341,8.296-24.359C87.195,56.295,85.843,54.514,84.252,53.042z"/>
	<circle fill="#FFB500" cx="51.679" cy="104.653" r="3.834"/>
	<path fill="#FFB500" d="M23.297,77.785c0-2.118-1.717-3.832-3.835-3.835c-2.118,0.003-3.834,1.718-3.834,3.835
		c0,2.118,1.716,3.834,3.834,3.834S23.297,79.903,23.297,77.785z"/>
	<circle fill="#FFB500" cx="75.038" cy="59.428" r="3.834"/>
	<circle fill="#FFB500" cx="69.765" cy="70.15" r="2.174"/>
	<path fill="#1D1D1B" d="M31.905,37.512c0.259,0,0.523,0.019,0.784,0.057c1.402,0.206,2.639,0.945,3.486,2.081
		c0.845,1.137,1.197,2.535,0.993,3.937v0.001l4.019,0.59c0.751-5.12-2.79-9.877-7.907-10.629c-0.462-0.068-0.921-0.1-1.375-0.1
		c-4.57,0-8.572,3.347-9.257,8.006l4.019,0.59C27.048,39.461,29.298,37.512,31.905,37.512z"/>
	<path fill="#1D1D1B" d="M55.619,40.995c0.259,0,0.523,0.019,0.784,0.057c1.401,0.206,2.639,0.945,3.486,2.081
		c0.845,1.138,1.197,2.535,0.993,3.937v0.001l4.019,0.59c0.752-5.12-2.79-9.877-7.907-10.629c-0.462-0.068-0.921-0.1-1.375-0.1
		c-4.57,0-8.572,3.347-9.257,8.006l4.019,0.59C50.762,42.944,53.012,40.995,55.619,40.995z"/>
	<path fill="#FFB500" d="M65.341,65.825c0.817-5.549-3.021-10.709-8.572-11.524l-30.882-4.538
		c-5.54-0.826-10.709,3.022-11.523,8.572c-0.817,5.549,3.021,10.71,8.572,11.524l21.68,3.186c1.828,0.293,3.226,1.871,3.226,3.784
		l0.003,0.026v16.404c0,2.118,1.717,3.836,3.834,3.836c2.118-0.003,3.834-1.72,3.834-3.836V78.387c0-2.052,1.308-3.798,3.138-4.45
		C62.098,72.725,64.773,69.69,65.341,65.825z M57.638,64.693c-0.172,1.178-1.185,2.026-2.341,2.026c-0.114,0-0.23-0.008-0.347-0.026
		l-30.882-4.536c-1.296-0.191-2.191-1.393-2-2.688c0.191-1.296,1.388-2.194,2.688-2.001l30.882,4.538
		C56.933,62.195,57.829,63.399,57.638,64.693z"/>
	<path fill="#AD2700" d="M55.637,62.005l-30.882-4.538c-1.3-0.192-2.497,0.706-2.688,2.001c-0.191,1.295,0.704,2.497,2,2.688
		l30.882,4.536c0.116,0.018,0.233,0.026,0.347,0.026c1.156,0,2.169-0.848,2.341-2.026C57.829,63.399,56.933,62.195,55.637,62.005z"
		/>
</g>
</svg>
