<?xml version="1.0" encoding="utf-8"?>
<!-- Generator: Adobe Illustrator 17.1.0, SVG Export Plug-In . SVG Version: 6.00 Build 0)  -->
<!DOCTYPE svg PUBLIC "-//W3C//DTD SVG 1.1 Tiny//EN" "http://www.w3.org/Graphics/SVG/1.1/DTD/svg11-tiny.dtd">
<svg version="1.1" baseProfile="tiny" id="Layer_1" xmlns="http://www.w3.org/2000/svg" xmlns:xlink="http://www.w3.org/1999/xlink"
	 x="0px" y="0px" viewBox="0 0 60 40" xml:space="preserve">
<rect x="0" y="0" fill="#006900" width="60" height="40"/>
<g>
	<path fill="#00C800" d="M3.722,21.728V40h43.455V21.728C47.177,9.728,37.449,0,25.45,0S3.722,9.728,3.722,21.728z M6.596,25.044
		h6.346c0,1.753-1.421,3.172-3.173,3.172C8.017,28.216,6.596,26.797,6.596,25.044z M25.95,35.044
		c-2.328-1.561-5.551-2.528-9.111-2.528c-3.562,0-6.783,0.967-9.111,2.528v-1.831c0-1.747,1.417-3.164,3.164-3.164h11.894
		c1.747,0,3.164,1.417,3.164,3.164V35.044z M23.821,28.216c-1.752,0-3.173-1.419-3.173-3.172h6.345
		C26.993,26.797,25.573,28.216,23.821,28.216z M28.567,20.989v1.01c0,0.87-0.704,1.574-1.574,1.574H6.595
		c-0.868,0-1.573-0.704-1.573-1.574v-1.01H28.567z"/>
	<path fill="#1D1D1B" d="M12.941,25.044H6.596c0,1.753,1.421,3.172,3.173,3.172C11.52,28.216,12.941,26.797,12.941,25.044z"/>
	<path fill="#1D1D1B" d="M23.821,28.216c1.752,0,3.172-1.419,3.172-3.172h-6.345C20.649,26.797,22.069,28.216,23.821,28.216z"/>
	<path fill="#1D1D1B" d="M5.022,21.999c0,0.87,0.705,1.574,1.573,1.574h20.398c0.87,0,1.574-0.704,1.574-1.574v-1.01H5.022V21.999z"
		/>
	<path fill="#FFFFFF" d="M22.786,30.049H10.892c-1.747,0-3.164,1.417-3.164,3.164v1.831c2.328-1.561,5.549-2.528,9.111-2.528
		c3.56,0,6.783,0.967,9.111,2.528v-1.831C25.95,31.466,24.533,30.049,22.786,30.049z"/>
</g>
</svg>
