<?xml version="1.0" encoding="utf-8"?>
<!-- Generator: Adobe Illustrator 17.1.0, SVG Export Plug-In . SVG Version: 6.00 Build 0)  -->
<!DOCTYPE svg PUBLIC "-//W3C//DTD SVG 1.1 Tiny//EN" "http://www.w3.org/Graphics/SVG/1.1/DTD/svg11-tiny.dtd">
<svg version="1.1" baseProfile="tiny" id="Layer_1" xmlns="http://www.w3.org/2000/svg" xmlns:xlink="http://www.w3.org/1999/xlink"
	 x="0px" y="0px" viewBox="0 0 130 130" xml:space="preserve">
<g>
	<polygon fill="#00A4C2" points="15.387,55.898 15.387,55.898 15.387,55.898 	"/>
	<path fill="#00A4C2" d="M13.533,85.562c-3.591-9.041-4.637-18.472-3.482-27.497l0,0l0,0c2.463-19.237,14.945-36.625,34.196-44.44
		C54.71,9.376,65.707,8.56,76.004,10.628c0.009-0.002,0.029-0.005,0.029-0.005c8.869,1.787,17.212,5.729,24.249,11.476
		c0.02,0.016,0.04,0.031,0.06,0.047l-0.003,0.001c2.971,2.433,5.714,5.182,8.156,8.237L78.301,42.642
		c-5.293,7.612-6.952,17.538-3.735,26.844l0.01,0.029V68.46c0-3.398,2.754-6.151,6.151-6.151c0.698,0,1.364,0.125,1.989,0.339
		v-0.006c0.011,0.004,0.021,0.01,0.032,0.014c0.29,0.101,0.565,0.229,0.833,0.37c0.051,0.027,0.107,0.045,0.157,0.073
		c0.314,0.177,0.612,0.377,0.888,0.603c0.277-0.227,0.576-0.427,0.891-0.604c0.047-0.027,0.1-0.044,0.149-0.069
		c0.271-0.143,0.549-0.272,0.841-0.374c0.011-0.004,0.02-0.01,0.031-0.014v0.005c0.625-0.214,1.291-0.339,1.989-0.339
		c3.395,0,6.15,2.752,6.151,6.149l27.268-11.068l7.245,17.847c0.528-3.335,0.809-6.752,0.809-10.235
		c0-17.95-7.276-34.2-19.038-45.963C99.199,7.275,82.949,0,65,0C29.102,0,0,29.101,0,65.001c0,21.443,10.388,40.455,26.402,52.294
		L13.526,85.579C13.528,85.573,13.53,85.567,13.533,85.562z"/>
	<path fill="#FFFFFF" d="M91.586,32.034c-5.572,2.262-10.091,6.014-13.286,10.609l30.195-12.259
		C103.005,29.318,97.154,29.773,91.586,32.034z"/>
	<path fill="#40FFD2" d="M129.191,75.237L129.191,75.237l-7.245-17.847L94.678,68.458c0,0.001,0,0.001,0,0.002v19.369
		c0,5.551-4.501,10.049-10.051,10.049c-5.551,0-10.051-4.498-10.051-10.049V69.515l-0.01-0.029
		c-3.217-9.306-1.558-19.232,3.735-26.844c3.195-4.595,7.714-8.347,13.286-10.609c5.568-2.261,11.419-2.716,16.909-1.65
		c-2.442-3.055-5.185-5.804-8.156-8.237l-14.868,6.036l-1.761-4.34l12.218-4.959c1.498,0.996,2.952,2.069,4.354,3.214
		c-7.037-5.747-15.38-9.689-24.249-11.476c0,0-0.02,0.004-0.029,0.005c0.01,0.002,0.02,0.003,0.029,0.005L39.692,25.388l3.069,7.564
		l-6.034,14.283l10.081,24.833L13.537,85.573c-0.002-0.004-0.003-0.008-0.004-0.012c-0.002,0.006-0.004,0.011-0.006,0.017
		l12.876,31.716C37.197,125.275,50.545,130,65,130C97.414,130,124.28,106.27,129.191,75.237z M78.15,26.099l1.761,4.34
		l-14.919,6.056l-1.763-4.34L78.15,26.099z"/>
	
		<rect x="69.229" y="23.246" transform="matrix(0.376 0.9266 -0.9266 0.376 73.6572 -46.7897)" fill="#1D1D1B" width="4.684" height="16.102"/>
	<path fill="#1D1D1B" d="M100.282,22.099c-1.402-1.145-2.855-2.218-4.354-3.214l-12.218,4.959l1.761,4.34l14.868-6.036l0.003-0.001
		C100.323,22.13,100.302,22.115,100.282,22.099z"/>
	<rect x="15.387" y="55.898" fill="#8265A5" width="0" height="0"/>
	<path fill="#8265A5" d="M31.392,49.401l-1.584,3.75l-3.751-1.584l-1.584,3.75l-3.751-1.584l-1.585,3.75l-3.751-1.584l-1.585,3.75
		l-3.751-1.584l0,0l0,0l0,0c-1.155,9.025-0.109,18.457,3.482,27.497c0.001,0.004,0.003,0.008,0.004,0.012l33.271-13.506
		L36.728,47.235l-1.584,3.75L31.392,49.401z"/>
	<polygon fill="#8265A5" points="31.392,49.401 31.392,49.401 31.392,49.401 	"/>
	<polygon fill="#8265A5" points="20.722,53.733 20.722,53.733 20.722,53.732 	"/>
	<path fill="#AC0084" d="M44.246,13.625c-19.251,7.815-31.733,25.203-34.196,44.44l0,0l0,0l0,0l3.751,1.584l1.585-3.75l0,0l0,0l0,0
		l0,0v0l3.751,1.584l1.585-3.75l0,0l0,0l0,0l3.751,1.584l1.584-3.75l3.751,1.584l1.584-3.75h0l0,0v0l3.751,1.584l1.584-3.75
		l6.034-14.283l-3.069-7.564l36.341-14.754c-0.01-0.002-0.02-0.003-0.029-0.005C65.707,8.56,54.71,9.376,44.246,13.625z"/>
	<path fill="#FF90D4" d="M88.526,62.309c-0.698,0-1.364,0.125-1.989,0.339v25.351h-3.821V62.648
		c-0.625-0.214-1.291-0.339-1.989-0.339c-3.397,0-6.151,2.753-6.151,6.151v1.055v18.314c0,5.551,4.5,10.049,10.051,10.049
		c5.55,0,10.051-4.498,10.051-10.049V68.46c0-0.001,0-0.001,0-0.002C94.676,65.061,91.921,62.309,88.526,62.309z"/>
	<path fill="#FF90D4" d="M83.737,63.099c0.314,0.176,0.612,0.377,0.888,0.603C84.349,63.476,84.051,63.276,83.737,63.099z"/>
	<path fill="#FF90D4" d="M84.626,63.703c0.278-0.227,0.576-0.428,0.891-0.604C85.202,63.276,84.903,63.476,84.626,63.703z"/>
	<path fill="#FF90D4" d="M82.748,62.656c0.289,0.101,0.565,0.23,0.833,0.37C83.313,62.885,83.038,62.757,82.748,62.656z"/>
	<path fill="#FF90D4" d="M85.665,63.03c0.271-0.142,0.549-0.272,0.841-0.374C86.214,62.758,85.936,62.887,85.665,63.03z"/>
	<path fill="#FF44B5" d="M82.716,87.999h3.821V62.648v-0.005c-0.011,0.004-0.02,0.01-0.031,0.014
		c-0.293,0.102-0.571,0.232-0.841,0.374c-0.048,0.025-0.101,0.042-0.149,0.069c-0.315,0.176-0.613,0.377-0.891,0.604
		c-0.276-0.227-0.574-0.428-0.888-0.603c-0.05-0.028-0.106-0.046-0.157-0.073c-0.268-0.14-0.543-0.269-0.833-0.37
		c-0.011-0.004-0.021-0.01-0.032-0.014v0.006V87.999z"/>
</g>
</svg>
