<?xml version="1.0" encoding="utf-8"?>
<!-- Generator: Adobe Illustrator 17.1.0, SVG Export Plug-In . SVG Version: 6.00 Build 0)  -->
<!DOCTYPE svg PUBLIC "-//W3C//DTD SVG 1.1 Tiny//EN" "http://www.w3.org/Graphics/SVG/1.1/DTD/svg11-tiny.dtd">
<svg version="1.1" baseProfile="tiny" id="Layer_1" xmlns="http://www.w3.org/2000/svg" xmlns:xlink="http://www.w3.org/1999/xlink"
	 x="0px" y="0px" viewBox="0 0 60 40" xml:space="preserve">
<g>
	<path fill="#5C0079" d="M0-0.004V13.21l14.648-8.028l0,0l3.742-2.051c0.584-0.32,1.178-0.606,1.779-0.859
		c0.113-0.048,0.229-0.08,0.343-0.125c0.491-0.196,0.984-0.384,1.483-0.536c0.115-0.035,0.231-0.055,0.346-0.088
		c0.501-0.143,1.003-0.277,1.509-0.378c0.128-0.025,0.258-0.036,0.386-0.058C24.727,1,25.218,0.919,25.71,0.871
		c0.012-0.001,0.024-0.004,0.036-0.005l0.002,0.003c7.365-0.701,14.784,2.932,18.565,9.831l-14.389,7.885
		c-2.965,1.624-4.096,5.283-2.625,8.288c0.497-0.615,1.117-1.146,1.853-1.55c3.032-1.664,6.839-0.556,8.501,2.477
		c0.132,0.24,0.24,0.486,0.337,0.735l8.209-4.5c-1.156,5.172-4.442,9.842-9.455,12.588L30.58,40h29.426V-0.004H0z"/>
	<path fill="#FF90D4" d="M35.981,29.636l2.009-1.101c-0.097-0.248-0.206-0.495-0.337-0.735c-1.662-3.032-5.469-4.141-8.501-2.477
		c-0.736,0.404-1.356,0.936-1.853,1.55c0.043,0.088,0.08,0.177,0.128,0.264C29.1,30.188,32.929,31.308,35.981,29.636z"/>
	<path fill="#F46000" d="M22.34,1.523c0.501-0.143,1.003-0.277,1.509-0.378C23.344,1.246,22.841,1.38,22.34,1.523z"/>
	<path fill="#F46000" d="M24.236,1.087C24.726,1,25.218,0.92,25.71,0.871C25.218,0.919,24.727,1,24.236,1.087z"/>
	<path fill="#F46000" d="M18.391,3.132c0.584-0.32,1.178-0.606,1.779-0.859C19.569,2.526,18.975,2.812,18.391,3.132z"/>
	<path fill="#F46000" d="M46.199,24.034l-8.209,4.5l-2.009,1.101c-3.052,1.672-6.881,0.553-8.554-2.498
		c-0.048-0.087-0.085-0.176-0.128-0.264c-1.471-3.005-0.34-6.664,2.625-8.288L44.312,10.7c-3.78-6.899-11.2-10.532-18.565-9.831
		l2.441,4.454c1.567,2.858,0.519,6.446-2.34,8.014c-2.858,1.566-6.447,0.52-8.014-2.34l-0.524-0.957l-0.59,13.767l-11.96-6.932
		l12.532-6.868l-2.645-4.825L0,13.21V40h30.58l6.164-3.378C41.757,33.876,45.043,29.206,46.199,24.034z M41.106,6.478l-1.53,5.239
		l-5.239-1.53L41.106,6.478z M28.498,4.354c0.432-1.48,1.983-2.33,3.462-1.897c1.481,0.433,2.33,1.982,1.898,3.463
		c-0.432,1.48-1.982,2.331-3.463,1.899C28.915,7.387,28.065,5.835,28.498,4.354z"/>
	<path fill="#F46000" d="M20.512,2.148c0.491-0.196,0.984-0.384,1.483-0.536C21.496,1.764,21.003,1.952,20.512,2.148z"/>
	<path fill="#FFB500" d="M17.312,9.997l-0.002,0.043l0.524,0.957c1.566,2.859,5.155,3.906,8.014,2.34
		c2.859-1.567,3.907-5.155,2.34-8.014l-2.441-4.454l-0.002-0.003c-0.012,0.001-0.024,0.004-0.036,0.005
		C25.218,0.92,24.726,1,24.236,1.087C24.107,1.11,23.978,1.12,23.85,1.145c-0.506,0.1-1.008,0.235-1.509,0.378
		c-0.115,0.033-0.231,0.053-0.346,0.088c-0.499,0.153-0.992,0.341-1.483,0.536c-0.114,0.045-0.229,0.077-0.343,0.125
		c-0.601,0.253-1.194,0.539-1.779,0.859l-3.742,2.051l0,0l2.645,4.825L17.312,9.997z M23.795,5.479
		c1.48,0.432,2.33,1.982,1.898,3.463c-0.432,1.48-1.982,2.33-3.463,1.898c-1.48-0.433-2.329-1.983-1.897-3.463
		C20.764,5.897,22.314,5.047,23.795,5.479z"/>
	<circle fill="#1D1D1B" cx="23.012" cy="8.16" r="2.793"/>
	<polygon fill="#FF90D4" points="41.106,6.478 34.336,10.187 39.575,11.718 	"/>
	<polygon fill="#1D1D1B" points="17.293,10.008 4.761,16.876 16.721,23.808 17.311,10.04 17.312,9.997 	"/>
	<circle fill="#1D1D1B" cx="31.178" cy="5.138" r="2.793"/>
</g>
</svg>
