<?xml version="1.0" encoding="utf-8"?>
<!-- Generator: Adobe Illustrator 17.1.0, SVG Export Plug-In . SVG Version: 6.00 Build 0)  -->
<!DOCTYPE svg PUBLIC "-//W3C//DTD SVG 1.1 Tiny//EN" "http://www.w3.org/Graphics/SVG/1.1/DTD/svg11-tiny.dtd">
<svg version="1.1" baseProfile="tiny" id="Layer_1" xmlns="http://www.w3.org/2000/svg" xmlns:xlink="http://www.w3.org/1999/xlink"
	 x="0px" y="0px" viewBox="0 0 60 40" xml:space="preserve">
<g>
	<rect x="0" y="0" fill="#AD2700" width="60" height="40"/>
</g>
<g>
	<path fill="#F46000" d="M13.704,16.314c-2.086,1.155-3.499,3.375-3.499,5.928c0,2.013,0.883,3.816,2.278,5.057v-3.757
		C12.482,21.009,12.916,18.578,13.704,16.314z"/>
	<path fill="#F46000" d="M34.484,1.54c-9.618,0-17.79,6.174-20.781,14.773c-0.788,2.265-1.221,4.695-1.221,7.229v3.757V40h44.004
		V23.542C56.486,11.391,46.635,1.54,34.484,1.54z M38.461,19.809c0.839,0,1.519,0.68,1.519,1.52c0,0.839-0.68,1.519-1.519,1.519
		c-0.839,0-1.52-0.68-1.52-1.519C36.942,20.489,37.622,19.809,38.461,19.809z M36.373,24.714c0.475,0,0.861,0.386,0.861,0.862
		c0,0.476-0.386,0.861-0.861,0.861c-0.476,0-0.862-0.385-0.862-0.861C35.51,25.1,35.896,24.715,36.373,24.714z M30.767,12.414
		c0.18,0,0.362,0.013,0.545,0.04c2.028,0.298,3.431,2.183,3.133,4.212l-1.593-0.234v-0.001c0.081-0.555-0.058-1.109-0.393-1.56
		c-0.335-0.45-0.826-0.743-1.381-0.825c-0.104-0.015-0.208-0.022-0.311-0.022c-1.033,0-1.925,0.772-2.075,1.796l-1.593-0.234
		C27.371,13.74,28.956,12.414,30.767,12.414z M21.371,11.034c0.18,0,0.362,0.013,0.545,0.04c2.028,0.298,3.431,2.183,3.133,4.212
		l-1.593-0.234v0c0.081-0.555-0.058-1.109-0.393-1.56c-0.335-0.45-0.826-0.743-1.381-0.825c-0.104-0.015-0.208-0.022-0.311-0.022
		c-1.033,0-1.925,0.772-2.075,1.796l-1.593-0.234C17.974,12.36,19.56,11.034,21.371,11.034z M16.441,30.12
		c-0.839,0-1.519-0.68-1.519-1.519c0-0.839,0.68-1.518,1.519-1.52c0.839,0.001,1.52,0.68,1.52,1.52
		C17.96,29.44,17.28,30.12,16.441,30.12z M30.725,28.84v5.893c0,0.839-0.68,1.519-1.519,1.52c-0.839,0-1.519-0.681-1.519-1.52v-6.5
		l-0.001-0.01c0-0.758-0.554-1.383-1.278-1.499l-8.59-1.263c-2.199-0.323-3.72-2.367-3.396-4.566
		c0.323-2.199,2.371-3.724,4.566-3.396l12.236,1.798c2.199,0.323,3.72,2.367,3.396,4.566c-0.225,1.531-1.285,2.734-2.651,3.214
		C31.243,27.335,30.725,28.027,30.725,28.84z M40.392,30.554c-2.533,1.247-5.44,0.869-7.545-0.729
		c1.823,0.535,3.844,0.415,5.683-0.49c3.899-1.917,5.505-6.633,3.587-10.531l-0.004-0.008c0.63,0.583,1.166,1.289,1.567,2.105
		C45.437,24.475,43.965,28.797,40.392,30.554z"/>
	<path fill="#AD2700" d="M42.112,18.797l0.004,0.008c1.918,3.898,0.312,8.614-3.587,10.531c-1.838,0.904-3.86,1.024-5.683,0.49
		c2.105,1.597,5.012,1.975,7.545,0.729c3.572-1.757,5.045-6.079,3.287-9.652C43.278,20.086,42.743,19.381,42.112,18.797z"/>
	<circle fill="#FFB500" cx="16.441" cy="28.601" r="1.519"/>
	<circle fill="#FFB500" cx="38.461" cy="21.328" r="1.519"/>
	<circle fill="#FFB500" cx="36.373" cy="25.576" r="0.861"/>
	<path fill="#1D1D1B" d="M21.371,12.644c0.103,0,0.207,0.008,0.311,0.022c0.555,0.082,1.046,0.375,1.381,0.825
		c0.335,0.451,0.474,1.005,0.393,1.56v0l1.593,0.234c0.298-2.029-1.105-3.914-3.133-4.212c-0.183-0.027-0.365-0.04-0.545-0.04
		c-1.811,0-3.396,1.326-3.668,3.172l1.593,0.234C19.446,13.416,20.338,12.644,21.371,12.644z"/>
	<path fill="#1D1D1B" d="M30.767,14.024c0.103,0,0.207,0.008,0.311,0.022c0.555,0.082,1.046,0.375,1.381,0.825
		c0.335,0.451,0.474,1.005,0.393,1.56v0.001l1.593,0.234c0.298-2.029-1.105-3.914-3.133-4.212c-0.183-0.027-0.365-0.04-0.545-0.04
		c-1.811,0-3.396,1.326-3.668,3.172l1.593,0.234C28.842,14.796,29.734,14.024,30.767,14.024z"/>
	<path fill="#FFB500" d="M34.619,23.862c0.324-2.199-1.197-4.243-3.396-4.566l-12.236-1.798c-2.195-0.327-4.243,1.198-4.566,3.396
		c-0.324,2.199,1.197,4.244,3.396,4.566l8.59,1.263c0.724,0.116,1.278,0.742,1.278,1.499l0.001,0.01v6.5
		c0,0.839,0.68,1.52,1.519,1.52c0.839-0.001,1.519-0.681,1.519-1.52V28.84c0-0.813,0.518-1.505,1.243-1.763
		C33.334,26.596,34.394,25.394,34.619,23.862z M30.639,24.216c-0.045,0-0.091-0.003-0.137-0.01l-12.236-1.797
		c-0.513-0.076-0.868-0.552-0.792-1.065c0.076-0.513,0.55-0.869,1.065-0.793l12.236,1.798c0.513,0.075,0.868,0.552,0.792,1.065
		C31.499,23.881,31.097,24.216,30.639,24.216z"/>
	<path fill="#AD2700" d="M30.774,22.349l-12.236-1.798c-0.515-0.076-0.99,0.28-1.065,0.793c-0.076,0.513,0.279,0.99,0.792,1.065
		l12.236,1.797c0.046,0.007,0.092,0.01,0.137,0.01c0.458,0,0.86-0.336,0.928-0.803C31.643,22.901,31.288,22.424,30.774,22.349z"/>
</g>
</svg>
