<?xml version="1.0" encoding="utf-8"?>
<!-- Generator: Adobe Illustrator 17.1.0, SVG Export Plug-In . SVG Version: 6.00 Build 0)  -->
<!DOCTYPE svg PUBLIC "-//W3C//DTD SVG 1.1 Tiny//EN" "http://www.w3.org/Graphics/SVG/1.1/DTD/svg11-tiny.dtd">
<svg version="1.1" baseProfile="tiny" id="Layer_1" xmlns="http://www.w3.org/2000/svg" xmlns:xlink="http://www.w3.org/1999/xlink"
	 x="0px" y="0px" viewBox="0 0 130 130" xml:space="preserve">
<g>
	<path fill="#004E49" d="M6.948,75.209l3.357-19.528c5.197-30.225,33.912-50.514,64.137-45.318
		c30.225,5.197,50.515,33.912,45.318,64.137l-5.691,33.102C123.984,96.193,130,81.304,130,65.001C130,29.101,100.899,0,65.001,0
		C29.101,0,0,29.101,0,65.001c0,8.467,1.636,16.548,4.582,23.966L6.948,75.209z"/>
	<path fill="#BBF200" d="M111.052,110.868c-0.802,0.805-1.625,1.589-2.467,2.35C109.427,112.456,110.25,111.673,111.052,110.868z"/>
	<path fill="#BBF200" d="M43.56,126.363c-0.353-0.123-0.709-0.238-1.059-0.367C42.851,126.126,43.208,126.24,43.56,126.363z"/>
	<path fill="#BBF200" d="M66.566,101.007c5.937-4.676,13.757-6.916,21.792-5.535c8.006,1.375,14.607,6.071,18.644,12.426
		L107,107.891l-4.106-14.965l-0.004-0.014c-0.25-0.026-0.499-0.047-0.75-0.091c-6.12-1.05-10.228-6.865-9.176-12.982l3.93,0.674
		c-0.614,3.565,1.493,6.963,4.814,8.09l-7.493-27.311L78.058,84.496c3.397-0.082,6.372-2.548,6.97-6.023l3.927,0.674
		c-1.051,6.12-6.865,10.232-12.985,9.177c-0.17-0.029-0.333-0.076-0.5-0.112l-0.009,0.013l-27.508,39.501
		C53.388,129.199,59.1,130,65.001,130c16.723,0,31.966-6.32,43.484-16.695l-1.465-5.339L66.566,101.007z"/>
	<path fill="#BBF200" d="M46.612,127.345c-0.402-0.118-0.807-0.231-1.206-0.357C45.805,127.114,46.209,127.226,46.612,127.345z"/>
	<path fill="#BBF200" d="M111.593,110.301c0.587-0.603,1.168-1.212,1.731-1.837l-0.001-0.005
		C112.759,109.085,112.18,109.697,111.593,110.301z"/>
	<path fill="#FF342B" d="M88.358,95.472c-8.034-1.381-15.854,0.859-21.792,5.535l40.454,6.958l0,0l-0.018-0.067
		C102.965,101.543,96.364,96.847,88.358,95.472z"/>
	<path fill="#1D1D1B" d="M75.47,88.212c0.167,0.036,0.33,0.083,0.5,0.112c6.12,1.055,11.934-3.057,12.985-9.177l-3.927-0.674
		c-0.598,3.475-3.573,5.941-6.97,6.023l-0.002,0.003L75.47,88.212z"/>
	<path fill="#1D1D1B" d="M101.709,88.605c-3.321-1.128-5.428-4.525-4.814-8.09l-3.93-0.674c-1.052,6.117,3.056,11.932,9.176,12.982
		c0.251,0.043,0.5,0.065,0.75,0.091l-1.179-4.298L101.709,88.605z"/>
	<path fill="#A8D900" d="M75.461,88.225c-2.043-0.447-3.834-1.438-5.266-2.782L60.127,99.902l-18.054,25.926
		c0.144,0.054,0.284,0.116,0.429,0.169c0.35,0.129,0.706,0.243,1.059,0.367c0.613,0.214,1.225,0.428,1.846,0.625
		c0.399,0.126,0.804,0.238,1.206,0.357c0.445,0.131,0.892,0.259,1.342,0.381L75.461,88.225z"/>
	<path fill="#A8D900" d="M76.645,84.394c0.417,0.072,0.831,0.106,1.24,0.106c0.057,0,0.115-0.001,0.172-0.002l0.002-0.003
		l16.157-23.202l7.493,27.311l0.003,0.01c0.355,0.12,0.724,0.214,1.104,0.28c0.416,0.071,0.829,0.106,1.237,0.106
		c1.314,0,2.57-0.359,3.657-0.996L96.604,47.518L72.509,82.119C73.56,83.277,74.985,84.109,76.645,84.394z"/>
	<path fill="#A8D900" d="M108.787,91.927c-1.453,0.678-3.056,1.06-4.724,1.06c-0.387,0-0.777-0.02-1.169-0.061L107,107.891
		c0.017,0.026,0.033,0.052,0.05,0.079l-0.03-0.005l0,0l1.465,5.339c0.033-0.029,0.067-0.057,0.099-0.086
		c0.842-0.762,1.666-1.545,2.467-2.35c0.184-0.185,0.359-0.38,0.541-0.567c0.587-0.604,1.166-1.216,1.729-1.842L108.787,91.927z"/>
	<path fill="#E52F27" d="M107.02,107.965l0.03,0.005c-0.017-0.027-0.033-0.053-0.05-0.079l0.002,0.007L107.02,107.965z"/>
	<path fill="#1A1A18" d="M75.461,88.225l0.009-0.013l2.586-3.714C77.999,84.5,77.942,84.5,77.885,84.5
		c-0.409,0-0.823-0.035-1.24-0.106c-1.66-0.285-3.085-1.117-4.136-2.275l-2.314,3.323C71.628,86.787,73.419,87.778,75.461,88.225z"
		/>
	<path fill="#1A1A18" d="M104.053,89.001c-0.408,0-0.822-0.034-1.237-0.106c-0.381-0.066-0.75-0.16-1.104-0.28l1.179,4.298
		l0.004,0.014c0.392,0.041,0.782,0.061,1.169,0.061c1.668,0,3.271-0.383,4.724-1.06l-1.076-3.922
		C106.624,88.642,105.368,89.001,104.053,89.001z"/>
	<path fill="#00BBFF" d="M119.76,74.5c5.197-30.225-15.093-58.94-45.318-64.137c-30.225-5.197-58.94,15.093-64.137,45.318
		L6.948,75.209l4.477,16.317l11.097-15.934l5.137,18.726l11.097-15.936l5.137,18.726l11.096-15.936l5.138,18.729l10.068-14.459
		l2.314-3.323l24.095-34.602l11.107,40.487l1.076,3.922l4.535,16.532l0.001,0.005c0.254-0.282,0.497-0.574,0.746-0.861L119.76,74.5z
		"/>
	<path fill="#00A1FF" d="M60.127,99.902l-5.138-18.729L43.893,97.109l-5.137-18.726L27.659,94.319l-5.137-18.726L11.425,91.526
		L6.948,75.209L4.582,88.967c6.734,16.96,20.389,30.411,37.49,36.86L60.127,99.902z"/>
</g>
</svg>
