<?xml version="1.0" encoding="utf-8"?>
<!-- Generator: Adobe Illustrator 17.0.2, SVG Export Plug-In . SVG Version: 6.00 Build 0)  -->
<!DOCTYPE svg PUBLIC "-//W3C//DTD SVG 1.1 Tiny//EN" "http://www.w3.org/Graphics/SVG/1.1/DTD/svg11-tiny.dtd">
<svg version="1.1" baseProfile="tiny" id="Layer_1" xmlns="http://www.w3.org/2000/svg" xmlns:xlink="http://www.w3.org/1999/xlink"
	 x="0px" y="0px" width="300px" height="245px" viewBox="0 0 300 245" xml:space="preserve">
<g>
	<path fill-rule="evenodd" fill="#263168" d="M4.469,101.355L230.812,0.659c3.811-1.695,8.287-0.007,9.997,3.771l58.525,129.303
		c1.71,3.778,0.007,8.216-3.804,9.911L69.188,244.341c-3.811,1.695-8.287,0.007-9.997-3.771L0.665,111.266
		C-1.045,107.488,0.658,103.05,4.469,101.355z"/>
	<g>
		<path fill-rule="evenodd" fill="#FCB131" d="M164.522,154.482c10.784,3.576,22.944,3.243,34.088-1.716
			c23.933-10.651,34.543-38.626,23.767-62.431c-10.809-23.878-38.941-34.613-62.874-23.962
			c-11.144,4.959-19.477,13.746-23.95,24.112c-5.159,11.829-5.524,25.712,0.216,38.393
			C141.509,141.558,152.213,150.516,164.522,154.482L164.522,154.482z"/>
		<path fill-rule="evenodd" fill="#ED1C2E" d="M161.959,111.698c-0.855-1.491-1.825-2.841-2.829-4.265l-26.476,11.782
			c-0.406-1.69-0.628-3.373-0.851-5.056l24.008-10.684c-1.229-1.324-2.532-2.615-3.876-3.799l-20.343,9.053
			c0.043-1.89,0.161-3.814,0.387-5.696l15.332-6.823c-1.677-1.124-3.504-2.183-5.339-3.059l-8.751,3.894
			c0.608-2.23,1.399-4.454,2.331-6.561c-10.825-3.468-22.944-3.243-34.163,1.75c-23.858,10.617-34.543,38.626-23.734,62.505
			c10.775,23.805,38.982,34.506,62.841,23.889c11.219-4.993,19.477-13.746,24.025-24.145l0,0l0,0
			c0.933-2.108,1.683-4.224,2.29-6.454l-8.751,3.894c-1.868-0.951-3.586-1.968-5.372-3.133l15.332-6.823
			c0.301-1.916,0.452-3.765,0.462-5.729l-20.343,9.053c-1.345-1.184-2.689-2.367-3.917-3.691l24.008-10.684
			c-0.148-1.716-0.479-3.44-0.81-5.163c-0.372-1.616-0.778-3.307-1.333-4.931c-0.522-1.55-1.118-3.066-1.823-4.624
			C163.56,114.639,162.78,113.115,161.959,111.698L161.959,111.698z"/>
		<path fill-rule="evenodd" fill="#FFFFFF" d="M174.201,99.836l1.326,5.112c-2.015-0.083-3.379,0.078-4.725,0.678
			c-3.515,1.564-4.439,6.074-2.257,10.894c1.511,3.337,4.062,4.607,6.83,3.375c1.122-0.499,2.3-1.469,3.46-2.876l1.426,5.335
			c-1.519,1.21-2.54,1.932-3.811,2.498c-5.086,2.263-9.872,0.027-12.524-5.831c-3.525-7.787-1.671-15.205,4.537-17.967
			c0.823-0.366,1.604-0.625,2.27-0.743l2.071-0.387C173.502,99.88,173.685,99.887,174.201,99.836L174.201,99.836z"/>
		<path fill-rule="evenodd" fill="#FFFFFF" d="M160.57,109.822c-0.149,0.067-0.299,0.133-0.449,0.2
			c-1.571,0.699-2.133,1.84-2.58,4.623l-0.793-2.944l-4.263,1.897l5.139,19.096l4.712-2.097c-3.214-11.667-3.605-13.72-1.361-14.719
			c0.149-0.067,0.149-0.067,0.299-0.133c-0.525-2.35-0.632-4.174-0.521-5.916L160.57,109.822L160.57,109.822z"/>
		<path fill-rule="evenodd" fill="#FFFFFF" d="M141.519,139.594c-1.07,1.011-2.05,1.625-3.097,2.091
			c-2.393,1.065-4.344,0.329-5.519-2.266c-0.201-0.445-0.395-1.072-0.555-1.624l-0.506-1.913l-0.413-1.509l-3.486-13.061
			l4.637-2.064l0.685,2.903l2.393-1.065l1.382,4.642l-2.393,1.065l2.085,7.982c0.059,0.33,0.16,0.552,0.261,0.775
			c0.403,0.89,1.02,1.061,2.141,0.562c0.523-0.233,0.972-0.433,1.204-0.714L141.519,139.594L141.519,139.594z"/>
		<path fill-rule="evenodd" fill="#FFFFFF" d="M118.089,135.676c1.007,2.225,2.759,3.316,5.764,3.404
			c2.347,0.025,2.781,0.188,3.116,0.93c0.504,1.113-0.084,1.998-1.954,2.83c-1.421,0.632-2.793,0.976-4.49,1.196l1.173,4.378
			l0.258-0.026l0.89-0.218c0.332-0.059,0.74-0.151,1.338-0.417c1.114-0.318,2.012-0.717,2.61-0.983
			c4.936-2.197,6.416-5.082,4.569-9.161c-1.108-2.447-2.718-3.424-5.54-3.504c-2.422,0.009-2.747-0.114-3.117-0.929
			c-0.436-0.964,0.185-1.775,1.681-2.441c0.897-0.399,2.203-0.891,3.466-1.275l-1.173-4.378c-1.297,0.31-3.234,0.994-4.281,1.46
			C117.165,128.871,116.538,132.447,118.089,135.676L118.089,135.676z"/>
		<path fill-rule="evenodd" fill="#FFFFFF" d="M219.626,105.102l-4.413,1.964l-0.548-1.806c-0.667,1.901-1.745,3.093-3.465,3.858
			c-3.441,1.531-6.993-0.363-9.007-4.812c-2.685-5.932-1.453-12.54,2.661-14.37c1.87-0.832,3.585-0.616,5.595,0.45l-1.773-6.695
			l4.637-2.064L219.626,105.102L219.626,105.102z M210.866,104.011c2.169-0.965,2.523-4.152,0.946-7.638
			c-1.04-2.299-2.4-3.119-4.046-2.387c-2.094,0.932-2.557,4.078-0.98,7.563C207.861,103.923,209.221,104.743,210.866,104.011
			L210.866,104.011z"/>
		<path fill-rule="evenodd" fill="#FFFFFF" d="M155.811,133.055c-1.41,1.252-2.805,2.14-4.526,2.905
			c-5.235,2.33-9.17,0.784-11.553-4.481c-2.753-6.081-1.36-12.136,3.352-14.232c3.889-1.731,7.499-0.308,9.278,3.622
			c0.604,1.335,1.025,2.662,1.416,4.716l-9.274,4.127c0.026,0.256,0.093,0.404,0.16,0.552c0.94,2.076,2.831,2.482,5.523,1.284
			c1.72-0.766,3.082-1.728,4.358-3.276L155.811,133.055L155.811,133.055z M148.393,123.616c-0.168-0.371-0.302-0.667-0.403-0.89
			c-0.671-1.483-1.863-1.933-3.284-1.3c-1.496,0.666-2.039,2.244-1.548,4.52L148.393,123.616L148.393,123.616z"/>
		<polygon fill-rule="evenodd" fill="#FFFFFF" points="105.72,155.793 101.083,157.856 96.155,139.825 97.717,159.354 
			94.501,160.785 86.574,144.266 91.285,162.217 86.947,164.147 80.709,140.64 87.44,137.644 93.808,151.115 92.152,135.547 
			99.482,132.285 105.72,155.793 		"/>
		<path fill-rule="evenodd" fill="#FFFFFF" d="M113.721,142.699c-0.449,0.2-0.707,0.225-1.081,0.392
			c-2.618,1.165-3.527,2.728-2.722,4.508c0.504,1.113,1.404,1.514,2.451,1.048C114.314,147.781,114.854,145.402,113.721,142.699
			L113.721,142.699z M120.753,149.103l-3.889,1.731l-0.764-1.887c-0.525,2.015-1.794,3.382-3.963,4.347
			c-2.543,1.132-5.136-0.031-6.445-2.923c-1.981-4.375-0.13-8.228,5.105-10.558c0.524-0.233,1.23-0.458,2.012-0.717
			c-0.119-0.66-0.22-0.882-0.354-1.179c-0.537-1.187-1.561-1.265-3.73-0.3c-1.346,0.599-2.775,1.413-3.688,2.176l-0.572,0.522
			l-0.415,0.274l-1.14-4.304c2.016-1.699,3.486-2.621,5.207-3.386c4.039-1.797,7.013-0.983,8.558,2.428
			c0.403,0.89,0.63,1.591,1.237,3.726l1.806,6.769l0.354,1.179l0.328,0.923l0.227,0.701L120.753,149.103L120.753,149.103z"/>
		<path fill-rule="evenodd" fill="#FFFFFF" d="M187.764,109.748c-0.523,0.233-0.782,0.259-1.081,0.392
			c-2.692,1.198-3.602,2.761-2.797,4.541c0.504,1.113,1.479,1.48,2.526,1.014C188.282,114.863,188.897,112.451,187.764,109.748
			L187.764,109.748z M194.796,116.152l-3.889,1.731l-0.764-1.887c-0.525,2.015-1.794,3.382-3.963,4.347
			c-2.543,1.132-5.136-0.031-6.445-2.923c-1.981-4.375-0.13-8.228,5.105-10.558c0.524-0.233,1.23-0.458,1.937-0.684
			c-0.119-0.66-0.145-0.916-0.279-1.212c-0.537-1.187-1.561-1.265-3.73-0.3c-1.346,0.599-2.85,1.446-3.763,2.209l-0.498,0.489
			l-0.415,0.274l-1.139-4.304c2.017-1.699,3.486-2.621,5.206-3.386c4.039-1.797,6.939-0.949,8.483,2.462
			c0.403,0.89,0.705,1.557,1.237,3.726l1.881,6.736l0.354,1.179l0.253,0.956l0.227,0.701L194.796,116.152L194.796,116.152z"/>
		<path fill-rule="evenodd" fill="#FFFFFF" d="M199.237,92.614c-0.15,0.067-0.299,0.133-0.449,0.2
			c-1.571,0.699-2.132,1.84-2.58,4.623l-0.793-2.944l-4.263,1.897l5.214,19.063l4.637-2.064c-3.214-11.667-3.605-13.72-1.361-14.719
			c0.15-0.067,0.15-0.067,0.299-0.133c-0.525-2.35-0.631-4.174-0.521-5.916L199.237,92.614L199.237,92.614z"/>
	</g>
</g>
</svg>
