<?xml version="1.0" encoding="utf-8"?>
<!-- Generator: Adobe Illustrator 17.0.0, SVG Export Plug-In . SVG Version: 6.00 Build 0)  -->
<!DOCTYPE svg PUBLIC "-//W3C//DTD SVG 1.1//EN" "http://www.w3.org/Graphics/SVG/1.1/DTD/svg11.dtd">
<svg version="1.1" id="Layer_1" xmlns="http://www.w3.org/2000/svg" xmlns:xlink="http://www.w3.org/1999/xlink" x="0px" y="0px"
	 width="38px" height="38px" viewBox="0 0 38 38" enable-background="new 0 0 38 38" xml:space="preserve">
<g>
	<path fill="#FFFFFF" d="M9.028,19.194c0.371,0,0.742-0.141,1.024-0.422c0.57-0.566,0.572-1.486,0.007-2.056L5.62,12.245h30.749
		c0.756,0,1.368-0.612,1.368-1.368c0-0.756-0.612-1.368-1.368-1.368H5.295l4.763-4.797c0.566-0.57,0.563-1.489-0.007-2.056
		C9.482,2.09,8.561,2.092,7.996,2.662L0,10.714l7.996,8.052C8.28,19.051,8.653,19.194,9.028,19.194z M30.004,19.237
		c-0.566-0.57-1.486-0.572-2.056-0.009c-0.57,0.568-0.572,1.486-0.007,2.056l4.763,4.797H1.632c-0.756,0-1.368,0.612-1.368,1.368
		c0,0.756,0.612,1.368,1.368,1.368H32.38l-4.439,4.471c-0.566,0.57-0.563,1.491,0.007,2.056c0.284,0.282,0.655,0.422,1.024,0.422
		c0.373,0,0.747-0.145,1.03-0.429L38,27.286L30.004,19.237z"/>
</g>
</svg>
