<?xml version="1.0" encoding="utf-8"?>
<!-- Generator: Adobe Illustrator 17.0.2, SVG Export Plug-In . SVG Version: 6.00 Build 0)  -->
<!DOCTYPE svg PUBLIC "-//W3C//DTD SVG 1.1 Tiny//EN" "http://www.w3.org/Graphics/SVG/1.1/DTD/svg11-tiny.dtd">
<svg version="1.1" baseProfile="tiny" id="Layer_1" xmlns="http://www.w3.org/2000/svg" xmlns:xlink="http://www.w3.org/1999/xlink"
	 x="0px" y="0px" width="300px" height="245px" viewBox="0 0 300 245" xml:space="preserve">
<g>
	<path fill-rule="evenodd" fill="#0F2C17" d="M4.469,101.355L230.813,0.659c3.811-1.695,8.287-0.007,9.997,3.771l58.525,129.303
		c1.71,3.778,0.007,8.216-3.804,9.911L69.188,244.341c-3.811,1.695-8.287,0.007-9.997-3.771L0.665,111.266
		C-1.045,107.488,0.658,103.05,4.469,101.355z"/>
	<g>
		<path fill="#5DB933" d="M116.068,148.954c0,0,13.297-2.551,36.565-40.664c24.184-39.615,55.815-37.193,55.815-37.193
			s-21.54,0.159-44.899,34.945C137.551,144.756,116.068,148.954,116.068,148.954z"/>
		<g>
			<path fill="#FFFFFF" d="M92.268,124.423l13.896,30.7c-2.543,1.716-12.442,7.345-15.894,1.552l-11.816-26.104l-9.67,4.303
				l11.451,25.297c0,0,0.109,0.242,0.297,0.656l0.137,0.303l0.042-0.016c1.608,3.088,7.676,12.311,21.687,6.076
				c12.618-5.615,16.497-9.607,16.497-9.607l-16.958-37.462L92.268,124.423z"/>
			<polygon fill="#FFFFFF" points="180.677,85.079 148.214,99.526 151.934,107.744 163.676,102.519 177.316,132.652 
				186.986,128.348 173.346,98.215 184.397,93.297 			"/>
			<path fill="#FFFFFF" d="M208.297,72.969c-6.91,1.017-18.203,9.081-18.203,9.081l16.923,37.385l9.67-4.303l-5.27-11.642
				c2.072-0.922,5.744-2.556,8.262-3.677c3.308-1.472,9.141-9.469,5.584-17.328S215.206,71.952,208.297,72.969z M213.251,94.444
				c-0.602,0.268-4.936,2.197-4.936,2.197l-5.58-12.327l4.475-1.991c0,0,5.489-1.95,8.18,3.995
				C218.082,92.263,213.853,94.176,213.251,94.444z"/>
			<g>
				<path fill="#FFFFFF" d="M121.422,111.449l2.462,44.981l9.64-4.29l-1.776-32.998l11.799,11.576
					c0.272-0.288,5.861-6.275,6.68-7.224l0,0l-17.412-17.115L121.422,111.449z"/>
				<path fill="#FFFFFF" d="M151.818,125.087c-1.07,1.315-3.787,4.733-6.675,7.203l10.29,10.1l9.64-4.29L151.818,125.087z"/>
			</g>
		</g>
	</g>
</g>
</svg>
