<?xml version="1.0" encoding="utf-8"?>
<!-- Generator: Adobe Illustrator 17.1.0, SVG Export Plug-In . SVG Version: 6.00 Build 0)  -->
<!DOCTYPE svg PUBLIC "-//W3C//DTD SVG 1.1 Tiny//EN" "http://www.w3.org/Graphics/SVG/1.1/DTD/svg11-tiny.dtd">
<svg version="1.1" baseProfile="tiny" id="Layer_1" xmlns="http://www.w3.org/2000/svg" xmlns:xlink="http://www.w3.org/1999/xlink"
	 x="0px" y="0px" viewBox="0 0 60 40" xml:space="preserve">
<g>
	<path fill="#004E49" d="M0-0.004V40h10.267l3.626-21.093C15.919,7.127,27.111-0.78,38.891,1.245
		c11.78,2.025,19.688,13.217,17.663,24.997L54.187,40h5.819V-0.004H0z"/>
	<path fill="#BBF200" d="M49.887,31.983c-2.386-0.41-3.986-2.676-3.576-5.062l1.531,0.264c-0.265,1.54,0.769,3.002,2.308,3.267
		c0.483,0.083,0.953,0.027,1.386-0.121l-4.006-14.606L38.822,28.23c0.329,0.229,0.707,0.396,1.128,0.469
		c1.539,0.266,3.002-0.769,3.267-2.308l1.531,0.263c-0.41,2.386-2.676,3.986-5.062,3.576c-0.653-0.112-1.239-0.373-1.75-0.728
		L30.627,40h23.561l-2.242-8.175C51.299,32.03,50.602,32.106,49.887,31.983z M44.516,33.016c3.132,0.538,5.712,2.38,7.284,4.871
		l-15.778-2.713C38.336,33.351,41.384,32.478,44.516,33.016z"/>
	<path fill="#FF342B" d="M44.516,33.016c-3.132-0.538-6.18,0.335-8.494,2.158L51.8,37.887
		C50.228,35.396,47.648,33.554,44.516,33.016z"/>
	<path fill="#1D1D1B" d="M44.748,26.653l-1.531-0.263c-0.265,1.539-1.727,2.573-3.267,2.308c-0.421-0.072-0.799-0.24-1.128-0.469
		l-0.885,1.272c0.51,0.355,1.096,0.616,1.75,0.728C42.072,30.64,44.338,29.039,44.748,26.653z"/>
	<path fill="#1D1D1B" d="M50.149,30.452c-1.539-0.265-2.572-1.727-2.308-3.267l-1.531-0.264c-0.41,2.386,1.191,4.651,3.576,5.062
		c0.715,0.123,1.412,0.047,2.059-0.158l-0.41-1.494C51.102,30.479,50.632,30.535,50.149,30.452z"/>
	<path fill="#00BBFF" d="M38.891,1.245C27.111-0.78,15.919,7.127,13.894,18.907L10.267,40h20.359l7.31-10.499l0.885-1.272
		l8.707-12.504l4.006,14.606l0.41,1.494L54.187,40l2.366-13.758C58.579,14.462,50.671,3.271,38.891,1.245z"/>
</g>
</svg>
