<?xml version="1.0" encoding="utf-8"?>
<!-- Generator: Adobe Illustrator 17.1.0, SVG Export Plug-In . SVG Version: 6.00 Build 0)  -->
<!DOCTYPE svg PUBLIC "-//W3C//DTD SVG 1.1 Tiny//EN" "http://www.w3.org/Graphics/SVG/1.1/DTD/svg11-tiny.dtd">
<svg version="1.1" baseProfile="tiny" id="Layer_1" xmlns="http://www.w3.org/2000/svg" xmlns:xlink="http://www.w3.org/1999/xlink"
	 x="0px" y="0px" viewBox="0 0 130 130" xml:space="preserve">
<g>
	<path fill="#006900" d="M9.472,98.802V65C9.472,34.334,34.333,9.473,65,9.473S120.528,34.334,120.528,65v33.802
		C126.536,88.953,130,77.382,130,65c0-35.899-29.101-65-65-65C29.102,0,0,29.101,0,65C0,77.382,3.464,88.953,9.472,98.802z"/>
	<path fill="#00C800" d="M65,9.473C34.333,9.473,9.472,34.334,9.472,65v33.801C20.885,117.509,41.483,130,65,130
		c23.518,0,44.115-12.49,55.528-31.198V65C120.528,34.334,95.666,9.473,65,9.473z M66.228,100.59
		c-5.966-4-14.223-6.477-23.346-6.477s-17.381,2.477-23.347,6.477v-4.691c0.003-4.478,3.631-8.106,8.109-8.106h30.478
		c4.478,0,8.106,3.628,8.107,8.106L66.228,100.59z M72.968,71.942c0,6.69-5.425,12.113-12.113,12.113
		c-5.346,0-9.875-3.468-11.482-8.274H36.408c-1.609,4.806-6.137,8.274-11.483,8.274c-6.688,0-12.112-5.423-12.112-12.113V65.85
		c-0.002-0.053-0.016-0.103-0.016-0.156v-2.581l2.005-2.004l2.006,2.004l2.005-2.004l2.007,2.004l2.004-2.004l2.007,2.004
		l2.005-2.004l2.005,2.004l2.006-2.004l2.005,2.004l2.007-2.004l2.004,2.004l2.007-2.004l2.005,2.004l2.007-2.004l2.004,2.004
		l2.007-2.004l2.004,2.004l2.004-2.004l2.007,2.004l2.006-2.004l2.006,2.004l2.005-2.004l2.007,2.004l2.006-2.004l2.006,2.004
		l2.005-2.004l2.007,2.004l2.004-2.004l2.005,2.004v2.581c0,0,0,0,0,0h0.001V71.942z"/>
	<path fill="#FFFFFF" d="M58.122,87.793H27.644c-4.478,0-8.106,3.628-8.109,8.106v4.691c5.967-4,14.224-6.477,23.347-6.477
		s17.38,2.477,23.346,6.477l0.001-4.691C66.228,91.421,62.6,87.793,58.122,87.793z"/>
	<path fill="#39A500" d="M68.946,69.718H16.82c-2.17,0-3.924-1.72-4.008-3.868v6.092c0,6.69,5.423,12.113,12.112,12.113
		c5.346,0,9.875-3.468,11.483-8.274h12.965c1.607,4.806,6.136,8.274,11.482,8.274c6.688,0,12.113-5.423,12.113-12.113v-6.248h-0.001
		C72.967,67.916,71.166,69.718,68.946,69.718z M24.925,80.047c-4.477,0-8.105-3.629-8.105-8.106h16.211
		C33.031,76.418,29.402,80.047,24.925,80.047z M60.838,80.047c-4.474,0-8.106-3.629-8.106-8.106h16.213
		C68.946,76.418,65.315,80.047,60.838,80.047z"/>
	<path fill="#1D1D1B" d="M16.82,69.718h52.126c2.219,0,4.02-1.802,4.021-4.024c0,0,0,0,0,0v-2.581l-2.005-2.004l-2.004,2.004
		l-2.007-2.004l-2.005,2.004l-2.006-2.004l-2.006,2.004l-2.007-2.004l-2.005,2.004l-2.006-2.004l-2.006,2.004l-2.007-2.004
		l-2.004,2.004l-2.004-2.004l-2.007,2.004l-2.004-2.004l-2.007,2.004l-2.005-2.004l-2.007,2.004l-2.004-2.004l-2.007,2.004
		l-2.005-2.004l-2.006,2.004l-2.005-2.004l-2.005,2.004l-2.007-2.004l-2.004,2.004l-2.007-2.004l-2.005,2.004l-2.006-2.004
		l-2.005,2.004v2.581c0,0.054,0.014,0.103,0.016,0.156C12.897,67.998,14.65,69.718,16.82,69.718z"/>
	<path fill="#1D1D1B" d="M24.925,80.047c4.477,0,8.106-3.629,8.106-8.106H16.82C16.82,76.418,20.448,80.047,24.925,80.047z"/>
	<path fill="#1D1D1B" d="M60.838,80.047c4.477,0,8.107-3.629,8.107-8.106H52.732C52.732,76.418,56.364,80.047,60.838,80.047z"/>
</g>
</svg>
