<?xml version="1.0" encoding="utf-8"?>
<!-- Generator: Adobe Illustrator 17.0.0, SVG Export Plug-In . SVG Version: 6.00 Build 0)  -->
<!DOCTYPE svg PUBLIC "-//W3C//DTD SVG 1.1//EN" "http://www.w3.org/Graphics/SVG/1.1/DTD/svg11.dtd">
<svg version="1.1" id="Layer_1" xmlns="http://www.w3.org/2000/svg" xmlns:xlink="http://www.w3.org/1999/xlink" x="0px" y="0px"
	 width="17px" height="15px" viewBox="0 0 17 15" enable-background="new 0 0 17 15" xml:space="preserve">
<path fill="#00FF66" d="M16.659,2.507c0.455-0.45,0.455-1.179,0-1.627l-0.55-0.542c-0.455-0.45-1.193-0.45-1.648,0L7.088,10.912
	L2.539,6.421c-0.455-0.45-1.193-0.45-1.648,0l-0.55,0.543c-0.455,0.45-0.455,1.178,0,1.627l6.15,6.072
	c0.455,0.45,1.193,0.45,1.648,0l0.563-0.786c0.007-0.007,0.017-0.012,0.024-0.019l0.208-0.297c0.061-0.066,0.105-0.13,0.133-0.192
	L16.659,2.507z"/>
</svg>
