<?xml version="1.0" encoding="utf-8"?>
<!-- Generator: Adobe Illustrator 17.1.0, SVG Export Plug-In . SVG Version: 6.00 Build 0)  -->
<!DOCTYPE svg PUBLIC "-//W3C//DTD SVG 1.1 Tiny//EN" "http://www.w3.org/Graphics/SVG/1.1/DTD/svg11-tiny.dtd">
<svg version="1.1" baseProfile="tiny" id="Layer_1" xmlns="http://www.w3.org/2000/svg" xmlns:xlink="http://www.w3.org/1999/xlink"
	 x="0px" y="0px" viewBox="0 0 60 40" xml:space="preserve">
<g>
	<g>
		<rect x="0" fill="#744F87" width="60" height="40"/>
	</g>
	<g>
		<circle fill="#41354F" cx="50.832" cy="20.084" r="6.47"/>
		<path fill="#8868A0" d="M34.544,28.623c-0.756,2.769,0.877,5.626,3.647,6.381c2.769,0.756,5.626-0.878,6.382-3.646
			c0.755-2.77-0.878-5.627-3.648-6.382C38.156,24.22,35.299,25.853,34.544,28.623z M41.383,30.487
			c-0.275,1.006-1.314,1.602-2.322,1.327c-1.007-0.276-1.6-1.314-1.326-2.321s1.313-1.602,2.321-1.327
			C41.064,28.44,41.657,29.48,41.383,30.487z"/>
		<circle fill="#41354F" cx="39.558" cy="29.99" r="1.891"/>
		<circle fill="#41354F" cx="34.875" cy="15.733" r="6.471"/>
	</g>
</g>
</svg>
