<?xml version="1.0" encoding="utf-8"?>
<!-- Generator: Adobe Illustrator 17.1.0, SVG Export Plug-In . SVG Version: 6.00 Build 0)  -->
<!DOCTYPE svg PUBLIC "-//W3C//DTD SVG 1.1 Tiny//EN" "http://www.w3.org/Graphics/SVG/1.1/DTD/svg11-tiny.dtd">
<svg version="1.1" baseProfile="tiny" id="Layer_1" xmlns="http://www.w3.org/2000/svg" xmlns:xlink="http://www.w3.org/1999/xlink"
	 x="0px" y="0px" viewBox="0 0 60 40" xml:space="preserve">
<g>
	<path fill="#0089FF" d="M0-0.004V40h7.092v-8.617c0-8.764,5.212-16.305,12.703-19.709l-2.829-6.991l2.671-1.081
		C32.196-1.482,46.498,4.58,51.58,17.138c2.867,7.083,2.188,14.72-1.201,20.945V40h9.627V-0.004H0z"/>
	<path fill="#FF44B5" d="M19.637,3.601l-2.671,1.081l2.829,6.991c0.87-0.396,1.77-0.737,2.698-1.016L19.637,3.601z"/>
	<path fill="#AC0084" d="M28.736,9.74c11.953,0,21.643,9.69,21.643,21.643v6.701c3.389-6.225,4.068-13.862,1.201-20.945
		C46.498,4.58,32.196-1.482,19.637,3.601l2.856,7.057C24.47,10.063,26.565,9.74,28.736,9.74z"/>
	<path fill="#00DDFF" d="M50.379,31.383c0-11.953-9.689-21.643-21.643-21.643c-2.171,0-4.266,0.323-6.244,0.918
		c-0.927,0.279-1.827,0.62-2.698,1.016C12.304,15.078,7.092,22.619,7.092,31.383V40h43.287v-1.917V31.383z M27.486,14.526
		c1.709-0.368,3.393,0.719,3.762,2.427c0.369,1.71-0.719,3.393-2.428,3.762c-1.708,0.368-3.393-0.718-3.76-2.427
		C24.691,16.579,25.777,14.895,27.486,14.526z M18.322,16.502c1.709-0.368,3.392,0.718,3.762,2.427
		c0.369,1.709-0.719,3.393-2.428,3.761c-1.708,0.369-3.393-0.718-3.76-2.427C15.527,18.555,16.613,16.872,18.322,16.502z
		 M36.363,29.284l-17.644,3.805c-2.234,0.481-4.438-0.94-4.919-3.174l-0.872-4.046l4.046-0.873l8.822-1.902l0,0l8.093-1.745l0,0
		l0.73-0.157l4.046-0.872l0.872,4.046C40.019,26.599,38.599,28.801,36.363,29.284z"/>
	<path fill="#1D1D1B" d="M25.06,18.288l6.188-1.335c-0.369-1.708-2.053-2.795-3.762-2.427C25.777,14.895,24.691,16.579,25.06,18.288
		z"/>
	<path fill="#AC0084" d="M25.06,18.288c0.367,1.709,2.052,2.795,3.76,2.427c1.709-0.369,2.797-2.052,2.428-3.762L25.06,18.288z"/>
	<path fill="#FFFFFF" d="M38.665,20.318l-4.046,0.872l-0.73,0.157l0.873,4.046l-8.094,1.745l0.873,4.046l-4.046,0.873l-0.872-4.046
		l4.045-0.872l-0.872-4.046l-8.822,1.902l-4.046,0.873l0.872,4.046c0.482,2.234,2.685,3.655,4.919,3.174l17.644-3.805
		c2.235-0.482,3.656-2.685,3.174-4.919L38.665,20.318z"/>
	
		<rect x="23.012" y="27.529" transform="matrix(-0.9775 0.2108 -0.2108 -0.9775 55.8396 53.2442)" fill="#FF342B" width="4.139" height="4.139"/>
	<polygon fill="#FF342B" points="34.762,25.394 33.889,21.348 33.889,21.348 25.796,23.093 25.796,23.093 26.668,27.139 	"/>
	<circle fill="#1D1D1B" cx="18.989" cy="19.597" r="3.165"/>
</g>
</svg>
