<?xml version="1.0" encoding="utf-8"?>
<!-- Generator: Adobe Illustrator 17.1.0, SVG Export Plug-In . SVG Version: 6.00 Build 0)  -->
<!DOCTYPE svg PUBLIC "-//W3C//DTD SVG 1.1 Tiny//EN" "http://www.w3.org/Graphics/SVG/1.1/DTD/svg11-tiny.dtd">
<svg version="1.1" baseProfile="tiny" id="Layer_1" xmlns="http://www.w3.org/2000/svg" xmlns:xlink="http://www.w3.org/1999/xlink"
	 x="0px" y="0px" viewBox="0 0 130 130" xml:space="preserve">
<g>
	<path fill="#0089FF" d="M5.912,92.08l3.716-33.085c3.436-30.593,31.025-52.611,61.62-49.174
		c30.594,3.437,52.611,31.024,49.174,61.617l-3.697,32.912C125.049,93.427,130,79.794,130,65c0-35.9-29.101-65-65-65
		C29.103,0,0,29.1,0,65C0,74.668,2.127,83.834,5.912,92.08z"/>
	<path fill="#00DDFF" d="M71.249,9.821C40.654,6.385,13.064,28.402,9.629,58.995L5.912,92.08C16.184,114.454,38.77,130,65,130
		c21.104,0,39.851-10.065,51.725-25.649l3.697-32.912C123.859,40.845,101.843,13.258,71.249,9.821z M61.539,61.36l2.094-7.674l0,0
		c0,0,0,0,0,0c1.81-6.652,8.671-10.575,15.32-8.76c6.65,1.815,10.572,8.675,8.759,15.325c-0.001,0.003-0.002,0.005-0.002,0.007
		l-2.092,7.667c-1.813,6.649-8.673,10.571-15.325,8.757C63.643,74.869,59.724,68.008,61.539,61.36z M93.512,91.234
		c-1.457,5.341-6.967,8.492-12.309,7.034c-5.342-1.456-8.492-6.969-7.035-12.309c1.456-5.341,6.969-8.492,12.308-7.035
		C91.819,80.38,94.968,85.892,93.512,91.234z M118.492,68.642c-0.001,0.002-0.002,0.004-0.002,0.007l-2.092,7.668
		c-1.813,6.649-8.673,10.571-15.325,8.757c-6.649-1.813-10.568-8.673-8.753-15.322l2.094-7.674l0,0c0,0,0,0,0,0
		c1.811-6.652,8.671-10.575,15.32-8.76C116.384,55.132,120.305,61.992,118.492,68.642z"/>
	<path fill="#FF342B" d="M86.476,78.923c-5.339-1.457-10.852,1.694-12.308,7.035c-1.457,5.341,1.693,10.854,7.035,12.309
		c5.342,1.458,10.852-1.693,12.309-7.034C94.968,85.892,91.819,80.38,86.476,78.923z M87.359,89.555
		c-0.53,1.942-2.535,3.09-4.479,2.559c-1.942-0.531-3.086-2.535-2.557-4.477c0.528-1.945,2.532-3.09,4.478-2.559
		C86.744,85.606,87.889,87.611,87.359,89.555z"/>
	<path fill="#1D1D1B" d="M84.801,85.078c-1.946-0.531-3.95,0.615-4.478,2.559c-0.53,1.942,0.615,3.946,2.557,4.477
		c1.944,0.531,3.95-0.617,4.479-2.559C87.889,87.611,86.744,85.606,84.801,85.078z"/>
	<path fill="#00C6FF" d="M103.167,77.4c-6.65-1.813-10.568-8.673-8.753-15.322l0,0l-2.094,7.674
		c-1.815,6.649,2.104,13.509,8.753,15.322c6.652,1.813,13.512-2.108,15.325-8.757l2.092-7.668
		C116.672,75.295,109.816,79.214,103.167,77.4z"/>
	<path fill="#1D1D1B" d="M109.733,53.317c-6.649-1.815-13.509,2.108-15.32,8.76c0,0,0,0,0,0c-1.814,6.649,2.103,13.509,8.753,15.322
		c6.649,1.814,13.505-2.105,15.323-8.751c0-0.002,0.001-0.004,0.002-0.007C120.305,61.992,116.384,55.132,109.733,53.317z
		 M107.865,71.396c0.714-0.487,1.362-1.073,1.926-1.743l2.594,3.335v0c-1.099,0.853-2.365,1.473-3.728,1.793L107.865,71.396z
		 M116.115,65.394c-0.003,0.83-0.101,1.672-0.33,2.511c-0.407,1.494-1.151,2.8-2.115,3.882l-3.281-2.924
		c0.582-0.859,1.045-1.821,1.334-2.88c0.057-0.209,0.079-0.416,0.121-0.624h4.271V65.394z"/>
	<path fill="#00C6FF" d="M85.617,67.925l2.092-7.667c-1.818,6.646-8.674,10.564-15.323,8.75c-6.65-1.813-10.568-8.673-8.753-15.322
		l0,0l-2.094,7.674c-1.815,6.649,2.104,13.509,8.753,15.322C76.944,78.495,83.804,74.573,85.617,67.925z"/>
	<path fill="#1D1D1B" d="M72.386,69.008c6.649,1.814,13.505-2.104,15.323-8.75c0.001-0.003,0.002-0.005,0.002-0.007
		c1.813-6.65-2.109-13.51-8.759-15.325c-6.649-1.815-13.509,2.108-15.32,8.76c0,0,0,0,0,0
		C61.818,60.334,65.736,67.194,72.386,69.008z M85.004,59.512c-0.408,1.494-1.151,2.8-2.115,3.882l-3.281-2.924
		c0.582-0.859,1.045-1.821,1.334-2.88c0.057-0.209,0.079-0.416,0.12-0.624h4.274C85.336,57.807,85.236,58.662,85.004,59.512z
		 M77.085,63.004v-0.001c0.714-0.487,1.362-1.072,1.926-1.743l2.594,3.335v0.001c-1.1,0.853-2.366,1.473-3.728,1.793L77.085,63.004z
		"/>
	<path fill="#FFFFFF" d="M81.604,64.595L79.01,61.26c-0.563,0.67-1.212,1.255-1.926,1.743v0.001l0.792,3.384
		C79.239,66.069,80.505,65.449,81.604,64.595L81.604,64.595z"/>
	<path fill="#FFFFFF" d="M81.062,56.966c-0.042,0.208-0.063,0.416-0.12,0.624c-0.288,1.059-0.752,2.022-1.334,2.88l3.281,2.924
		c0.964-1.082,1.708-2.389,2.115-3.882c0.232-0.85,0.332-1.705,0.332-2.546H81.062z"/>
	<path fill="#FFFFFF" d="M112.385,72.988l-2.594-3.335c-0.563,0.67-1.212,1.255-1.926,1.743l0.792,3.385
		C110.02,74.461,111.286,73.841,112.385,72.988L112.385,72.988z"/>
	<path fill="#FFFFFF" d="M111.843,65.359c-0.042,0.209-0.063,0.416-0.121,0.624c-0.288,1.059-0.751,2.022-1.334,2.88l3.281,2.924
		c0.964-1.082,1.708-2.389,2.115-3.882c0.229-0.839,0.327-1.681,0.33-2.511v-0.035H111.843z"/>
</g>
</svg>
