<?xml version="1.0" encoding="utf-8"?>
<!-- Generator: Adobe Illustrator 17.1.0, SVG Export Plug-In . SVG Version: 6.00 Build 0)  -->
<!DOCTYPE svg PUBLIC "-//W3C//DTD SVG 1.1 Tiny//EN" "http://www.w3.org/Graphics/SVG/1.1/DTD/svg11-tiny.dtd">
<svg version="1.1" baseProfile="tiny" id="Layer_1" xmlns="http://www.w3.org/2000/svg" xmlns:xlink="http://www.w3.org/1999/xlink"
	 x="0px" y="0px" viewBox="0 0 130 130" xml:space="preserve">
<g>
	<path fill="#00C800" d="M94.093,6.876l6.534,22.281c9.21,9.154,14.915,21.831,14.915,35.842v40.857
		C124.578,94.691,130,80.48,130,64.998C130,39.561,115.38,17.552,94.093,6.876z"/>
	<path fill="#00C800" d="M65.001,14.461c6.526,0,12.757,1.251,18.484,3.503l10.59-11.097C85.325,2.482,75.455,0,65.001,0
		c-8.388,0-16.397,1.606-23.758,4.499L52.29,16.075C56.352,15.022,60.611,14.461,65.001,14.461z"/>
	<path fill="#00C800" d="M35.522,23.96l5.702-19.453C17.09,13.999,0,37.494,0,64.998c0,15.481,5.421,29.691,14.457,40.855V64.999
		C14.457,48.092,22.77,33.134,35.522,23.96z"/>
	<path fill="#00C800" d="M81.112,127.984c0.007-0.002,0.013-0.003,0.02-0.005l-0.02-0.004V127.984z"/>
	<path fill="#1D1D1B" d="M100.626,29.157L94.093,6.876c-0.006-0.003-0.012-0.006-0.018-0.009l-10.59,11.097
		c-5.727-2.253-11.958-3.503-18.484-3.503c-4.391,0-8.65,0.562-12.711,1.614L41.243,4.499c-0.006,0.003-0.013,0.005-0.019,0.007
		L35.522,23.96C22.77,33.134,14.457,48.092,14.457,64.999v40.854c1.462,1.806,3.011,3.539,4.656,5.178V77.818
		c0-10.098,4.831-19.066,12.307-24.725c1.348,0.556,2.78,0.963,4.296,1.157c5.53,0.708,10.765-1.355,14.349-5.093
		c2.525,4.521,7.074,7.836,12.609,8.544c3.403,0.437,6.698-0.179,9.566-1.584c5.486,5.592,8.873,13.25,8.873,21.702v11.21
		L67.573,77.506c-5.026-4.28-12.57-3.672-16.849,1.354c-4.277,5.027-3.671,12.57,1.355,16.85l29.032,24.708v7.558l0.02,0.004
		c13.753-3.513,25.743-11.417,34.409-22.124V64.999C115.541,50.988,109.836,38.312,100.626,29.157z M43.84,35.289
		c-2.451-0.316-4.184-2.555-3.87-5.007c0.316-2.452,2.555-4.185,5.006-3.871c2.456,0.314,4.187,2.556,3.874,5.007
		C48.537,33.87,46.292,35.602,43.84,35.289z M50.883,45.878l-3.132-7.48l8.046,1.03L50.883,45.878z M68.829,33.977
		c-0.311,2.452-2.557,4.187-5.006,3.871c-2.452-0.313-4.188-2.556-3.871-5.01c0.311-2.451,2.556-4.185,5.006-3.87
		C67.412,29.284,69.142,31.527,68.829,33.977z"/>
	<path fill="#EDEDED" d="M64.957,28.969c-2.45-0.316-4.695,1.419-5.006,3.87c-0.317,2.454,1.419,4.697,3.871,5.01
		c2.449,0.316,4.695-1.419,5.006-3.871C69.142,31.527,67.412,29.284,64.957,28.969z"/>
	<path fill="#EDEDED" d="M81.112,120.417L52.08,95.709c-5.026-4.279-5.633-11.822-1.355-16.85
		c4.279-5.026,11.823-5.634,16.849-1.354l13.539,11.523v-11.21c0-8.452-3.387-16.11-8.873-21.702
		c-2.869,1.405-6.163,2.021-9.566,1.584c-5.534-0.708-10.083-4.022-12.609-8.544c-3.584,3.737-8.818,5.8-14.349,5.093
		c-1.516-0.194-2.948-0.601-4.296-1.157c-7.476,5.66-12.307,14.627-12.307,24.725v33.214C30.87,122.752,47.088,130,65.001,130
		c5.561,0,10.958-0.702,16.111-2.016v-0.009V120.417z"/>
	<circle fill="#EDEDED" cx="44.41" cy="30.849" r="4.476"/>
	<polygon fill="#FFA3FF" points="50.883,45.878 55.797,39.429 47.752,38.399 	"/>
</g>
</svg>
