<?xml version="1.0" encoding="utf-8"?>
<!-- Generator: Adobe Illustrator 17.1.0, SVG Export Plug-In . SVG Version: 6.00 Build 0)  -->
<!DOCTYPE svg PUBLIC "-//W3C//DTD SVG 1.1 Tiny//EN" "http://www.w3.org/Graphics/SVG/1.1/DTD/svg11-tiny.dtd">
<svg version="1.1" baseProfile="tiny" id="Layer_1" xmlns="http://www.w3.org/2000/svg" xmlns:xlink="http://www.w3.org/1999/xlink"
	 x="0px" y="0px" viewBox="0 0 60 40" xml:space="preserve">
<g>
	<rect x="0" y="0" fill="#744F87" width="60" height="40"/>
	<g>
		<circle fill="#4A2F5D" cx="10.965" cy="12" r="3.747"/>
		<circle fill="#4A2F5D" cx="24.563" cy="11.503" r="3.747"/>
		<path fill="#4A2F5D" d="M19.719,4.33l1.169,1.73c3-2.025,7.091-1.233,9.116,1.768l1.732-1.168
			C29.066,2.705,23.675,1.659,19.719,4.33z"/>
		<path fill="#4A2F5D" d="M8.702,3.647C6.469,4.251,4.606,5.689,3.457,7.694l1.812,1.039c0.872-1.521,2.286-2.612,3.979-3.07
			c1.691-0.46,3.462-0.231,4.983,0.641l1.04-1.811C13.266,3.343,10.932,3.043,8.702,3.647z"/>
		<path fill="#9869B6" d="M7.893,24.959c0.208,5.693,4.991,10.139,10.685,9.931c5.692-0.208,10.139-4.992,9.931-10.685
			c-0.041-1.131-0.268-2.209-0.642-3.215L8.299,21.705C7.999,22.736,7.851,23.828,7.893,24.959z"/>
		<path fill="#9869B6" d="M9.355,19.294c0.138-0.231,0.287-0.453,0.442-0.672C9.642,18.841,9.494,19.063,9.355,19.294z"/>
		<path fill="#9869B6" d="M8.353,21.542c0.093-0.301,0.198-0.598,0.317-0.887C8.55,20.945,8.446,21.241,8.353,21.542z"/>
		<path fill="#9869B6" d="M25.14,16.952c0.279,0.254,0.541,0.526,0.79,0.809C25.68,17.479,25.419,17.206,25.14,16.952l-8.748,0.32
			L25.14,16.952z"/>
		<path fill="#9869B6" d="M10.722,17.48c-0.259,0.273-0.499,0.563-0.727,0.862C10.222,18.043,10.463,17.753,10.722,17.48
			L10.722,17.48z"/>
		<path fill="#9869B6" d="M8.808,20.345c0.112-0.247,0.232-0.489,0.362-0.725C9.04,19.856,8.92,20.098,8.808,20.345z"/>
		<path fill="#9869B6" d="M26.84,18.966c0.151,0.233,0.294,0.472,0.427,0.718C27.133,19.439,26.992,19.199,26.84,18.966z"/>
		<path fill="#9869B6" d="M26.14,18.016c0.174,0.21,0.342,0.425,0.499,0.649C26.481,18.442,26.314,18.227,26.14,18.016z"/>
		<path fill="#9869B6" d="M27.414,19.959c0.154,0.307,0.294,0.622,0.417,0.945C27.707,20.58,27.568,20.265,27.414,19.959z"/>
		<path fill="#E7DDEE" d="M16.392,17.273l-5.67,0.208c0,0,0,0,0,0c-0.259,0.273-0.5,0.563-0.727,0.862
			c-0.069,0.091-0.131,0.186-0.197,0.279c-0.155,0.219-0.304,0.441-0.442,0.672C9.291,19.401,9.231,19.51,9.17,19.62
			c-0.13,0.236-0.251,0.478-0.362,0.725c-0.047,0.103-0.095,0.205-0.138,0.31c-0.119,0.289-0.224,0.586-0.317,0.887
			c-0.017,0.055-0.042,0.107-0.058,0.163l0.004,0l19.568-0.715l0.002,0c-0.011-0.03-0.027-0.057-0.038-0.087
			c-0.124-0.323-0.263-0.638-0.417-0.945c-0.047-0.093-0.098-0.183-0.147-0.274c-0.133-0.246-0.275-0.485-0.427-0.718
			c-0.066-0.101-0.132-0.202-0.201-0.301c-0.157-0.224-0.325-0.439-0.499-0.649c-0.07-0.085-0.136-0.172-0.209-0.255
			c-0.25-0.283-0.511-0.555-0.79-0.809L16.392,17.273z"/>
	</g>
</g>
</svg>
