<?xml version="1.0" encoding="utf-8"?>
<!-- Generator: Adobe Illustrator 17.1.0, SVG Export Plug-In . SVG Version: 6.00 Build 0)  -->
<!DOCTYPE svg PUBLIC "-//W3C//DTD SVG 1.1 Tiny//EN" "http://www.w3.org/Graphics/SVG/1.1/DTD/svg11-tiny.dtd">
<svg version="1.1" baseProfile="tiny" id="Layer_1" xmlns="http://www.w3.org/2000/svg" xmlns:xlink="http://www.w3.org/1999/xlink"
	 x="0px" y="0px" viewBox="0 0 60 40" xml:space="preserve">
<g>
	<rect x="0" y="0" fill="#0089FF" width="60" height="40"/>
</g>
<g>
	<path fill="#00DDFF" d="M38.872,1.813C27.045-0.071,15.928,7.991,14.044,19.82L10.828,40h43.922l2.128-13.357
		C58.762,14.815,50.7,3.698,38.872,1.813z M32.586,18.47c0.76-2.786,3.633-4.429,6.42-3.669c2.785,0.76,4.427,3.633,3.667,6.419
		c-0.759,2.787-3.633,4.43-6.419,3.67C33.469,24.129,31.826,21.256,32.586,18.47z M45.466,32.471
		c-0.611,2.237-2.919,3.557-5.157,2.946c-2.238-0.61-3.557-2.919-2.947-5.156c0.61-2.238,2.919-3.558,5.156-2.947
		C44.757,27.925,46.076,30.233,45.466,32.471z M55.567,24.736c-0.759,2.786-3.633,4.429-6.419,3.669
		c-2.787-0.759-4.428-3.634-3.669-6.419c0.761-2.787,3.632-4.429,6.42-3.668C54.684,19.077,56.328,21.951,55.567,24.736z"/>
	<circle fill="#1D1D1B" cx="50.524" cy="23.361" r="5.228"/>
	<path fill="#FF342B" d="M42.518,27.314c-2.237-0.611-4.546,0.709-5.156,2.947c-0.61,2.237,0.709,4.546,2.947,5.156
		c2.238,0.611,4.546-0.709,5.157-2.946C46.076,30.233,44.757,27.925,42.518,27.314z M42.888,31.767
		c-0.222,0.814-1.062,1.295-1.877,1.072c-0.813-0.222-1.293-1.062-1.071-1.875c0.222-0.814,1.062-1.294,1.876-1.072
		C42.63,30.113,43.11,30.953,42.888,31.767z"/>
	<circle fill="#1D1D1B" cx="41.414" cy="31.366" r="1.528"/>
	<circle fill="#1D1D1B" cx="37.629" cy="19.845" r="5.228"/>
</g>
</svg>
