<?xml version="1.0" encoding="utf-8"?>
<!-- Generator: Adobe Illustrator 17.1.0, SVG Export Plug-In . SVG Version: 6.00 Build 0)  -->
<!DOCTYPE svg PUBLIC "-//W3C//DTD SVG 1.1 Tiny//EN" "http://www.w3.org/Graphics/SVG/1.1/DTD/svg11-tiny.dtd">
<svg version="1.1" baseProfile="tiny" id="Layer_1" xmlns="http://www.w3.org/2000/svg" xmlns:xlink="http://www.w3.org/1999/xlink"
	 x="0px" y="0px" viewBox="0 0 130 130" xml:space="preserve">
<g>
	<path fill="#006900" d="M9.969,60.698c0.775-9.862,4.104-18.907,9.27-26.56l-1.716-1.81l-0.012-0.012l0.009-0.008
		c-1.392-0.394-2.747-1.005-4.011-1.859c-0.852-0.576-1.613-1.234-2.295-1.949C4.139,38.905,0,51.469,0,65.001
		c0,10.78,2.64,20.938,7.285,29.889l2.257-28.746L9.969,60.698z"/>
	<path fill="#006900" d="M34.918,15.812l0.007,0.005l1.719,1.812c9.523-5.726,20.849-8.658,32.771-7.721
		c11.922,0.936,22.652,5.6,31.164,12.742l1.98-1.522l0.008-0.005l0.007,0.009c0.894-2.246,2.367-4.26,4.334-5.803
		c-1.314-1.11-2.675-2.164-4.075-3.169c-1.342-0.963-2.711-1.89-4.127-2.75c-1.351-0.821-2.744-1.578-4.157-2.3
		c-1.957-1.001-3.969-1.905-6.034-2.707c-1.655-0.643-3.342-1.222-5.06-1.73C77.603,0.944,71.414,0,65.001,0
		C52.726,0,41.247,3.406,31.453,9.32c1.749,1.848,2.915,4.103,3.456,6.5L34.918,15.812z"/>
	<path fill="#006900" d="M129.251,55.102c-0.493-3.228-1.224-6.377-2.173-9.43c-0.316-1.018-0.657-2.025-1.022-3.02
		c-0.649-1.772-1.384-3.501-2.179-5.196c-0.75,0.561-1.568,1.055-2.45,1.467c-1.381,0.647-2.815,1.038-4.251,1.21l0.006,0.008
		l-0.013,0.012l-1.977,1.52c3.908,8.365,5.785,17.818,5.01,27.68l-0.427,5.447c0,0,0,0,0,0l-0.168,2.138l-0.16,2.039c0,0,0,0,0,0
		l-1.906,24.276c1.688-2.315,3.238-4.737,4.614-7.269c3.502-6.447,5.945-13.553,7.096-21.084c0.493-3.228,0.749-6.533,0.749-9.899
		C130,61.635,129.744,58.329,129.251,55.102z"/>
	<path fill="#00C800" d="M115.274,78.824c-8.457-0.664-16.305-3.23-23.173-7.234c-0.027,0.198-0.049,0.397-0.089,0.596l-4.087-0.821
		c0.175-0.869,0.128-1.729-0.091-2.529c-1.738-1.244-3.396-2.589-4.97-4.021c-2.685-0.156-5.145,1.677-5.691,4.39l-4.087-0.824
		c0.688-3.425,3.117-6.05,6.177-7.163c-5.613-6.149-9.826-13.562-12.172-21.715c-2.785,5.963-6.613,11.308-11.223,15.835
		c3.993,1.818,6.362,6.193,5.46,10.679l-4.087-0.821c0.597-2.971-1.326-5.859-4.295-6.458c-0.252-0.051-0.503-0.076-0.753-0.092
		c-1.78,1.458-3.656,2.798-5.61,4.023c-0.033,0.121-0.068,0.242-0.093,0.367l-0.377-0.076c-9.48,5.814-20.814,8.799-32.751,7.862
		c-1.402-0.108-2.779-0.288-4.147-0.5l0.329-4.178c0,0,0,0-0.001,0L7.285,94.889v0C18.107,115.744,39.883,130,65.001,130
		c12.34,0,23.876-3.439,33.704-9.41c0.893-0.543,1.773-1.107,2.637-1.691c2.594-1.752,5.054-3.686,7.362-5.785
		c0.77-0.699,1.522-1.417,2.257-2.152c1.47-1.47,2.871-3.011,4.195-4.616c0.828-1.004,1.616-2.041,2.384-3.094l1.906-24.276
		C118.064,78.972,116.674,78.934,115.274,78.824z M89.146,87.361c-5.427,10.027-16.933,15.796-28.695,13.433
		C48.694,98.43,40.308,88.661,39.178,77.315c0-0.005,0.004-0.01,0.004-0.015c-0.255-2.571-0.142-5.224,0.393-7.891l52.258,10.507
		c-0.533,2.668-1.457,5.156-2.685,7.432C89.147,87.352,89.148,87.357,89.146,87.361z"/>
	<polygon fill="#00C800" points="119.608,76.937 119.776,74.799 119.776,74.799 	"/>
	<path fill="#FFB500" d="M102.573,21.132l0.017,0.024c6.092,5.215,11.057,11.664,14.544,18.922l0.043,0.054
		c1.436-0.172,2.87-0.563,4.251-1.21c0.882-0.413,1.699-0.907,2.45-1.467c-0.545-1.163-1.112-2.313-1.722-3.437
		c-2.001-3.684-4.348-7.153-6.998-10.363c-1.325-1.605-2.725-3.146-4.195-4.616c-0.735-0.735-1.488-1.453-2.257-2.152
		c-0.587-0.533-1.192-1.046-1.798-1.557C104.94,16.872,103.467,18.886,102.573,21.132z"/>
	<path fill="#FF44B5" d="M102.59,21.156l-0.017-0.024l-0.007-0.009l-0.008,0.005l-1.98,1.522
		c6.181,5.186,11.184,11.68,14.615,19.022l1.977-1.52l0.013-0.012l-0.006-0.008l-0.043-0.054
		C113.647,32.82,108.682,26.371,102.59,21.156z"/>
	<path fill="#FFB500" d="M13.509,30.449c1.264,0.855,2.619,1.465,4.011,1.859l0.05-0.046c4.578-6.626,10.488-12.221,17.317-16.422
		l0.023-0.02c-0.541-2.396-1.707-4.652-3.456-6.5l0,0c-8.052,4.862-14.962,11.419-20.239,19.18c0,0,0,0,0,0
		C11.895,29.215,12.657,29.873,13.509,30.449z"/>
	<path fill="#FF44B5" d="M36.643,17.63l-1.719-1.812l-0.007-0.005l-0.009,0.008l-0.023,0.02
		c-6.828,4.201-12.739,9.796-17.317,16.422l-0.05,0.046l-0.009,0.008l0.012,0.012l1.716,1.81
		C23.774,27.421,29.729,21.787,36.643,17.63z"/>
	<path fill="#00B000" d="M42.797,60.828c-8.684,4.451-18.665,6.636-29.109,5.816c-1.401-0.11-2.779-0.289-4.146-0.501l-0.329,4.178
		c1.367,0.211,2.745,0.391,4.147,0.5c11.937,0.938,23.271-2.048,32.751-7.862l-3.712-0.748
		C42.495,61.733,42.636,61.275,42.797,60.828z"/>
	<path fill="#00B000" d="M83.63,64.907c-0.257-0.051-0.512-0.078-0.767-0.092c1.574,1.432,3.232,2.777,4.97,4.021
		C87.302,66.901,85.729,65.329,83.63,64.907z"/>
	<path fill="#00B000" d="M46.581,62.668c1.953-1.225,3.829-2.565,5.61-4.023C49.626,58.49,47.268,60.154,46.581,62.668z"/>
	<path fill="#00B000" d="M115.602,74.646c-8.803-0.691-16.951-3.437-24.015-7.727c0.542,1.451,0.738,3.046,0.514,4.672
		c6.868,4.004,14.716,6.57,23.173,7.234c1.4,0.11,2.79,0.148,4.174,0.152c0,0,0,0,0,0l0.16-2.039l0.168-2.138
		C118.393,74.795,117.003,74.755,115.602,74.646z"/>
	<path fill="#00B000" d="M83.219,60.662c-7.438-6.757-12.973-15.511-15.801-25.338c-3.501,7.497-8.642,14.026-14.927,19.166
		c0.423,0.028,0.847,0.074,1.274,0.159c0.741,0.149,1.44,0.388,2.1,0.688c4.61-4.527,8.439-9.872,11.223-15.835
		c2.347,8.153,6.559,15.565,12.172,21.715C80.502,60.766,81.843,60.564,83.219,60.662z"/>
	<path fill="#FF342B" d="M39.183,77.317c-0.001-0.005,0-0.011-0.001-0.016c0,0.005-0.004,0.01-0.004,0.015
		c1.129,11.345,9.515,21.115,21.273,23.479c11.762,2.363,23.269-3.406,28.695-13.433c0.002-0.004,0-0.009,0.002-0.012
		c-0.002,0.004-0.004,0.008-0.006,0.012L39.183,77.317z"/>
	<path fill="#FFFFFF" d="M39.575,69.409c-0.536,2.667-0.648,5.32-0.393,7.891c0.001,0.005,0,0.011,0.001,0.016l49.959,10.044
		c0.002-0.004,0.004-0.008,0.006-0.012c1.228-2.276,2.152-4.765,2.685-7.432L39.575,69.409z"/>
	<path fill="#1D1D1B" d="M52.492,54.49c-2.989,2.444-6.24,4.568-9.694,6.338c-0.161,0.446-0.302,0.904-0.398,1.384l3.712,0.748
		l0.377,0.076c0.025-0.125,0.06-0.246,0.093-0.367c0.687-2.514,3.044-4.178,5.61-4.023c0.25,0.015,0.5,0.041,0.753,0.092
		c2.969,0.599,4.892,3.487,4.295,6.458l4.087,0.821c0.902-4.486-1.468-8.861-5.46-10.679c-0.66-0.3-1.359-0.539-2.1-0.688
		C53.339,54.564,52.914,54.518,52.492,54.49z"/>
	<path fill="#1D1D1B" d="M91.587,66.919c-2.996-1.82-5.795-3.919-8.368-6.257c-1.376-0.098-2.717,0.104-3.958,0.555
		c-3.06,1.113-5.489,3.738-6.177,7.163l4.087,0.824c0.546-2.713,3.006-4.545,5.691-4.39c0.254,0.015,0.51,0.041,0.767,0.092
		c2.099,0.422,3.672,1.994,4.204,3.929c0.22,0.8,0.266,1.66,0.091,2.529l4.087,0.821c0.04-0.199,0.062-0.397,0.089-0.596
		C92.324,69.964,92.128,68.37,91.587,66.919z"/>
	<path fill="#FFB500" d="M100.578,22.65c-8.512-7.142-19.242-11.806-31.164-12.742c-11.922-0.936-23.248,1.995-32.771,7.721
		c-6.914,4.158-12.87,9.791-17.404,16.508c-5.167,7.653-8.496,16.698-9.27,26.56l-0.427,5.445c0,0,0,0,0.001,0
		c1.367,0.212,2.745,0.391,4.146,0.501c10.444,0.82,20.425-1.365,29.109-5.816c3.454-1.77,6.705-3.894,9.694-6.338
		c6.285-5.14,11.426-11.669,14.927-19.166c2.828,9.826,8.363,18.581,15.801,25.338c2.573,2.337,5.371,4.437,8.368,6.257
		c7.064,4.29,15.212,7.036,24.015,7.727c1.401,0.11,2.791,0.149,4.174,0.153c0,0,0,0,0,0s0,0,0,0l0.427-5.447
		c0.774-9.862-1.102-19.315-5.01-27.68C111.762,34.329,106.759,27.836,100.578,22.65z"/>
</g>
</svg>
