<?xml version="1.0" encoding="utf-8"?>
<!-- Generator: Adobe Illustrator 17.1.0, SVG Export Plug-In . SVG Version: 6.00 Build 0)  -->
<!DOCTYPE svg PUBLIC "-//W3C//DTD SVG 1.1 Tiny//EN" "http://www.w3.org/Graphics/SVG/1.1/DTD/svg11-tiny.dtd">
<svg version="1.1" baseProfile="tiny" id="Layer_1" xmlns="http://www.w3.org/2000/svg" xmlns:xlink="http://www.w3.org/1999/xlink"
	 x="0px" y="0px" viewBox="0 0 130 130" xml:space="preserve">
<g>
	<path fill="#EF4CB0" d="M0,65c0,12.435,3.496,24.051,9.553,33.927V65c0-7.577,1.524-14.797,4.276-21.376l-0.005,0.001v-0.003
		l-0.001,0.001l-1.951-1.366l1.369-1.953l-1.951-1.369l1.369-1.952l-1.951-1.369l1.369-1.952c1.618,0.978,3.581,1.407,5.59,1.054
		l1.007-0.177C28.589,19.491,45.63,9.551,65,9.551c30.625,0,55.449,24.826,55.449,55.449v4.699v2.346v26.879
		C126.504,89.049,130,77.434,130,65c0-19.071-8.213-36.224-21.295-48.115c-1.539-1.399-3.146-2.725-4.814-3.973
		C98.885,9.17,93.323,6.131,87.349,3.944c-0.995-0.365-2.002-0.705-3.02-1.022c-4.071-1.266-8.313-2.143-12.683-2.587
		C69.461,0.114,67.243,0,65,0c-3.365,0-6.671,0.256-9.899,0.749c-1.278,0.195-2.539,0.439-3.791,0.708
		c-1.911,0.41-3.795,0.892-5.64,1.466c-5.088,1.583-9.909,3.774-14.376,6.488C12.533,20.81,0,41.441,0,65z"/>
	<path fill="#FF90D4" d="M120.449,72.046l-1.012,0.178l-5.088-28.994l1.412-0.248l4.687,26.718V65
		c0-30.623-24.825-55.449-55.449-55.449c-19.37,0-36.411,9.94-46.326,24.99l2.168-0.381l6.986-1.226
		c4.41-0.774,8.614,2.175,9.387,6.586c-0.773-4.411,2.175-8.615,6.586-9.388l6.986-1.224l3.175-0.558
		c2.009-0.353,3.709-1.421,4.898-2.892l1.952,1.367l-1.369,1.952l1.951,1.369l-1.368,1.953l1.952,1.367l-1.369,1.95h-0.001v0.001
		l-6.883,1.207c2.045,1.151,3.576,3.176,4.013,5.667c0.774,4.411-2.175,8.612-6.585,9.388c-4.412,0.772-8.615-2.177-9.388-6.586
		c-0.438-2.492,0.314-4.917,1.844-6.695l-6.395,1.122l-6.988,1.226c2.045,1.151,3.577,3.175,4.014,5.667
		c0.774,4.41-2.175,8.613-6.586,9.388c-4.411,0.774-8.615-2.175-9.388-6.586c-0.437-2.492,0.314-4.916,1.844-6.694l-6.283,1.102
		C11.077,50.203,9.553,57.423,9.553,65v33.927c5.964,9.726,14.411,17.766,24.464,23.227c4.605,2.502,9.546,4.463,14.738,5.799
		c2.077,0.534,4.194,0.969,6.346,1.297C58.329,129.744,61.634,130,65,130c2.244,0,4.461-0.114,6.646-0.336
		c4.37-0.444,8.613-1.321,12.683-2.587c1.018-0.317,2.025-0.657,3.02-1.022c13.855-5.073,25.496-14.73,33.1-27.131l0,0V72.046z
		 M71.179,80.688l-1.665,2.373l-2.372-1.666l-1.665,2.372l-2.373-1.663l-1.664,2.372l-2.373-1.665l-1.665,2.372L55.03,83.52
		l-1.664,2.372l-2.373-1.666L49.328,86.6l-2.372-1.665l-1.665,2.374l-2.373-1.666l-1.664,2.373l-2.373-1.665l-1.665,2.372
		l-2.373-1.665l-1.664,2.372l-2.373-1.663l-1.665,2.371l-2.374-1.662l-1.664,2.371l-2.372-1.663l-1.665,2.371l-2.373-1.665
		l-2.543-14.494c-1.404-8.007,3.947-15.635,11.952-17.038l23.498-4.123c8.005-1.404,15.633,3.947,17.037,11.951l2.544,14.496
		l-0.009,0.002L71.179,80.688z M118.025,72.471l-1.41,0.247l-5.087-28.994l1.411-0.248L118.025,72.471z M91.029,51.294l4.411,25.14
		l-1.411,0.248L90.276,55.29C90.214,53.884,90.48,52.521,91.029,51.294z M92.16,49.44c0.365-0.466,0.777-0.896,1.23-1.283
		l4.875,27.782l-1.412,0.248L92.16,49.44z M94.685,47.242c0.425-0.247,0.872-0.463,1.342-0.639l5.059,28.841l-1.411,0.248
		L94.685,47.242z M97.413,46.211c0.064-0.013,0.125-0.032,0.189-0.043l1.221-0.214l5.086,28.994l-1.411,0.248L97.413,46.211z
		 M100.236,45.706l1.411-0.248l5.086,28.994l-1.412,0.248L100.236,45.706z M103.058,45.211l1.412-0.248l5.088,28.994l-1.412,0.248
		L103.058,45.211z M105.881,44.715l1.412-0.248l5.086,28.994l-1.411,0.248L105.881,44.715z M108.704,44.22l1.412-0.248l5.088,28.994
		l-1.412,0.248L108.704,44.22z"/>
	<polygon fill="#FF90D4" points="46.953,84.933 46.956,84.935 46.958,84.932 	"/>
	<polygon fill="#FF90D4" points="42.916,85.641 42.918,85.643 42.92,85.641 	"/>
	<polygon fill="#FF90D4" points="22.73,89.182 22.732,89.184 22.734,89.181 	"/>
	<polygon fill="#FF90D4" points="50.991,84.225 50.993,84.227 50.995,84.224 	"/>
	<polygon fill="#FF90D4" points="26.765,88.474 26.768,88.476 26.77,88.473 	"/>
	<polygon fill="#FF90D4" points="60.025,32.099 60.026,32.099 60.025,32.097 	"/>
	<polygon fill="#FF90D4" points="34.842,87.058 34.844,87.059 34.845,87.057 	"/>
	<polygon fill="#FF90D4" points="67.138,81.392 67.142,81.395 67.145,81.391 	"/>
	<polygon fill="#FF90D4" points="30.804,87.766 30.807,87.768 30.809,87.765 	"/>
	<polygon fill="#FF90D4" points="59.442,28.779 59.443,28.777 59.442,28.777 	"/>
	<polygon fill="#FF90D4" points="59.063,82.809 59.067,82.812 59.07,82.808 	"/>
	<polygon fill="#FF90D4" points="55.025,83.517 55.03,83.52 55.033,83.516 	"/>
	<polygon fill="#FF90D4" points="38.878,86.349 38.881,86.351 38.883,86.349 	"/>
	<polygon fill="#FF90D4" points="63.099,82.101 63.104,82.104 63.108,82.099 	"/>
	<path fill="#1D1D1B" d="M18.267,49.216c0.773,4.411,4.977,7.36,9.388,6.586c4.411-0.775,7.359-4.979,6.586-9.388
		c-0.437-2.492-1.969-4.516-4.014-5.667l-10.116,1.775C18.581,44.3,17.83,46.724,18.267,49.216z"/>
	<path fill="#1D1D1B" d="M41.766,45.094c0.773,4.41,4.976,7.359,9.388,6.586c4.411-0.776,7.359-4.977,6.585-9.388
		c-0.437-2.492-1.969-4.516-4.013-5.667L43.61,38.399C42.08,40.178,41.328,42.603,41.766,45.094z"/>
	<path fill="#007866" d="M68.639,66.186c-1.404-8.004-9.032-13.355-17.037-11.951l-23.498,4.123
		c-8.005,1.403-13.356,9.031-11.952,17.038l2.543,14.494l1.664-2.371l2.371,1.663l0.004-0.001l1.662-2.371l2.37,1.664l0.005-0.001
		l1.662-2.37l2.371,1.663l0.005-0.001l1.662-2.371l2.371,1.663l0.003-0.001l1.663-2.37l2.371,1.663l0.005-0.001l1.661-2.369
		l2.371,1.662l0.004-0.001l1.662-2.37l2.37,1.663l0.005-0.001l1.661-2.369l2.371,1.662l0.004-0.001l1.662-2.37l2.369,1.663
		l0.008-0.001l1.66-2.368l2.37,1.661l0.007-0.001l1.661-2.368l2.368,1.661l0.008-0.001l1.661-2.369l2.369,1.662l0.007-0.001
		l1.661-2.368l2.368,1.661l0.009-0.002L68.639,66.186z"/>
	<polygon fill="#007866" points="20.359,87.519 18.695,89.89 21.067,91.555 22.732,89.184 22.73,89.182 	"/>
	<polygon fill="#007866" points="24.396,86.81 22.734,89.181 22.732,89.184 25.104,90.847 26.768,88.476 26.765,88.474 	"/>
	<polygon fill="#007866" points="28.433,86.103 26.77,88.473 26.768,88.476 29.142,90.139 30.807,87.768 30.804,87.766 	"/>
	<polygon fill="#007866" points="32.47,85.394 30.809,87.765 30.807,87.768 33.179,89.431 34.844,87.059 34.842,87.058 	"/>
	<polygon fill="#007866" points="36.508,84.687 34.845,87.057 34.844,87.059 37.217,88.724 38.881,86.351 38.878,86.349 	"/>
	<polygon fill="#007866" points="40.545,83.979 38.883,86.349 38.881,86.351 41.254,88.016 42.918,85.643 42.916,85.641 	"/>
	<polygon fill="#007866" points="44.582,83.27 42.92,85.641 42.918,85.643 45.291,87.309 46.956,84.935 46.953,84.933 	"/>
	<polygon fill="#007866" points="48.619,82.563 46.958,84.932 46.956,84.935 49.328,86.6 50.993,84.227 50.991,84.225 	"/>
	<polygon fill="#007866" points="52.656,81.854 50.995,84.224 50.993,84.227 53.366,85.893 55.03,83.52 55.025,83.517 	"/>
	<polygon fill="#007866" points="56.693,81.148 55.033,83.516 55.03,83.52 57.403,85.184 59.067,82.812 59.063,82.809 	"/>
	<polygon fill="#007866" points="60.732,80.439 59.07,82.808 59.067,82.812 61.44,84.476 63.104,82.104 63.099,82.101 	"/>
	<polygon fill="#007866" points="64.769,79.731 63.108,82.099 63.104,82.104 65.477,83.768 67.142,81.395 67.138,81.392 	"/>
	<polygon fill="#007866" points="67.145,81.391 67.142,81.395 69.514,83.062 71.179,80.688 71.174,80.684 68.805,79.023 	"/>
	<path fill="#007866" d="M95.44,76.434l-4.411-25.14c-0.549,1.227-0.815,2.59-0.753,3.996l3.753,21.391L95.44,76.434z"/>
	<path fill="#007866" d="M93.39,48.157c-0.454,0.387-0.865,0.816-1.23,1.283l4.693,26.747l1.412-0.248L93.39,48.157z"/>
	<path fill="#007866" d="M96.027,46.603c-0.471,0.176-0.917,0.392-1.342,0.639l4.991,28.449l1.411-0.248L96.027,46.603z"/>
	<path fill="#007866" d="M98.824,45.954l-1.221,0.214c-0.064,0.011-0.125,0.031-0.189,0.043l5.086,28.984l1.411-0.248L98.824,45.954
		z"/>
	
		<rect x="102.767" y="45.361" transform="matrix(0.985 -0.1728 0.1728 0.985 -8.8266 18.79)" fill="#007866" width="1.432" height="29.437"/>
	
		<rect x="105.591" y="44.865" transform="matrix(0.9849 -0.1729 0.1729 0.9849 -8.6998 19.2746)" fill="#007866" width="1.433" height="29.437"/>
	
		<rect x="108.414" y="44.37" transform="matrix(0.9849 -0.1729 0.1729 0.9849 -8.5711 19.7535)" fill="#007866" width="1.434" height="29.437"/>
	
		<rect x="111.237" y="43.874" transform="matrix(0.9849 -0.1728 0.1728 0.9849 -8.4424 20.2322)" fill="#007866" width="1.434" height="29.437"/>
	
		<rect x="114.061" y="43.379" transform="matrix(-0.985 0.1728 -0.1728 -0.985 237.8675 95.4829)" fill="#007866" width="1.432" height="29.437"/>
	<polygon fill="#007866" points="114.35,43.229 119.437,72.223 120.449,72.046 120.449,69.699 115.762,42.981 	"/>
	<path fill="#007866" d="M53.725,36.625l6.883-1.207v-0.001h0.001l1.369-1.95l-1.952-1.367h-0.001l-0.001-0.001l0.001,0.001
		l1.368-1.953l-1.951-1.369l-0.001,0.001v-0.001h0.001l1.369-1.952l-1.952-1.367c-1.189,1.47-2.889,2.539-4.898,2.892l-3.175,0.558
		l-6.986,1.224c-4.411,0.774-7.36,4.977-6.586,9.388l6.395-1.122L53.725,36.625z"/>
	<path fill="#007866" d="M30.227,40.747l6.988-1.226c-0.773-4.411-4.977-7.36-9.387-6.586l-6.986,1.226l-2.168,0.381l-1.007,0.177
		c-2.009,0.353-3.971-0.075-5.59-1.054l-1.369,1.952l1.951,1.369l-1.369,1.952l1.951,1.369l-1.369,1.953l1.951,1.366l0.001-0.001
		v0.003l0.005-0.001l6.283-1.102L30.227,40.747z"/>
</g>
</svg>
