<?xml version="1.0" encoding="utf-8"?>
<!-- Generator: Adobe Illustrator 17.1.0, SVG Export Plug-In . SVG Version: 6.00 Build 0)  -->
<!DOCTYPE svg PUBLIC "-//W3C//DTD SVG 1.1 Tiny//EN" "http://www.w3.org/Graphics/SVG/1.1/DTD/svg11-tiny.dtd">
<svg version="1.1" baseProfile="tiny" id="Layer_1" xmlns="http://www.w3.org/2000/svg" xmlns:xlink="http://www.w3.org/1999/xlink"
	 x="0px" y="0px" viewBox="0 0 130 130" xml:space="preserve">
<g>
	<path fill="#F47400" d="M56.575,10.185C86.898,5.479,115.294,26.248,120,56.568l5.139,33.109c3.126-7.61,4.862-15.939,4.862-24.676
		C130,29.101,100.899,0,65,0c-35.898,0-65,29.101-65,65.001c0,15.992,5.786,30.625,15.365,41.948L10.191,73.61
		C5.486,43.289,26.251,14.89,56.575,10.185z"/>
	<path fill="#FFB500" d="M65,130c27.161,0,50.42-16.664,60.138-40.322v0L120,56.568c-4.705-30.321-33.102-51.089-63.425-46.384
		S5.486,43.289,10.191,73.61l5.174,33.339l0,0.001C27.289,121.043,45.095,130,65,130z M57.57,28.165l2.226,0.738l0.12-0.055
		l1.227-2.195l2.041,1.14l0.138-0.032l1.614-1.917l1.794,1.51l0.131-0.005l1.955-1.583l1.48,1.829l0.127,0.022l-0.004-0.008
		l2.221-1.185l1.105,2.07l0.122,0.042l2.405-0.742l0.689,2.234l0.123,0.072l2.493-0.272l0.255,2.324l0.106,0.093l2.501,0.203
		l-0.19,2.341l-3.163,3.355c-2.13-3.152-5.356-5.286-9.091-6.011c-3.733-0.724-7.527,0.05-10.679,2.179l-2.535-3.752L57.57,28.165z
		 M75.404,45.815c0.164,4.486-3.339,8.254-7.822,8.418c-4.486,0.164-8.254-3.338-8.418-7.824c-0.164-4.485,3.339-8.253,7.822-8.417
		C71.472,37.829,75.24,41.329,75.404,45.815z M68.536,57.93c0.011,0.01,0.022,0.022,0.034,0.033c0.29,0.265,0.571,0.538,0.847,0.818
		c0.085,0.086,0.166,0.175,0.25,0.262c0.206,0.215,0.408,0.434,0.605,0.657c0.082,0.093,0.162,0.187,0.243,0.281
		c0.204,0.239,0.402,0.482,0.596,0.73c0.059,0.076,0.119,0.15,0.177,0.226c0.783,1.027,1.479,2.124,2.077,3.281
		c0.003,0.007,0.007,0.013,0.01,0.02c0.198,0.385,0.385,0.776,0.562,1.174c0.007,0.016,0.014,0.031,0.021,0.047
		c1.111,2.518,1.779,5.281,1.885,8.199c0.451,12.345-9.192,22.718-21.537,23.17c-12.344,0.452-22.719-9.191-23.17-21.536
		c-0.09-2.451,0.224-4.821,0.872-7.054l-0.001,0c0.007-0.025,0.017-0.05,0.024-0.075c0.112-0.379,0.233-0.754,0.365-1.125
		c0.02-0.058,0.041-0.116,0.062-0.174c0.131-0.363,0.272-0.721,0.421-1.075c0.018-0.043,0.036-0.087,0.054-0.13
		c0.345-0.802,0.733-1.582,1.167-2.333c0.01-0.018,0.022-0.036,0.032-0.054c0.195-0.335,0.398-0.665,0.61-0.989
		c0.058-0.089,0.118-0.177,0.177-0.265c0.171-0.254,0.346-0.504,0.527-0.75c0.075-0.103,0.15-0.205,0.227-0.306
		c0.179-0.236,0.364-0.467,0.552-0.696c0.077-0.093,0.152-0.188,0.23-0.28c0.262-0.308,0.53-0.61,0.809-0.904
		c0.003-0.003,0.005-0.006,0.008-0.009L68.536,57.93z M29.677,47.489c-0.164-4.484,3.338-8.253,7.822-8.417
		c4.486-0.164,8.254,3.336,8.418,7.822c0.164,4.486-3.339,8.254-7.822,8.418C33.609,55.473,29.841,51.975,29.677,47.489z
		 M24.165,34.285l0.096-0.1l0.085-2.338l2.505,0.091l0.118-0.08l0.525-2.28l2.454,0.566l0.117-0.053l0.949-2.145l2.303,1.021
		l-0.004,0.005l0.123-0.028l1.343-1.934l2.066,1.435l0.131-0.004l1.678-1.634l1.751,1.793l0.142,0.02l1.951-1.285l1.382,2.1
		l0.125,0.045l2.167-0.894l0.961,2.325l-2.253,3.929c-3.3-1.893-7.14-2.388-10.811-1.391c-3.669,0.994-6.735,3.358-8.626,6.656
		l-3.397-3.116l-0.363-2.319L24.165,34.285z"/>
	<circle fill="#1D1D1B" cx="37.797" cy="47.192" r="8.126"/>
	<circle fill="#1D1D1B" cx="67.284" cy="46.112" r="8.126"/>
	<path fill="#FF342B" d="M35.673,60.962c0.179-0.236,0.364-0.467,0.552-0.696C36.037,60.494,35.852,60.726,35.673,60.962z"/>
	<path fill="#FF342B" d="M69.667,59.043c0.206,0.215,0.408,0.434,0.605,0.657C70.074,59.476,69.872,59.258,69.667,59.043z"/>
	<path fill="#FF342B" d="M68.57,57.962c0.29,0.265,0.572,0.538,0.847,0.818C69.141,58.501,68.86,58.227,68.57,57.962z"/>
	<path fill="#FF342B" d="M70.514,59.981c0.203,0.239,0.402,0.482,0.596,0.73C70.916,60.463,70.718,60.22,70.514,59.981z"/>
	<path fill="#FF342B" d="M32.933,65.659c0.345-0.802,0.734-1.581,1.167-2.333C33.666,64.077,33.278,64.857,32.933,65.659z"/>
	<path fill="#FF342B" d="M36.455,59.986c0.262-0.308,0.53-0.61,0.809-0.904C36.985,59.375,36.717,59.678,36.455,59.986z"/>
	<path fill="#FF342B" d="M32.03,68.163c0.112-0.379,0.233-0.754,0.365-1.125C32.264,67.409,32.142,67.784,32.03,68.163z"/>
	<path fill="#FF342B" d="M71.287,60.937c0.782,1.027,1.479,2.124,2.077,3.281C72.765,63.061,72.07,61.964,71.287,60.937z"/>
	<path fill="#FF342B" d="M73.374,64.237c0.198,0.385,0.385,0.776,0.562,1.174C73.759,65.014,73.573,64.622,73.374,64.237z"/>
	<path fill="#FF342B" d="M34.919,62.019c0.17-0.254,0.346-0.504,0.527-0.75C35.265,61.515,35.089,61.765,34.919,62.019z"/>
	<path fill="#FF342B" d="M34.132,63.272c0.194-0.335,0.399-0.664,0.61-0.989C34.53,62.608,34.326,62.937,34.132,63.272z"/>
	<path fill="#FF342B" d="M32.457,66.864c0.131-0.363,0.272-0.721,0.421-1.075C32.729,66.143,32.589,66.502,32.457,66.864z"/>
	<path fill="#FF342B" d="M32.008,68.238c-0.648,2.232-0.962,4.603-0.872,7.054c0.451,12.345,10.825,21.988,23.17,21.536
		c12.345-0.452,21.988-10.825,21.537-23.17c-0.107-2.918-0.774-5.681-1.885-8.199c0.178,0.403,0.345,0.812,0.499,1.228
		L32.008,68.238z M55.906,67.525l0.312,10.208c0.054,1.682,1.458,3.003,3.141,2.953c1.683-0.053,3.004-1.46,2.952-3.139
		l-0.313-10.211c4.44,1.177,7.773,5.149,7.922,9.975c0.179,5.885-4.445,10.801-10.327,10.981
		c-5.885,0.181-10.801-4.441-10.982-10.327C48.463,73.142,51.547,68.969,55.906,67.525z"/>
	<path fill="#F5F5F0" d="M37.263,59.082c-0.278,0.293-0.547,0.596-0.809,0.904c-0.078,0.092-0.153,0.187-0.23,0.28
		c-0.188,0.229-0.373,0.46-0.552,0.696c-0.077,0.101-0.152,0.204-0.227,0.306c-0.181,0.246-0.356,0.497-0.527,0.75
		c-0.059,0.088-0.119,0.176-0.177,0.265c-0.211,0.324-0.415,0.653-0.61,0.989c-0.01,0.018-0.022,0.036-0.032,0.054
		c-0.433,0.752-0.822,1.531-1.167,2.333c-0.019,0.043-0.036,0.087-0.054,0.13c-0.149,0.354-0.29,0.712-0.421,1.075
		c-0.021,0.058-0.042,0.116-0.062,0.174c-0.131,0.371-0.253,0.746-0.365,1.125c-0.007,0.025-0.017,0.05-0.024,0.075l0.001,0
		l42.448-1.552c-0.154-0.415-0.321-0.825-0.499-1.228c-0.007-0.016-0.014-0.031-0.021-0.047c-0.177-0.398-0.364-0.789-0.562-1.174
		c-0.003-0.007-0.007-0.013-0.01-0.02c-0.598-1.157-1.295-2.253-2.077-3.281c-0.058-0.076-0.118-0.151-0.177-0.226
		c-0.194-0.248-0.392-0.491-0.596-0.73c-0.08-0.094-0.161-0.188-0.243-0.281c-0.197-0.224-0.399-0.442-0.605-0.657
		c-0.083-0.087-0.165-0.176-0.25-0.262c-0.276-0.28-0.557-0.553-0.847-0.818c-0.011-0.011-0.022-0.022-0.034-0.033l-31.264,1.143
		C37.269,59.076,37.266,59.079,37.263,59.082z"/>
	<path fill="#1D1D1B" d="M59.593,88.293c5.882-0.18,10.506-5.097,10.327-10.981c-0.149-4.826-3.483-8.798-7.922-9.975l0.313,10.211
		c0.053,1.679-1.269,3.086-2.952,3.139c-1.683,0.05-3.087-1.271-3.141-2.953l-0.312-10.208c-4.359,1.443-7.443,5.616-7.295,10.441
		C48.792,83.852,53.708,88.475,59.593,88.293z"/>
	<path fill="#1D1D1B" d="M25.445,40.106c1.892-3.298,4.957-5.663,8.626-6.656c3.671-0.998,7.511-0.502,10.811,1.391l2.253-3.929
		l-0.961-2.325l-2.167,0.894l-0.125-0.045l-1.382-2.1l-1.951,1.285l-0.142-0.02l-1.751-1.793l-1.678,1.634l-0.131,0.004
		l-2.066-1.435l-1.343,1.934l-0.123,0.028l0.004-0.005l-2.303-1.021l-0.949,2.145l-0.117,0.053l-2.454-0.566l-0.525,2.28
		l-0.118,0.08l-2.505-0.091l-0.085,2.338l-0.096,0.1l-2.48,0.386l0.363,2.319L25.445,40.106z"/>
	<path fill="#1D1D1B" d="M69.995,32.133c3.734,0.724,6.961,2.858,9.091,6.011l3.163-3.355l0.19-2.341l-2.501-0.203l-0.106-0.093
		l-0.255-2.324l-2.493,0.272l-0.123-0.072l-0.689-2.234l-2.405,0.742l-0.122-0.042l-1.105-2.07l-2.221,1.185l0.004,0.008
		l-0.127-0.022l-1.48-1.829l-1.955,1.583l-0.131,0.005l-1.794-1.51l-1.614,1.917l-0.138,0.032l-2.041-1.14l-1.227,2.195l-0.12,0.055
		l-2.226-0.738l-0.789,2.394l2.535,3.752C62.468,32.183,66.262,31.408,69.995,32.133z"/>
</g>
</svg>
