<?xml version="1.0" encoding="utf-8"?>
<!-- Generator: Adobe Illustrator 17.0.2, SVG Export Plug-In . SVG Version: 6.00 Build 0)  -->
<!DOCTYPE svg PUBLIC "-//W3C//DTD SVG 1.1 Tiny//EN" "http://www.w3.org/Graphics/SVG/1.1/DTD/svg11-tiny.dtd">
<svg version="1.1" baseProfile="tiny" id="Layer_1" xmlns="http://www.w3.org/2000/svg" xmlns:xlink="http://www.w3.org/1999/xlink"
	 x="0px" y="0px" width="300px" height="245px" viewBox="0 0 300 245" xml:space="preserve">
<g>
	<g>
		<path d="M5.433,101.355c-3.781,1.696-5.47,6.133-3.774,9.912l58.059,129.303c1.697,3.778,6.137,5.467,9.918,3.771l224.539-100.696
			c3.781-1.696,5.47-6.133,3.774-9.911L239.89,4.431c-1.697-3.778-6.137-5.467-9.918-3.771L5.433,101.355L5.433,101.355z"/>
	</g>
	<g>
		<g>
			<path fill="#FFFFFF" d="M6.971,104.779L6.971,104.779L231.51,4.083c1.886-0.846,4.108-0.001,4.954,1.884l58.059,129.304
				c0.41,0.913,0.439,1.93,0.083,2.865c-0.356,0.935-1.055,1.676-1.969,2.085L68.099,240.917c-1.886,0.846-4.108,0.001-4.954-1.884
				L5.086,109.729c-0.41-0.913-0.439-1.93-0.083-2.865C5.358,105.929,6.057,105.189,6.971,104.779"/>
		</g>
	</g>
	<g>
		<g>
			<path d="M64.141,161.997c0,0,12.803-4.094,7.962-14.874l-0.077-0.171c-4.84-10.779-16.411-3.94-16.411-3.94L64.141,161.997z
				 M47.836,140.31l9.493-4.258c5.701-2.558,16.386-1.134,20.518,8.066l0.048,0.109l0.05,0.108
				c4.132,9.201-1.906,18.126-7.608,20.684l-9.493,4.258L47.836,140.31z"/>
		</g>
		<g>
			
				<rect x="80.121" y="125.928" transform="matrix(-0.9124 0.4093 -0.4093 -0.9124 217.352 237.1438)" fill-rule="evenodd" width="6.355" height="31.805"/>
		</g>
		<g>
			<path fill-rule="evenodd" d="M100.466,124.74c0,0-2.898-1.34-5.461-0.19s-3.28,3.516-2.722,4.758
				c0.558,1.242,0.824,1.962,5.172,1.848c4.348-0.115,10.223-1.43,13.124,5.03s-0.692,12.01-5.244,14.052
				c-7.18,3.221-12.884-0.834-12.884-0.834l1.992-5.233c0,0,4.022,2.822,8.019,1.029c3.996-1.793,2.853-4.931,2.403-5.934
				c-0.665-1.481-2.182-2.558-5.057-2.358c-2.875,0.199-10.032,2.32-12.954-4.188c-2.622-5.84,0.444-10.694,5.343-12.891
				c4.378-1.964,9.72-0.25,9.72-0.25L100.466,124.74z"/>
		</g>
		<g>
			<path fill-rule="evenodd" d="M129.241,113.277c-2.625-1.046-5.702-1.285-8.485-0.037c-5.451,2.445-7.887,8.845-5.44,14.293
				c2.447,5.449,8.849,7.883,14.301,5.438c2.759-1.238,4.662-3.693,5.634-6.32l3.067,6.838c-1.616,2.048-3.732,3.737-6.278,4.878
				c-8.433,3.783-18.337,0.017-22.122-8.412c-3.785-8.429-0.017-18.328,8.416-22.111c2.552-1.145,5.215-1.588,7.826-1.431
				L129.241,113.277z"/>
		</g>
		<g>
			<polygon points="157.305,91.203 163.55,88.401 180.075,103.826 179.071,81.438 185.316,78.637 186.47,113.865 182.873,115.479 
							"/>
		</g>
		<g>
			<path d="M215.141,71.069l3.802,8.467l3.117-1.398c2.401-1.077,2.946-3.92,2.098-5.809l-0.163-0.364
				c-0.848-1.889-3.335-3.371-5.736-2.294L215.141,71.069z M207.31,68.771l9.462-4.245c3.022-1.355,9.769-2.408,12.87,4.497
				c3.1,6.904-2.473,11.123-2.473,11.123l14.31,8.156l-7.047,3.161l-13.03-8.065l-0.6,0.269l5.199,11.578l-5.662,2.54L207.31,68.771
				z"/>
		</g>
		<g>
			<polygon points="208.233,82.098 210.53,87.214 200.669,91.637 203.968,98.982 214.286,94.354 216.583,99.47 200.507,106.681 
				187.478,77.667 203.554,70.455 205.852,75.571 195.534,80.2 198.372,86.521 			"/>
		</g>
		<g>
			<path fill-rule="evenodd" d="M114.069,154.365l9.093,3.25c0.35,0.124,0.614,0.228,0.792,0.311
				c0.178,0.083,0.464,0.222,0.856,0.417l-3.113-6.933l1.483-0.665l4.662,10.382l-9.279-3.306c-0.506-0.176-0.995-0.405-1.469-0.685
				l3.12,6.947l-1.482,0.665L114.069,154.365z"/>
		</g>
		<g>
			<polygon fill-rule="evenodd" points="128.218,148.485 133.798,145.981 134.419,147.365 130.461,149.14 131.585,151.643 
				135.543,149.867 136.183,151.293 132.225,153.068 133.675,156.297 137.633,154.522 138.286,155.975 132.706,158.479 			"/>
		</g>
		<g>
			<polygon fill-rule="evenodd" points="145.649,152.732 144.026,153.46 140.111,144.741 137.912,145.728 137.29,144.344 
				143.298,141.649 143.919,143.033 141.734,144.014 			"/>
		</g>
		<g>
			<path fill-rule="evenodd" d="M148.4,139.429l4.156,4.197c0.224,0.224,0.434,0.444,0.63,0.658c0.197,0.214,0.4,0.442,0.609,0.684
				c-0.051-0.413-0.098-0.821-0.138-1.222l-0.07-0.696l-0.381-6.233l4.548,4.48c0.426,0.432,0.839,0.883,1.238,1.353
				c-0.042-0.194-0.082-0.467-0.119-0.82c-0.037-0.353-0.068-0.669-0.094-0.949l-0.401-5.929l1.627-0.728l0.788,12.119l-4.839-4.676
				c-0.431-0.411-0.803-0.804-1.117-1.178c0.089,0.598,0.144,1.145,0.165,1.639l0.309,6.675l-8.522-8.651L148.4,139.429z"/>
		</g>
		<g>
			<path fill-rule="evenodd" d="M175.747,137.657c-0.593,1.499-1.621,2.577-3.085,3.234c-0.727,0.326-1.471,0.503-2.232,0.53
				c-0.761,0.027-1.51-0.094-2.247-0.363c-0.737-0.269-1.377-0.66-1.921-1.173c-0.544-0.513-0.977-1.129-1.3-1.847
				c-0.658-1.465-0.695-2.939-0.112-4.422c0.583-1.484,1.615-2.558,3.098-3.223c1.473-0.661,2.961-0.715,4.464-0.161
				c1.503,0.553,2.582,1.558,3.235,3.013C176.302,134.7,176.335,136.171,175.747,137.657z M171.684,131.826
				c-1.026-0.415-2.048-0.394-3.064,0.062c-1.016,0.456-1.669,1.074-1.957,1.854c-0.288,0.78-0.419,1.436-0.393,1.969
				c0.026,0.532,0.154,1.055,0.385,1.568c0.465,1.036,1.216,1.76,2.251,2.17c1.036,0.41,2.062,0.388,3.078-0.068
				c1.007-0.452,1.702-1.204,2.087-2.257c0.384-1.053,0.346-2.093-0.116-3.12C173.49,132.968,172.733,132.242,171.684,131.826z"/>
		</g>
		<g>
			<path fill-rule="evenodd" d="M183.206,135.824l-1.524,0.684l-4.488-9.994l2.266-1.016c0.606-0.272,1.117-0.456,1.533-0.553
				c0.416-0.097,0.825-0.096,1.228,0.003c0.403,0.099,0.772,0.297,1.107,0.595c0.335,0.298,0.61,0.684,0.823,1.159
				c0.724,1.612,0.363,2.854-1.082,3.727l5.48,3l-1.829,0.815l-5.34-2.975l-0.182,0.083L183.206,135.824z M181.024,129.918
				c0.792-0.355,1.31-0.688,1.551-0.998c0.242-0.31,0.233-0.754-0.027-1.332c-0.264-0.587-0.605-0.91-1.023-0.968
				c-0.418-0.059-1.014,0.086-1.788,0.433l-0.294,0.132l1.287,2.865L181.024,129.918z"/>
		</g>
		<g>
			<polygon fill-rule="evenodd" points="187.511,121.886 189.134,121.158 190.994,125.301 192.729,119.546 194.714,118.655 
				192.752,124.875 199.677,128.436 197.574,129.387 191.334,126.059 193.622,131.152 191.999,131.88 			"/>
		</g>
		<g>
			<path fill-rule="evenodd" d="M229.976,63.324l-1.089-2.425l0.826-0.37c0.208-0.093,0.368-0.139,0.482-0.138
				c0.114,0.001,0.224,0.045,0.33,0.131c0.107,0.086,0.192,0.201,0.256,0.344c0.082,0.182,0.107,0.351,0.075,0.508
				c-0.032,0.157-0.126,0.289-0.282,0.396c0.112,0.024,0.212,0.061,0.3,0.11c0.088,0.049,0.221,0.147,0.399,0.294l0.449,0.367
				l-0.469,0.21l-0.519-0.403c-0.186-0.143-0.308-0.231-0.367-0.263c-0.059-0.033-0.114-0.048-0.163-0.048
				c-0.05,0-0.12,0.021-0.21,0.061l-0.08,0.036l0.455,1.013L229.976,63.324z M229.741,61.748l0.29-0.13
				c0.188-0.084,0.301-0.147,0.339-0.188c0.038-0.041,0.059-0.092,0.064-0.152c0.005-0.06-0.009-0.127-0.042-0.2
				c-0.037-0.082-0.084-0.14-0.141-0.175c-0.057-0.035-0.121-0.044-0.19-0.029c-0.034,0.009-0.131,0.049-0.29,0.12l-0.306,0.137
				L229.741,61.748z"/>
		</g>
		<g>
			<path d="M230.174,64.355c-0.975,0-1.861-0.574-2.261-1.462c-0.271-0.604-0.291-1.276-0.056-1.895
				c0.235-0.618,0.697-1.107,1.301-1.378c0.322-0.145,0.663-0.218,1.013-0.218c0.975,0,1.861,0.574,2.261,1.462
				c0.271,0.604,0.291,1.276,0.056,1.894s-0.697,1.107-1.301,1.378C230.864,64.282,230.523,64.355,230.174,64.355z M230.171,60.022
				c-0.262,0-0.518,0.055-0.759,0.163c-0.453,0.204-0.8,0.571-0.976,1.034c-0.177,0.463-0.162,0.968,0.041,1.42
				c0.407,0.906,1.541,1.346,2.455,0.934c0.453-0.203,0.8-0.57,0.976-1.034c0.177-0.463,0.162-0.968-0.041-1.42
				C231.567,60.453,230.902,60.022,230.171,60.022z"/>
		</g>
		<g>
			<path fill-rule="evenodd" fill="#FF6600" d="M164.9,105.397c3.732,8.31,0.017,18.07-8.298,21.8
				c-8.314,3.73-18.079,0.017-21.811-8.293c-3.732-8.31-0.017-18.07,8.297-21.8C151.404,93.374,161.169,97.087,164.9,105.397z"/>
		</g>
	</g>
	<path fill="#FF6600" d="M294.175,143.645c3.612-1.62,5.308-5.741,3.973-9.401l-23.27-51.82c0,0-16.284,28.243-48.568,59.981
		c-30.881,32.257-83.565,68.427-86.643,70.53L294.175,143.645z"/>
</g>
</svg>
