<?xml version="1.0" encoding="utf-8"?>
<!-- Generator: Adobe Illustrator 17.0.2, SVG Export Plug-In . SVG Version: 6.00 Build 0)  -->
<!DOCTYPE svg PUBLIC "-//W3C//DTD SVG 1.1 Tiny//EN" "http://www.w3.org/Graphics/SVG/1.1/DTD/svg11-tiny.dtd">
<svg version="1.1" baseProfile="tiny" id="Layer_1" xmlns="http://www.w3.org/2000/svg" xmlns:xlink="http://www.w3.org/1999/xlink"
	 x="0px" y="0px" width="300px" height="245px" viewBox="0 0 300 245" xml:space="preserve">
<g>
	<path fill-rule="evenodd" fill="#293D77" d="M4.469,101.355L230.812,0.659c3.811-1.695,8.287-0.007,9.997,3.771l58.525,129.303
		c1.71,3.778,0.007,8.216-3.804,9.911L69.188,244.341c-3.811,1.695-8.287,0.007-9.997-3.771L0.665,111.266
		C-1.045,107.488,0.658,103.05,4.469,101.355z"/>
	<g>
		<g>
			<polygon fill="#FFFFFF" points="137.053,156.653 123.816,105.905 136.776,100.138 150.007,150.888 			"/>
			<path fill="#FFFFFF" d="M176.195,83.989c-3,0.188-7.487,0.953-12.511,3.189c-12.805,5.699-18.932,16.107-14.86,25.304
				c2.994,6.806,11.216,7.687,17.153,7.754c6.09,0.066,8.453,0.785,9.363,2.859c1.398,3.174-1.944,6.396-5.669,8.054
				c-5.187,2.308-8.266,2.82-13.319,2.954l-2.009-0.006l2.958,11.363c3.623-0.031,9.736-1.382,15.574-3.909
				c13.622-6.062,19.605-16.318,15.276-26.149c-2.379-5.385-7.679-7.929-16.678-7.967c-5.517-0.165-8.95-0.386-9.92-2.607
				c-0.887-1.96,0.513-5.1,5.586-7.358c4.209-1.951,7.693-2.401,10.517-2.51l1.408,0.027L176.195,83.989"/>
			<path fill="#FFFFFF" d="M208.922,68.085l-10.014,4.456c-3.102,1.381-5.044,3.253-5.017,6.93l0.31,51.768l13.608-6.056
				c0,0-0.404-6.799-0.478-8.299c1.487-0.662,14.716-6.524,16.606-7.366c1.135,1.478,4.774,6.362,4.774,6.362l12.025-5.351
				L208.922,68.085 M206.696,105.582c-0.158-3.193-0.802-15.476-0.802-15.476c-0.02,0.159-0.172-3.203-0.318-5.264l2.716,3.675
				c0,0,7.575,10.149,9.162,12.278L206.696,105.582z"/>
			<path fill="#FFFFFF" d="M104.86,114.382l1.864,37.794l-4.309-5.931c-5.771-6.48-16.823-11.365-26.9-11.788l30.264,36.066
				l13.704-6.118l-0.896-56.131L104.86,114.382"/>
			<path fill="#F9A51A" d="M80.389,125.237l-20.897,9.3l0.278,1.054c18.024-3.333,33.051,1.31,42.645,10.653l-14.35-19.642
				C85.929,123.967,83.251,124.089,80.389,125.237"/>
		</g>
	</g>
</g>
</svg>
