<?xml version="1.0" encoding="utf-8"?>
<!-- Generator: Adobe Illustrator 17.0.0, SVG Export Plug-In . SVG Version: 6.00 Build 0)  -->
<!DOCTYPE svg PUBLIC "-//W3C//DTD SVG 1.1//EN" "http://www.w3.org/Graphics/SVG/1.1/DTD/svg11.dtd">
<svg version="1.1" id="Layer_1" xmlns="http://www.w3.org/2000/svg" xmlns:xlink="http://www.w3.org/1999/xlink" x="0px" y="0px"
	 width="16px" height="7.2px" viewBox="0 0 16 7.2" enable-background="new 0 0 16 7.2" xml:space="preserve">
<g>
	<path fill="#FFFFFF" d="M12.172,7.192c0.159,0,0.317-0.061,0.437-0.182L16,3.596l-3.39-3.414c-0.24-0.242-0.63-0.243-0.872-0.003
		s-0.243,0.63-0.003,0.872l2.527,2.545l-2.527,2.545c-0.24,0.242-0.239,0.632,0.003,0.872C11.858,7.132,12.015,7.192,12.172,7.192z"
		/>
	<path fill="#FFFFFF" d="M0.58,3.085h13.551c0.321,0,0.58,0.26,0.58,0.58s-0.26,0.58-0.58,0.58H0.58C0.26,4.246,0,3.986,0,3.665
		S0.26,3.085,0.58,3.085z"/>
</g>
</svg>
