<?xml version="1.0" encoding="utf-8"?>
<!-- Generator: Adobe Illustrator 17.1.0, SVG Export Plug-In . SVG Version: 6.00 Build 0)  -->
<!DOCTYPE svg PUBLIC "-//W3C//DTD SVG 1.1 Tiny//EN" "http://www.w3.org/Graphics/SVG/1.1/DTD/svg11-tiny.dtd">
<svg version="1.1" baseProfile="tiny" id="Layer_1" xmlns="http://www.w3.org/2000/svg" xmlns:xlink="http://www.w3.org/1999/xlink"
	 x="0px" y="0px" viewBox="0 0 60 40" xml:space="preserve">
<g>
	<path fill="#006900" d="M0-0.004V40h5.527l1.211-15.42l0.168-2.132c0.303-3.861,1.606-7.401,3.628-10.397l-0.672-0.708
		l-0.005-0.006l0.021-0.02c-0.55-0.154-1.089-0.373-1.589-0.71C5.793,8.918,5.137,5.524,6.824,3.025
		c1.689-2.498,5.084-3.155,7.582-1.466c1.199,0.811,1.961,2.018,2.256,3.326l0.011-0.01l0.003,0.004l0.672,0.709
		c3.728-2.242,8.162-3.39,12.829-3.023c4.667,0.366,8.868,2.192,12.2,4.988l0.775-0.596l0.003-0.002l0.003,0.003
		c0.496-1.245,1.443-2.313,2.753-2.926c2.732-1.279,5.982-0.101,7.259,2.631c1.279,2.732,0.102,5.982-2.631,7.26
		c-0.541,0.253-1.102,0.406-1.665,0.474l0.003,0.004l-0.006,0.004L48.098,15c1.53,3.275,2.265,6.976,1.962,10.837l-0.167,2.131
		L48.948,40h11.058V-0.004H0z"/>
	<path fill="#00C800" d="M48.258,27.908c-3.907-0.307-7.48-1.653-10.483-3.736c0.202,0.564,0.269,1.184,0.143,1.814l-1.446-0.29
		c0.211-1.052-0.468-2.073-1.52-2.284c-1.049-0.211-2.073,0.469-2.283,1.519l-1.445-0.29c0.359-1.789,2.058-2.954,3.841-2.692
		c-2.651-2.573-4.628-5.818-5.669-9.434c-1.309,2.802-3.21,5.251-5.521,7.219c0.172,0.008,0.343,0.016,0.517,0.051
		c1.848,0.372,3.046,2.172,2.673,4.022l-1.444-0.291c0.21-1.051-0.47-2.073-1.52-2.284c-1.051-0.211-2.073,0.47-2.283,1.52
		l-1.446-0.291c0.025-0.126,0.073-0.24,0.111-0.36c-3.565,2.005-7.736,3.022-12.121,2.678c-0.548-0.043-1.088-0.113-1.623-0.196
		L5.527,40h43.42l0.945-12.032C49.352,27.967,48.807,27.951,48.258,27.908z M36.903,31.352L36.903,31.352
		C36.903,31.353,36.903,31.353,36.903,31.352c-1.919,3.547-5.987,5.587-10.148,4.752c-4.158-0.837-7.123-4.292-7.522-8.305
		c0-0.001,0.001-0.001,0.001-0.002c-0.09-0.91-0.051-1.849,0.139-2.794l18.483,3.717C37.666,29.664,37.339,30.547,36.903,31.352z"/>
	<path fill="#FFB500" d="M48.858,14.376l0.016,0.022c0.562-0.067,1.124-0.22,1.665-0.474c2.732-1.278,3.91-4.528,2.631-7.26
		c-1.277-2.731-4.527-3.909-7.259-2.631c-1.31,0.613-2.257,1.681-2.753,2.926l0.008,0.009C45.55,9.011,47.493,11.535,48.858,14.376z
		"/>
	<path fill="#FF44B5" d="M48.098,15l0.773-0.594l0.006-0.004l-0.003-0.004l-0.016-0.022c-1.365-2.841-3.309-5.365-5.692-7.407
		l-0.008-0.009l-0.003-0.003l-0.003,0.002l-0.775,0.596C44.797,9.584,46.755,12.126,48.098,15z"/>
	<path fill="#FFB500" d="M16.66,4.888l0.002-0.002c-0.295-1.309-1.057-2.516-2.256-3.326C11.908-0.13,8.514,0.527,6.824,3.025
		c-1.688,2.499-1.031,5.893,1.467,7.581c0.499,0.338,1.039,0.556,1.589,0.71l0.001-0.001C11.673,8.723,13.986,6.532,16.66,4.888z"/>
	<path fill="#FF44B5" d="M17.348,5.588L16.676,4.88l-0.003-0.004l-0.011,0.01L16.66,4.888c-2.674,1.644-4.987,3.835-6.779,6.428
		L9.88,11.317l-0.021,0.02l0.005,0.006l0.672,0.708C12.31,9.421,14.641,7.216,17.348,5.588z"/>
	<path fill="#1D1D1B" d="M20.371,22.459l1.446,0.291c0.21-1.05,1.232-1.731,2.283-1.52c1.05,0.211,1.729,1.233,1.52,2.284
		l1.444,0.291c0.373-1.85-0.825-3.649-2.673-4.022c-0.173-0.035-0.345-0.042-0.517-0.051c-1.05,0.895-2.186,1.686-3.393,2.365
		C20.444,22.218,20.396,22.333,20.371,22.459z"/>
	<path fill="#1D1D1B" d="M35.065,21.948c-1.783-0.262-3.482,0.904-3.841,2.692l1.445,0.29c0.21-1.05,1.234-1.73,2.283-1.519
		c1.052,0.211,1.731,1.232,1.52,2.284l1.446,0.29c0.126-0.63,0.059-1.25-0.143-1.814C36.811,23.503,35.902,22.762,35.065,21.948z"/>
	<path fill="#FFB500" d="M20.482,22.099c1.207-0.679,2.342-1.47,3.393-2.365c2.31-1.968,4.212-4.416,5.521-7.219
		c1.041,3.615,3.018,6.86,5.669,9.434c0.838,0.813,1.746,1.554,2.711,2.224c3.003,2.084,6.576,3.43,10.483,3.736
		c0.549,0.043,1.094,0.059,1.635,0.059l0.167-2.131c0.303-3.861-0.432-7.562-1.962-10.837c-1.343-2.874-3.301-5.416-5.72-7.446
		c-3.332-2.796-7.533-4.622-12.2-4.988c-4.667-0.366-9.101,0.781-12.829,3.023c-2.707,1.628-5.038,3.833-6.813,6.462
		c-2.022,2.996-3.325,6.537-3.628,10.397L6.738,24.58c0.535,0.083,1.075,0.154,1.623,0.196
		C12.746,25.12,16.917,24.104,20.482,22.099z"/>
	<path fill="#FF342B" d="M19.233,27.798c0,0.001-0.001,0.001-0.001,0.002c0.399,4.013,3.364,7.468,7.522,8.305
		c4.161,0.835,8.229-1.205,10.148-4.751c0,0,0-0.001,0-0.001l-17.67-3.552C19.233,27.8,19.233,27.799,19.233,27.798z"/>
	<path fill="#FFFFFF" d="M19.233,27.798c0,0.001,0,0.002,0,0.002l17.67,3.552h0c0.436-0.806,0.763-1.688,0.952-2.632l-18.483-3.717
		C19.183,25.949,19.143,26.888,19.233,27.798z"/>
</g>
</svg>
