<?xml version="1.0" encoding="utf-8"?>
<!-- Generator: Adobe Illustrator 17.1.0, SVG Export Plug-In . SVG Version: 6.00 Build 0)  -->
<!DOCTYPE svg PUBLIC "-//W3C//DTD SVG 1.1 Tiny//EN" "http://www.w3.org/Graphics/SVG/1.1/DTD/svg11-tiny.dtd">
<svg version="1.1" baseProfile="tiny" id="Layer_1" xmlns="http://www.w3.org/2000/svg" xmlns:xlink="http://www.w3.org/1999/xlink"
	 x="0px" y="0px" viewBox="0 0 130 130" xml:space="preserve">
<g>
	<path fill="#0089FF" d="M0,65.001c0,14.21,4.573,27.345,12.309,38.041V76.187c0-21.281,12.657-39.596,30.847-47.862l-6.873-16.98
		l6.49-2.626c30.5-12.344,65.23,2.376,77.574,32.877c6.962,17.201,5.312,35.746-2.918,50.864v10.951
		C125.326,92.649,130,79.373,130,65.001c0-12.743-3.681-24.62-10.017-34.652c-0.754-1.194-1.544-2.363-2.373-3.503
		c-2.015-2.773-4.23-5.39-6.648-7.808C100.67,8.746,86.942,1.889,71.646,0.336C69.461,0.114,67.244,0,65,0
		C60.513,0,56.132,0.455,51.9,1.321C22.282,7.382,0,33.589,0,65.001z"/>
	<path fill="#FF44B5" d="M42.774,8.719l-6.49,2.626l6.873,16.98c2.114-0.961,4.3-1.79,6.553-2.468L42.774,8.719z"/>
	<path fill="#AC0084" d="M64.869,23.628c29.027,0,52.56,23.533,52.56,52.559V92.46c8.23-15.117,9.88-33.663,2.918-50.864
		c-12.344-30.5-47.074-45.22-77.574-32.877l6.936,17.138C54.511,24.414,59.597,23.628,64.869,23.628z"/>
	<path fill="#00DDFF" d="M117.429,76.187c0-29.026-23.533-52.559-52.56-52.559c-5.272,0-10.358,0.785-15.159,2.229
		c-2.253,0.678-4.439,1.507-6.553,2.468c-18.191,8.266-30.847,26.581-30.847,47.862v26.854C21.674,115.99,35.68,125.361,51.9,128.68
		C56.132,129.545,60.513,130,65,130c2.244,0,4.461-0.114,6.646-0.336c18.78-1.907,35.187-11.815,45.783-26.254v0V92.46V76.187z
		 M62.469,30.374c6.693-1.443,13.292,2.814,14.736,9.509c1.441,6.695-2.814,13.292-9.509,14.737
		C61,56.063,54.402,51.804,52.958,45.111C51.517,38.414,55.773,31.817,62.469,30.374z M37.391,36.709
		c6.294-1.357,12.497,2.647,13.854,8.94c1.357,6.295-2.645,12.5-8.94,13.856c-6.295,1.358-12.498-2.647-13.856-8.94
		C27.091,44.27,31.094,38.065,37.391,36.709z M41.287,83.787c-5.269,1.136-10.452-2.091-11.82-7.246l-0.023,0.005l-0.1-0.461
		c0-0.003-0.001-0.005-0.002-0.007l-0.08-0.371l-0.02-0.094h0l-2.018-9.359l9.824-2.12l0.125-0.027l0-0.001l0.935-0.201l0,0
		l9.483-2.044l0-0.002l0.933-0.201l0,0.001l9.484-2.045l-0.001-0.003l0.651-0.14l9.766-2.106v0l0.935-0.202l0,0.001l9.482-2.046
		l0-0.001l0.935-0.201l0.001,0.005l0.123-0.027l9.827-2.121l2.05,9.509l0.17,0.787l-0.024,0.005
		c0.877,5.261-2.516,10.337-7.785,11.472L41.287,83.787z"/>
	<path fill="#00B3FF" d="M42.304,59.505c6.295-1.357,10.297-7.561,8.94-13.856c-1.357-6.293-7.56-10.297-13.854-8.94
		c-6.297,1.357-10.3,7.561-8.943,13.856C29.806,56.858,36.009,60.863,42.304,59.505z M38.227,40.594
		c4.149-0.895,8.238,1.743,9.132,5.894c0.895,4.149-1.743,8.239-5.894,9.133c-4.149,0.897-8.238-1.743-9.135-5.892
		C31.437,45.577,34.075,41.487,38.227,40.594z"/>
	<path fill="#697DB5" d="M52.958,45.111c1.444,6.693,8.042,10.953,14.738,9.509c6.695-1.445,10.95-8.042,9.509-14.737
		c-1.444-6.695-8.042-10.951-14.736-9.509C55.773,31.817,51.517,38.414,52.958,45.111z M63.462,34.982
		c4.149-0.896,8.239,1.744,9.135,5.893c0.894,4.151-1.744,8.241-5.895,9.133c-4.149,0.896-8.239-1.744-9.134-5.894
		C56.673,39.967,59.311,35.877,63.462,34.982z"/>
	<path fill="#1D1D1B" d="M72.597,40.875c-0.895-4.149-4.985-6.79-9.135-5.893c-4.151,0.895-6.789,4.985-5.895,9.133L72.597,40.875z"
		/>
	<path fill="#AC0084" d="M66.702,50.008c4.151-0.893,6.789-4.982,5.895-9.133l-15.029,3.24
		C58.463,48.264,62.552,50.905,66.702,50.008z"/>
	<path fill="#1D1D1B" d="M41.466,55.62c4.151-0.894,6.789-4.984,5.894-9.133c-0.894-4.151-4.982-6.789-9.132-5.894
		c-4.152,0.894-6.79,4.984-5.896,9.134C33.228,53.878,37.316,56.517,41.466,55.62z"/>
	<path fill="#FFFFFF" d="M50.11,68.933c0.247,1.149,1.382,1.88,2.532,1.633c0.001,0,0.002,0,0.003,0l5.255-1.133
		c0.014-0.003,0.021-0.01,0.036-0.013c1.149-0.247,1.88-1.382,1.633-2.532c-0.003-0.016,0-0.03-0.002-0.045l-1.559-7.228
		l-9.484,2.045l1.546,7.167C50.083,68.864,50.1,68.89,50.11,68.933z"/>
	<path fill="#FFFFFF" d="M37.11,73.91c1.147-0.246,1.878-1.378,1.634-2.526l-1.57-7.278l-0.125,0.027l-9.824,2.12l2.018,9.359
		l7.832-1.689C37.088,73.92,37.096,73.914,37.11,73.91z"/>
	<polygon fill="#FFFFFF" points="29.343,76.078 29.345,76.085 29.263,75.707 	"/>
	<path fill="#FFFFFF" d="M39.686,71.181c0.247,1.149,1.382,1.88,2.532,1.633c0,0,0.001,0,0.001,0l5.276-1.138
		c0.015-0.004,0.023-0.011,0.038-0.014c1.125-0.241,1.844-1.335,1.641-2.46l-1.584-7.342l-9.483,2.044l1.558,7.223
		C39.672,71.148,39.681,71.16,39.686,71.181z"/>
	<path fill="#FFFFFF" d="M81.355,62.196c0.248,1.147,1.376,1.877,2.523,1.635l7.867-1.696l0.032,0.147l-2.05-9.509l-9.827,2.121
		l-0.123,0.027l1.557,7.219C81.341,62.161,81.35,62.173,81.355,62.196z"/>
	<path fill="#FFFFFF" d="M84.139,74.546c5.269-1.135,8.662-6.211,7.785-11.472l-7.82,1.686c-0.005,0.001-0.008,0.004-0.014,0.005
		c-1.15,0.247-1.881,1.38-1.634,2.532c0.004,0.016,0,0.03,0.002,0.047l1.558,7.224l-0.935,0.201l-1.57-7.278
		c-0.25-1.143-1.377-1.872-2.523-1.627L73.717,67c-0.017,0.004-0.026,0.012-0.044,0.016c-1.149,0.249-1.88,1.382-1.633,2.532
		c0.004,0.018,0,0.033,0.002,0.05l1.557,7.218l-0.935,0.201l-1.57-7.278c-0.253-1.145-1.382-1.872-2.529-1.625
		c-0.006,0.001-0.01,0-0.016,0.001l-5.295,1.142c-0.003,0.001-0.004,0.002-0.007,0.003c-1.15,0.247-1.882,1.38-1.633,2.532
		c0,0.001,0,0.002,0,0.003l1.568,7.27l-0.665,0.143l-10.22,2.204l0-0.001l-0.467,0.101l-1.582-7.332
		c-0.27-1.111-1.368-1.812-2.492-1.581l-5.328,1.149c-0.003,0.001-0.005,0.002-0.008,0.003c-1.15,0.249-1.881,1.382-1.634,2.532
		c0.004,0.016,0,0.03,0.002,0.045l1.56,7.23l-0.935,0.202l-1.57-7.281c-0.248-1.139-1.363-1.863-2.502-1.635l-7.873,1.698
		c1.368,5.155,6.551,8.382,11.82,7.246L84.139,74.546z"/>
	<polygon fill="#FFFFFF" points="64.333,60.874 64.108,60.923 64.245,61.011 	"/>
	<polygon fill="#FFFFFF" points="64.245,61.012 64.245,61.012 64.245,61.011 	"/>
	<path fill="#FF342B" d="M63.044,68.322c0.003-0.001,0.005,0,0.008,0l5.327-1.149c1.135-0.254,1.857-1.374,1.619-2.515l-0.955-4.426
		l-1.765,2.735l-3.033-1.957l-0.001,0l-1.958,3.033l-2.723-1.757l0.951,4.408C60.765,67.84,61.896,68.57,63.044,68.322z"/>
	<polygon fill="#FFFFFF" points="59.453,61.778 61.21,59.053 64.108,60.923 64.333,60.874 66.201,57.977 68.938,59.744 
		68.425,57.365 58.658,59.471 58.943,59.41 	"/>
	<path fill="#FF342B" d="M70.919,64.391c0.006,0.022,0.016,0.034,0.021,0.057c0.245,1.132,1.346,1.852,2.478,1.639l5.332-1.15
		c0.012-0.003,0.018-0.008,0.03-0.011c1.146-0.247,1.877-1.376,1.634-2.524l-1.572-7.286l-9.482,2.046L70.919,64.391z"/>
	<path fill="#FF342B" d="M60.689,72.044c-0.005-0.021-0.015-0.033-0.02-0.055c-0.245-1.14-1.362-1.866-2.502-1.637L52.846,71.5
		c-0.001,0-0.002,0.001-0.003,0.001c-1.149,0.249-1.88,1.382-1.633,2.532c0.007,0.032,0.001,0.06,0.004,0.091l1.55,7.185
		l-0.467,0.101l0,0.001l10.22-2.204l-0.27,0.058L60.689,72.044z"/>
	<polygon fill="#FFFFFF" points="64.245,61.012 64.245,61.011 64.108,60.923 61.21,59.053 59.453,61.778 59.563,62.288 
		62.287,64.045 	"/>
	<polygon fill="#FFFFFF" points="64.245,61.012 67.278,62.968 69.044,60.233 68.938,59.744 66.201,57.977 64.333,60.874 
		64.245,61.011 	"/>
	<path fill="#FF342B" d="M49.167,69.132c-0.142-0.657,0.655-1.067,0.904-0.305l-1.546-7.167l0-0.001l-0.933,0.201l0,0.002
		l1.584,7.342C49.17,69.178,49.172,69.155,49.167,69.132z"/>
	<path fill="#FF342B" d="M51.214,74.124c0.052,0.631-0.758,0.99-0.948,0.109c-0.004-0.019-0.013-0.035-0.017-0.054l1.582,7.332
		l0.467-0.101l0.467-0.101L51.214,74.124z"/>
	<path fill="#FF342B" d="M39.843,76.481c0-0.001-0.001-0.002-0.001-0.003l1.57,7.281l0.935-0.202l-1.56-7.23
		C40.887,76.986,40.037,77.383,39.843,76.481z"/>
	<path fill="#FF342B" d="M38.743,71.38c-0.145-0.673,0.698-1.093,0.924-0.251l-1.558-7.223l0,0l-0.935,0.201l0,0.001l1.57,7.278
		C38.743,71.383,38.744,71.381,38.743,71.38z"/>
	<path fill="#FF342B" d="M60.689,72.044l1.558,7.221l0.27-0.058l0.665-0.143l-1.568-7.27C61.754,72.462,60.915,72.882,60.689,72.044
		z"/>
	<path fill="#FF342B" d="M60.512,66.689c0,0.002,0.002,0.004,0.002,0.006l-0.951-4.408l-0.11-0.51l-0.511-2.368l-0.284,0.061
		l-0.651,0.14l0.001,0.003l1.559,7.228C59.469,66.183,60.318,65.787,60.512,66.689z"/>
	<path fill="#FF342B" d="M71.097,69.748c-0.001-0.003-0.002-0.006-0.003-0.009l1.57,7.278l0.935-0.201l-1.557-7.218
		C72.137,70.255,71.29,70.647,71.097,69.748z"/>
	<path fill="#FF342B" d="M68.938,59.744l0.105,0.489l0.955,4.426c-0.001-0.004,0-0.008-0.001-0.012
		c-0.144-0.67,0.694-1.091,0.922-0.256l-1.559-7.227l0-0.001l-0.935,0.202v0L68.938,59.744z"/>
	<path fill="#FF342B" d="M81.513,67.496c0-0.002-0.001-0.003-0.002-0.005l1.57,7.278l0.935-0.201l-1.558-7.224
		C82.556,68.002,81.708,68.399,81.513,67.496z"/>
	<path fill="#FF342B" d="M80.413,62.403c-0.001-0.003,0-0.005-0.001-0.008c-0.144-0.671,0.697-1.09,0.922-0.254l-1.557-7.219
		l-0.001-0.005l-0.935,0.201l0,0.001L80.413,62.403z"/>
	<path fill="#FF342B" d="M47.496,71.676l-5.276,1.138c0.677-0.145,1.113,0.732,0.209,0.932l5.328-1.149
		c-0.007,0.001-0.014,0.001-0.021,0.002C47.067,72.744,46.64,71.894,47.496,71.676z"/>
	<path fill="#FF342B" d="M37.311,74.847c-0.669,0.146-1.097-0.707-0.237-0.923l-7.832,1.689h0l0.02,0.094l0.082,0.378l0.1,0.461
		l0.023-0.005l7.873-1.698C37.331,74.845,37.321,74.844,37.311,74.847z"/>
	<path fill="#FF342B" d="M52.846,71.5l5.322-1.147c-0.01,0.002-0.02,0.001-0.031,0.003c-0.669,0.144-1.097-0.708-0.237-0.923
		l-5.255,1.133C53.322,70.423,53.756,71.302,52.846,71.5z"/>
	<path fill="#FF342B" d="M68.364,67.179c0.005-0.001,0.01-0.004,0.015-0.005l-5.327,1.149c0.673-0.137,1.101,0.733,0.201,0.934
		l5.295-1.142C67.879,68.244,67.455,67.374,68.364,67.179z"/>
	<path fill="#FF342B" d="M83.879,63.832c0.003-0.001,0.006,0,0.009-0.001c0.676-0.147,1.11,0.724,0.216,0.93l7.82-1.686l0.024-0.005
		l-0.17-0.787l-0.032-0.147L83.879,63.832z"/>
	<path fill="#FF342B" d="M78.75,64.937l-5.332,1.15c0.018-0.003,0.036-0.002,0.054-0.006c0.666-0.144,1.092,0.701,0.245,0.919
		l5.271-1.137c-0.002,0.001-0.005,0-0.008,0.001C78.31,66.008,77.881,65.149,78.75,64.937z"/>
	<path fill="#FF342B" d="M42.219,72.814C42.219,72.814,42.218,72.814,42.219,72.814c-1.151,0.247-2.286-0.484-2.533-1.633
		c-0.005-0.021-0.014-0.033-0.019-0.053c-0.225-0.842-1.068-0.422-0.924,0.251c0,0.002,0,0.003,0.001,0.005
		c0.244,1.147-0.486,2.28-1.634,2.526c-0.014,0.003-0.022,0.01-0.035,0.013c-0.86,0.216-0.433,1.069,0.237,0.923
		c0.01-0.002,0.02-0.001,0.03-0.003c1.139-0.228,2.254,0.496,2.502,1.635c0,0.001,0.001,0.002,0.001,0.003
		c0.194,0.902,1.044,0.505,0.945-0.154c-0.002-0.016,0.002-0.029-0.002-0.045c-0.247-1.15,0.484-2.284,1.634-2.532
		c0.003-0.001,0.005-0.002,0.008-0.003C43.332,73.546,42.896,72.669,42.219,72.814z"/>
	<path fill="#FF342B" d="M51.214,74.124c-0.003-0.031,0.003-0.059-0.004-0.091c-0.247-1.15,0.484-2.284,1.633-2.532
		c0.001,0,0.002-0.001,0.003-0.001c0.91-0.198,0.476-1.077-0.201-0.934c-0.001,0-0.002,0-0.003,0
		c-1.15,0.247-2.285-0.484-2.532-1.633c-0.009-0.043-0.027-0.07-0.039-0.107c-0.249-0.762-1.046-0.351-0.904,0.305
		c0.005,0.024,0.004,0.047,0.008,0.07c0.203,1.126-0.515,2.22-1.641,2.46c-0.016,0.003-0.024,0.01-0.038,0.014
		c-0.856,0.217-0.429,1.068,0.239,0.924c0.007-0.002,0.014-0.001,0.021-0.002c1.124-0.231,2.222,0.471,2.492,1.581
		c0.005,0.019,0.013,0.035,0.017,0.054C50.456,75.114,51.266,74.755,51.214,74.124z"/>
	<path fill="#FF342B" d="M63.052,68.322c-0.003,0.001-0.005,0-0.008,0c-1.148,0.248-2.279-0.483-2.53-1.627
		c0-0.002-0.002-0.004-0.002-0.006c-0.194-0.903-1.043-0.507-0.945,0.153c0.002,0.016-0.002,0.029,0.002,0.045
		c0.247,1.15-0.484,2.285-1.633,2.532c-0.015,0.003-0.022,0.01-0.036,0.013c-0.86,0.215-0.432,1.068,0.237,0.923
		c0.01-0.002,0.02-0.001,0.031-0.003c1.14-0.229,2.257,0.496,2.502,1.637c0.005,0.022,0.014,0.034,0.02,0.055
		c0.226,0.838,1.065,0.418,0.924-0.25c0-0.001,0-0.002,0-0.003c-0.249-1.152,0.483-2.285,1.633-2.532
		c0.003-0.001,0.004-0.002,0.007-0.003C64.153,69.055,63.725,68.185,63.052,68.322z"/>
	<path fill="#FF342B" d="M73.472,66.081c-0.018,0.004-0.036,0.003-0.054,0.006c-1.132,0.213-2.233-0.507-2.478-1.639
		c-0.005-0.023-0.015-0.036-0.021-0.057c-0.227-0.835-1.066-0.414-0.922,0.256c0.001,0.004,0.001,0.008,0.001,0.012
		c0.238,1.141-0.483,2.261-1.619,2.515c-0.005,0.001-0.01,0.004-0.015,0.005c-0.909,0.195-0.485,1.066,0.185,0.936
		c0.005-0.001,0.01,0.001,0.016-0.001c1.147-0.247,2.277,0.48,2.529,1.625c0.001,0.003,0.002,0.006,0.003,0.009
		c0.193,0.899,1.04,0.507,0.945-0.15c-0.002-0.017,0.002-0.032-0.002-0.05c-0.247-1.15,0.484-2.284,1.633-2.532
		c0.018-0.004,0.027-0.012,0.044-0.016C74.564,66.782,74.138,65.937,73.472,66.081z"/>
	<path fill="#FF342B" d="M83.888,63.831c-0.003,0.001-0.006,0-0.009,0.001c-1.147,0.242-2.275-0.488-2.523-1.635
		c-0.005-0.023-0.015-0.035-0.02-0.056c-0.226-0.836-1.067-0.416-0.922,0.254c0.001,0.003,0,0.005,0.001,0.008
		c0.243,1.148-0.488,2.277-1.634,2.524c-0.012,0.003-0.018,0.008-0.03,0.011c-0.869,0.212-0.44,1.07,0.231,0.927
		c0.002-0.001,0.005,0,0.008-0.001c1.146-0.245,2.272,0.484,2.523,1.627c0,0.002,0.001,0.003,0.002,0.005
		c0.195,0.904,1.043,0.506,0.945-0.152c-0.002-0.016,0.002-0.03-0.002-0.047c-0.247-1.152,0.484-2.285,1.634-2.532
		c0.006-0.001,0.008-0.004,0.014-0.005C84.998,64.555,84.563,63.683,83.888,63.831z"/>
</g>
</svg>
