<?xml version="1.0" encoding="utf-8"?>
<!-- Generator: Adobe Illustrator 17.1.0, SVG Export Plug-In . SVG Version: 6.00 Build 0)  -->
<!DOCTYPE svg PUBLIC "-//W3C//DTD SVG 1.1 Tiny//EN" "http://www.w3.org/Graphics/SVG/1.1/DTD/svg11-tiny.dtd">
<svg version="1.1" baseProfile="tiny" id="Layer_1" xmlns="http://www.w3.org/2000/svg" xmlns:xlink="http://www.w3.org/1999/xlink"
	 x="0px" y="0px" viewBox="0 0 60 40" xml:space="preserve">
<g>
	<path fill="#00A4C2" d="M0-0.004V40h13.288l-3.511-8.649c0.001-0.002,0.001-0.004,0.002-0.006
		C5.395,20.308,10.726,7.783,21.75,3.308c4.078-1.655,8.363-1.973,12.376-1.167c0.001,0,0.012-0.002,0.012-0.002
		c2.764,0.557,5.388,1.666,7.735,3.227l0.019-0.008c0.095,0.064,0.183,0.14,0.277,0.205c0.377,0.26,0.744,0.533,1.105,0.817
		c0.11,0.086,0.229,0.16,0.337,0.249l-0.017,0.007c1.161,0.95,2.242,2.01,3.196,3.203l-11.767,4.777
		c-2.063,2.967-2.711,6.836-1.456,10.463c0.001,0.003,0.002,0.005,0.003,0.008v-0.408c0-2.163,1.754-3.917,3.918-3.917
		c2.163,0,3.917,1.754,3.917,3.917v0l10.627-4.314L60.005,40V-0.004H0z"/>
	<path fill="#FFFFFF" d="M40.2,10.482c-2.171,0.882-3.931,2.344-5.177,4.134l11.767-4.777C44.65,9.424,42.37,9.602,40.2,10.482z"/>
	<path fill="#40FFD2" d="M42.17,5.562c0.377,0.26,0.745,0.533,1.105,0.817C42.914,6.095,42.547,5.822,42.17,5.562z"/>
	<path fill="#40FFD2" d="M41.405,24.679v7.549c0,2.165-1.754,3.918-3.917,3.918c-2.164,0-3.918-1.753-3.918-3.918v-7.141
		c-0.001-0.003-0.002-0.005-0.003-0.008c-1.255-3.628-0.607-7.497,1.456-10.463c1.245-1.79,3.006-3.252,5.177-4.134
		c2.17-0.881,4.45-1.058,6.591-0.644c-0.954-1.193-2.035-2.254-3.196-3.203l-5.779,2.347L37.13,7.29l4.744-1.925
		c-2.347-1.561-4.971-2.67-7.735-3.227c0,0-0.011,0.002-0.012,0.002c0.004,0.001,0.008,0.001,0.012,0.002l-14.164,5.75l1.196,2.947
		l-2.352,5.567l3.929,9.678L9.78,31.35c-0.001-0.002-0.001-0.003-0.002-0.005c-0.001,0.002-0.001,0.004-0.002,0.006L13.288,40
		h46.717l-7.973-19.635L41.405,24.679z M29.149,10.53l5.814-2.36l0.686,1.691l-5.813,2.361L29.149,10.53z"/>
	
		<rect x="29.262" y="9.283" transform="matrix(0.9266 -0.3761 0.3761 0.9266 -1.456 12.9331)" fill="#1D1D1B" width="6.275" height="1.826"/>
	<path fill="#1D1D1B" d="M37.816,8.982l5.779-2.347l0.017-0.007c-0.108-0.089-0.227-0.163-0.337-0.249
		c-0.361-0.284-0.728-0.557-1.105-0.817c-0.095-0.065-0.182-0.141-0.277-0.205l-0.019,0.008L37.13,7.29L37.816,8.982z"/>
	<path fill="#AC0084" d="M22.748,26.085l-3.929-9.678l2.352-5.567l-1.196-2.947l14.164-5.75c-0.004-0.001-0.008-0.001-0.012-0.002
		c-4.013-0.806-8.298-0.488-12.376,1.167c-11.024,4.475-16.355,17-11.972,28.038c0.001,0.002,0.001,0.003,0.002,0.005L22.748,26.085
		z"/>
	<path fill="#FF90D4" d="M37.488,36.146c2.163,0,3.917-1.753,3.917-3.918v-7.549v0c0-2.163-1.754-3.917-3.917-3.917
		c-2.164,0-3.918,1.754-3.918,3.917v0.408v7.141C33.57,34.393,35.324,36.146,37.488,36.146z"/>
</g>
</svg>
