<?xml version="1.0" encoding="utf-8"?>
<!-- Generator: Adobe Illustrator 17.1.0, SVG Export Plug-In . SVG Version: 6.00 Build 0)  -->
<!DOCTYPE svg PUBLIC "-//W3C//DTD SVG 1.1 Tiny//EN" "http://www.w3.org/Graphics/SVG/1.1/DTD/svg11-tiny.dtd">
<svg version="1.1" baseProfile="tiny" id="Layer_1" xmlns="http://www.w3.org/2000/svg" xmlns:xlink="http://www.w3.org/1999/xlink"
	 x="0px" y="0px" viewBox="0 0 130 130" xml:space="preserve">
<g>
	<path fill="#5C0079" d="M130,64.998C130,29.098,100.9,0,65,0C40.839,0,19.774,13.19,8.57,32.754l18.998-10.426l0-0.001
		l10.846-5.952c0.845-0.464,1.698-0.903,2.556-1.318c0.199-0.096,0.401-0.179,0.601-0.273c0.665-0.312,1.331-0.622,2.003-0.905
		c0.161-0.068,0.325-0.125,0.487-0.192c0.716-0.294,1.433-0.582,2.156-0.844c0.105-0.038,0.211-0.069,0.317-0.107
		c0.784-0.279,1.569-0.545,2.359-0.787c0.046-0.014,0.092-0.025,0.138-0.039c24.51-7.434,51.699,2.994,64.525,26.326
		c0.007,0.013,0.018,0.023,0.025,0.037c1.332,2.43,0.443,5.48-1.985,6.811c-2.428,1.334-5.479,0.446-6.811-1.985l0,0
		c1.332,2.43,0.443,5.479-1.985,6.811c-2.428,1.334-5.479,0.446-6.811-1.984l0,0c1.331,2.43,0.444,5.479-1.985,6.812
		c-2.43,1.334-5.477,0.446-6.81-1.984c1.333,2.429,0.444,5.478-1.984,6.81c-2.43,1.333-5.48,0.444-6.812-1.982
		c0-0.001-0.001-0.002-0.001-0.003l-6.521,3.578c-8.844,4.853-12.077,15.953-7.225,24.8c0.676,1.231,1.482,2.34,2.377,3.347
		c1.316-2.42,3.307-4.509,5.901-5.933c7.21-3.959,16.266-1.322,20.223,5.889c0.27,0.492,0.503,0.993,0.712,1.5l25.206-13.835
		c-3.344,14.997-12.865,28.536-27.393,36.509l-30.026,16.48C62.761,129.971,63.877,130,65,130C100.9,130,130,100.896,130,64.998z"/>
	<polygon fill="#5C0079" points="87.193,52.754 87.194,52.755 87.193,52.754 	"/>
	<path fill="#FF90D4" d="M89.453,93.183l4.412-2.422c-0.209-0.507-0.442-1.008-0.712-1.5c-3.958-7.212-13.013-9.849-20.223-5.889
		c-2.594,1.424-4.585,3.514-5.901,5.933C72.561,95.532,81.839,97.361,89.453,93.183z"/>
	<path fill="#FFFFFF" d="M102.8,49.911c2.428-1.332,3.316-4.381,1.985-6.811l-8.796,4.827
		C97.321,50.357,100.372,51.245,102.8,49.911z"/>
	<path fill="#FFFFFF" d="M113.576,38.276l-8.791,4.824c1.332,2.43,4.384,3.319,6.811,1.985c2.428-1.332,3.316-4.381,1.985-6.811
		c-0.007-0.013-0.018-0.023-0.025-0.037c0.007,0.013,0.015,0.024,0.021,0.037L113.576,38.276z"/>
	<path fill="#FFFFFF" d="M87.194,52.755c1.333,2.429,4.38,3.318,6.81,1.984c2.429-1.333,3.316-4.382,1.985-6.812l-8.796,4.827
		C87.194,52.754,87.194,52.755,87.194,52.755z"/>
	<path fill="#FFFFFF" d="M78.397,57.581c0,0.001,0.001,0.002,0.001,0.003c1.333,2.426,4.382,3.315,6.812,1.982
		c2.428-1.332,3.316-4.381,1.984-6.81c0-0.001-0.001-0.001-0.001-0.002L78.397,57.581z"/>
	<path fill="#F46000" d="M119.071,76.927L93.865,90.762l-4.412,2.422c-7.614,4.177-16.891,2.349-22.425-3.878
		c-0.895-1.007-1.701-2.116-2.377-3.347c-4.852-8.846-1.618-19.947,7.225-24.8l6.521-3.578l8.796-4.827l0,0l8.796-4.827l0,0
		l8.796-4.827l0,0l8.791-4.824l0.001-0.003c-0.007-0.013-0.015-0.024-0.021-0.037C100.73,14.905,73.54,4.477,49.03,11.911
		c3.53-1.069,7.116-1.77,10.706-2.113l7.088,12.915c4.547,8.286,1.517,18.689-6.769,23.238c-8.287,4.546-18.691,1.515-23.238-6.77
		l-1.574-2.868l-1.284,31.389c0.005,0.194-0.004,0.387-0.022,0.583l-0.001,0.005c-0.028,0.287-0.08,0.571-0.164,0.858
		c-0.734,2.522-3.373,3.969-5.893,3.236c-0.508-0.148-0.969-0.375-1.38-0.661l-0.007,0.004L0.86,55.181l34.383-18.869l-7.674-13.984
		L8.57,32.754C3.127,42.259,0,53.26,0,64.998c0,13.429,4.074,25.906,11.052,36.266c20.223-0.716,40.097,9.708,50.512,28.644
		c0.03,0.002,0.058,0.005,0.088,0.007l30.026-16.48C106.206,105.463,115.727,91.924,119.071,76.927z M104.272,26.04l-4.426,15.19
		l-15.191-4.426L104.272,26.04z M67.424,18.973c1.25-4.291,5.745-6.758,10.038-5.507c4.292,1.251,6.76,5.745,5.51,10.038
		c-1.251,4.292-5.746,6.757-10.039,5.506C68.641,27.759,66.173,23.267,67.424,18.973z"/>
	<path fill="#F46000" d="M46.533,12.737c0.784-0.279,1.569-0.546,2.359-0.787C48.102,12.192,47.317,12.458,46.533,12.737z"/>
	<path fill="#F46000" d="M38.415,16.375c0.845-0.464,1.698-0.903,2.556-1.318C40.112,15.473,39.26,15.911,38.415,16.375z"/>
	<path fill="#F46000" d="M41.571,14.785c0.665-0.312,1.331-0.622,2.003-0.905C42.902,14.163,42.236,14.472,41.571,14.785z"/>
	<path fill="#F46000" d="M44.061,13.687c0.716-0.294,1.433-0.582,2.156-0.844C45.494,13.106,44.777,13.393,44.061,13.687z"/>
	<path fill="#FFB500" d="M35.244,36.311l0,0.002l1.574,2.868c4.547,8.285,14.951,11.316,23.238,6.77
		c8.285-4.549,11.316-14.953,6.769-23.238L59.736,9.798c-3.59,0.343-7.175,1.044-10.706,2.113c-0.046,0.014-0.092,0.025-0.138,0.039
		c-0.79,0.241-1.576,0.508-2.359,0.787c-0.105,0.037-0.212,0.069-0.317,0.107c-0.722,0.262-1.44,0.55-2.156,0.844
		c-0.162,0.067-0.326,0.124-0.487,0.192c-0.672,0.283-1.338,0.593-2.003,0.905c-0.2,0.094-0.402,0.176-0.601,0.273
		c-0.858,0.415-1.71,0.854-2.556,1.318l-10.846,5.952l0,0.001L35.244,36.311L35.244,36.311z M54.086,23.173
		c4.294,1.251,6.758,5.745,5.509,10.039c-1.251,4.291-5.745,6.759-10.038,5.506c-4.292-1.25-6.758-5.744-5.507-10.039
		C45.299,24.39,49.794,21.922,54.086,23.173z"/>
	<path fill="#1D1D1B" d="M49.557,38.718c4.292,1.253,8.787-1.215,10.038-5.506c1.25-4.294-1.215-8.788-5.509-10.039
		c-4.292-1.251-8.787,1.216-10.036,5.506C42.799,32.974,45.265,37.468,49.557,38.718z"/>
	<polygon fill="#FF90D4" points="99.846,41.23 104.272,26.04 84.655,36.805 	"/>
	<circle fill="#1D1D1B" cx="75.197" cy="21.238" r="8.095"/>
	<path fill="#1D1D1B" d="M35.243,36.312L0.86,55.181l25.63,16.547l0.007-0.004c0.411,0.286,0.872,0.513,1.38,0.661
		c2.52,0.734,5.16-0.714,5.893-3.236c0.084-0.287,0.136-0.571,0.164-0.858l0.001-0.005c0.019-0.196,0.028-0.389,0.022-0.583
		l1.284-31.389L35.243,36.312L35.243,36.312z"/>
	<path fill="#FFB500" d="M11.052,101.264c11.075,16.444,29.469,27.548,50.512,28.644C51.149,110.973,31.274,100.548,11.052,101.264z
		"/>
</g>
</svg>
