<?xml version="1.0" encoding="utf-8"?>
<!-- Generator: Adobe Illustrator 17.1.0, SVG Export Plug-In . SVG Version: 6.00 Build 0)  -->
<!DOCTYPE svg PUBLIC "-//W3C//DTD SVG 1.1 Tiny//EN" "http://www.w3.org/Graphics/SVG/1.1/DTD/svg11-tiny.dtd">
<svg version="1.1" baseProfile="tiny" id="Layer_1" xmlns="http://www.w3.org/2000/svg" xmlns:xlink="http://www.w3.org/1999/xlink"
	 x="0px" y="0px" viewBox="0 0 130 130" xml:space="preserve">
<g>
	<path fill="#5C0079" d="M42.662,27.67L42.662,27.67C43.335,17.98,49.418,7.102,65,7.102c16.476,0,31.345,6.881,41.889,17.928
		c9.92,10.392,12.399,24.47,12.399,39.97v13.333c0,4.721,2.274,8.899,5.775,11.534C128.239,82.206,130,73.81,130,65
		c0-35.899-29.103-65-65-65C29.102,0,0,29.102,0,65c0,7.853,1.393,15.381,3.944,22.349l19.053-40.11
		C27.253,38.281,34.331,31.572,42.662,27.67z"/>
	<path fill="#AC0084" d="M119.288,78.333V65c0-15.5-2.479-29.578-12.399-39.97C96.345,13.983,81.476,7.102,65,7.102
		c-15.581,0-21.665,10.878-22.338,20.568l44.579,19.95l1.61,18.854l7.589,17.662l-0.098,0.207c0.05,0.023,0.102,0.038,0.152,0.062
		c5.871,2.743,8.407,9.726,5.665,15.597c-2.744,5.871-9.728,8.407-15.599,5.666c-0.096-0.045-0.183-0.1-0.278-0.147l-11.261,23.708
		c22.696-3.513,41.506-18.768,50.042-39.362C121.562,87.232,119.288,83.053,119.288,78.333z"/>
	<path fill="#AC0084" d="M87.592,103.458c4.653,2.173,10.184,0.165,12.356-4.486c2.173-4.653,0.166-10.184-4.486-12.357
		c-0.055-0.026-0.112-0.043-0.167-0.068l-7.966,16.771C87.418,103.364,87.501,103.416,87.592,103.458z"/>
	<path fill="#FFB500" d="M83.105,91.101c-2.129,4.561-0.235,9.959,4.224,12.217l7.966-16.771
		C90.678,84.496,85.252,86.504,83.105,91.101z"/>
	<path fill="#FFB500" d="M80.896,90.069c2.719-5.822,9.606-8.358,15.446-5.726l0.098-0.207l-7.589-17.662l-1.61-18.854L42.662,27.67
		l0,0c-8.331,3.902-15.409,10.611-19.664,19.569L3.944,87.35C13.057,112.238,36.955,130,65,130c3.408,0,6.754-0.265,10.021-0.771
		l11.261-23.708C80.615,102.686,78.198,95.845,80.896,90.069z M33.004,43.028c1.966-4.693,7.365-6.896,12.054-4.932
		c4.689,1.97,6.896,7.367,4.932,12.059c-1.97,4.69-7.37,6.895-12.058,4.926C33.24,53.114,31.034,47.718,33.004,43.028z
		 M36.253,88.127c-11.346-4.765-16.594-18.048-11.714-29.671l17.249,3.26l3.297,5.362l6.143-1.404l14.408,10.028
		C60.763,87.326,47.601,92.888,36.253,88.127z M71.442,59.157c-1.97,4.69-7.366,6.898-12.055,4.929
		c-4.692-1.967-6.899-7.366-4.932-12.058c1.969-4.688,7.366-6.895,12.058-4.926C71.203,49.069,73.41,54.466,71.442,59.157z"/>
	<path fill="#1D1D1B" d="M37.931,55.081c4.688,1.969,10.088-0.235,12.058-4.926c1.965-4.692-0.242-10.089-4.932-12.059
		c-4.689-1.965-10.088,0.238-12.054,4.932C31.034,47.718,33.24,53.114,37.931,55.081z"/>
	<circle fill="#1D1D1B" cx="62.95" cy="55.593" r="9.209"/>
	<path fill="#FF342B" d="M51.229,65.674l-6.143,1.404l-3.297-5.362l-17.249-3.26c-4.88,11.623,0.368,24.906,11.714,29.671
		c11.348,4.761,24.51-0.801,29.384-12.425L51.229,65.674z M39.126,81.281c-8.527-3.578-13.51-12.024-13.122-20.753
		c5.208,4.139,11.049,7.656,17.483,10.357c6.436,2.704,13.037,4.406,19.643,5.221C57.17,82.5,47.652,84.859,39.126,81.281z"/>
	<path fill="#FFFFFF" d="M26.004,60.528c-0.387,8.729,4.595,17.175,13.122,20.753c8.526,3.578,18.044,1.219,24.004-5.175
		c-6.606-0.815-13.208-2.517-19.643-5.221C37.053,68.183,31.212,64.667,26.004,60.528z"/>
	<path fill="#40FFD2" d="M80.896,90.069c-2.698,5.776-0.281,12.617,5.387,15.452c0.094,0.047,0.182,0.102,0.278,0.147
		c5.871,2.742,12.855,0.205,15.599-5.666c2.742-5.871,0.206-12.854-5.665-15.597c-0.05-0.023-0.102-0.039-0.152-0.062
		C90.502,81.712,83.615,84.247,80.896,90.069z M95.462,86.615c4.652,2.173,6.659,7.704,4.486,12.357
		c-2.172,4.651-7.703,6.659-12.356,4.486c-0.091-0.043-0.174-0.095-0.263-0.14c-4.459-2.258-6.353-7.656-4.224-12.217
		c2.147-4.598,7.574-6.605,12.19-4.554C95.35,86.572,95.407,86.59,95.462,86.615z"/>
</g>
</svg>
