<?xml version="1.0" encoding="utf-8"?>
<!-- Generator: Adobe Illustrator 17.1.0, SVG Export Plug-In . SVG Version: 6.00 Build 0)  -->
<!DOCTYPE svg PUBLIC "-//W3C//DTD SVG 1.1 Tiny//EN" "http://www.w3.org/Graphics/SVG/1.1/DTD/svg11-tiny.dtd">
<svg version="1.1" baseProfile="tiny" id="Layer_1" xmlns="http://www.w3.org/2000/svg" xmlns:xlink="http://www.w3.org/1999/xlink"
	 x="0px" y="0px" viewBox="0 0 60 40" xml:space="preserve">
<g>
	<rect x="0" y="0" fill="#00C800" width="60" height="40"/>
	<g>
		<g>
			<path fill="#1D1D1B" d="M53.896,40V28.64c0-6.287-2.56-11.976-6.693-16.083L44.269,2.549l-4.757,4.985
				c-2.57-1.011-5.366-1.572-8.294-1.572c-1.97,0-3.881,0.252-5.704,0.724l-4.963-5.2l-2.562,8.739
				c-5.722,4.117-9.452,10.829-9.452,18.416V40H53.896z"/>
			<path fill="#EDEDED" d="M28.951,14.209c-0.142,1.101,0.637,2.108,1.737,2.248c1.099,0.142,2.107-0.637,2.246-1.737
				c0.14-1.1-0.636-2.106-1.737-2.247C30.098,12.331,29.091,13.109,28.951,14.209"/>
			<path fill="#EDEDED" d="M38.446,40v-0.577v-5.031c0-3.792-1.52-7.229-3.981-9.738c-1.287,0.631-2.766,0.907-4.293,0.711
				c-2.484-0.318-4.525-1.805-5.658-3.834c-1.608,1.677-3.957,2.603-6.439,2.285c-0.68-0.087-1.323-0.27-1.927-0.519
				c-3.355,2.54-5.523,6.564-5.523,11.095V40H38.446z"/>
			<path fill="#EDEDED" d="M19.985,13.061c-0.141,1.1,0.637,2.105,1.737,2.247c1.1,0.141,2.108-0.637,2.248-1.737
				c0.14-1.1-0.636-2.106-1.738-2.247C21.131,11.183,20.126,11.961,19.985,13.061"/>
			<polygon fill="#FFA3FF" points="23.477,16.704 24.882,20.06 27.087,17.166 			"/>
		</g>
	</g>
</g>
</svg>
