<?xml version="1.0" encoding="utf-8"?>
<!-- Generator: Adobe Illustrator 17.1.0, SVG Export Plug-In . SVG Version: 6.00 Build 0)  -->
<!DOCTYPE svg PUBLIC "-//W3C//DTD SVG 1.1 Tiny//EN" "http://www.w3.org/Graphics/SVG/1.1/DTD/svg11-tiny.dtd">
<svg version="1.1" baseProfile="tiny" id="Layer_1" xmlns="http://www.w3.org/2000/svg" xmlns:xlink="http://www.w3.org/1999/xlink"
	 x="0px" y="0px" viewBox="0 0 60 40" xml:space="preserve">
<g>
	<path fill="#EF4CB0" d="M0-0.002v40.004h8.359V27.221c0-11.953,9.689-21.643,21.643-21.643c11.953,0,21.644,9.69,21.644,21.643
		v12.781h8.359V-0.002H0z"/>
	<path fill="#FF90D4" d="M30.003,5.578c-11.954,0-21.643,9.69-21.643,21.643v12.781h43.287V27.221
		C51.646,15.268,41.956,5.578,30.003,5.578z M14.826,14.823l2.896-0.508c1.722-0.302,3.362,0.849,3.664,2.571
		c-0.302-1.723,0.849-3.363,2.571-3.666l2.896-0.507c1.722-0.303,3.362,0.849,3.665,2.571l-2.709,0.475
		c0.806,0.448,1.417,1.229,1.588,2.208c0.303,1.722-0.849,3.362-2.57,3.665c-1.722,0.302-3.362-0.849-3.664-2.57
		c-0.172-0.979,0.136-1.922,0.741-2.617l-2.517,0.442l-2.749,0.482c0.805,0.448,1.416,1.229,1.588,2.208
		c0.303,1.722-0.849,3.363-2.57,3.665c-1.722,0.302-3.362-0.849-3.664-2.571c-0.172-0.978,0.136-1.921,0.741-2.616l-2.475,0.434
		C11.953,16.766,13.103,15.126,14.826,14.823z M14.156,36.547l-0.992-5.658c-0.548-3.124,1.541-6.102,4.665-6.65l9.173-1.609
		c3.124-0.548,6.101,1.541,6.649,4.666l0.993,5.658L14.156,36.547z"/>
	<path fill="#1D1D1B" d="M13.99,20.67c0.302,1.722,1.943,2.873,3.664,2.571c1.722-0.302,2.873-1.942,2.57-3.665
		c-0.172-0.978-0.782-1.76-1.588-2.208l-3.905,0.685C14.127,18.749,13.818,19.692,13.99,20.67z"/>
	<path fill="#1D1D1B" d="M23.162,19.062c0.302,1.721,1.942,2.872,3.664,2.57c1.722-0.302,2.873-1.943,2.57-3.665
		c-0.171-0.978-0.782-1.76-1.588-2.208l-3.906,0.685C23.298,17.14,22.99,18.083,23.162,19.062z"/>
	<path fill="#007866" d="M18.637,17.369l2.749-0.482c-0.302-1.723-1.942-2.874-3.664-2.571l-2.896,0.508
		c-1.723,0.302-2.873,1.943-2.57,3.665l2.475-0.434L18.637,17.369z"/>
	<path fill="#007866" d="M27.809,15.76l2.709-0.475c-0.303-1.722-1.943-2.874-3.665-2.571l-2.896,0.507
		c-1.723,0.303-2.873,1.943-2.571,3.666l2.517-0.442L27.809,15.76z"/>
	<path fill="#007866" d="M27.002,22.63l-9.173,1.609c-3.124,0.548-5.213,3.526-4.665,6.65l0.992,5.658l20.488-3.594l-0.993-5.658
		C33.103,24.171,30.126,22.082,27.002,22.63z"/>
</g>
</svg>
