<?xml version="1.0" encoding="utf-8"?>
<!-- Generator: Adobe Illustrator 17.1.0, SVG Export Plug-In . SVG Version: 6.00 Build 0)  -->
<!DOCTYPE svg PUBLIC "-//W3C//DTD SVG 1.1 Tiny//EN" "http://www.w3.org/Graphics/SVG/1.1/DTD/svg11-tiny.dtd">
<svg version="1.1" baseProfile="tiny" id="Layer_1" xmlns="http://www.w3.org/2000/svg" xmlns:xlink="http://www.w3.org/1999/xlink"
	 x="0px" y="0px" viewBox="0 0 60 40" xml:space="preserve">
<g>
	<rect x="0" y="0" fill="#5C0079" width="60" height="40"/>
</g>
<g>
	<path fill="#AC0084" d="M37.346,30.268c-0.036-0.019-0.066-0.044-0.103-0.061l-3.159,6.62c0.004,0.002,0.008,0.005,0.013,0.008
		c1.844,0.857,4.036,0.065,4.896-1.77c0.753-1.604,0.24-3.474-1.135-4.492C37.547,30.652,37.357,30.56,37.346,30.268z"/>
	<path fill="#AC0084" d="M53.963,40c-3.161,0-5.723-2.551-5.723-5.697V23.97c0-6.114-0.982-11.666-4.912-15.765
		C39.15,3.847,33.26,1.133,26.733,1.133c-5.972,0-8.414,4.013-8.809,7.734c2.047-1.123,4.342-1.753,6.695-1.82
		c0-0.004-0.001-0.007-0.001-0.011c-0.035-0.556,3.034-4.254,9.908-0.178c2.43,1.441,7.873,4.637,8.553,6.176
		c3.533,7.998-1.657,15.134-4.321,17.058c1.476,1.328,1.996,3.491,1.111,5.379c-1.086,2.316-3.853,3.316-6.178,2.235
		c-0.007-0.003-0.013-0.008-0.02-0.012L32.57,40H53.963C53.963,40,53.963,40,53.963,40z"/>
	<path fill="#FFB500" d="M31.445,31.553c1.087-2.317,3.854-3.317,6.179-2.235c0,0,0,0,0.001,0c2.323-4.87,0.241-10.693-4.65-13.006
		c-0.449-0.213-0.905-0.386-1.366-0.526c-0.007-0.003-0.013-0.003-0.022-0.006c-4.038-1.207-6.716-4.775-6.968-8.734
		c-2.353,0.067-4.648,0.697-6.695,1.82c-2.606,1.43-4.809,3.645-6.183,6.526L0,39.999v0h32.57l1.1-2.305
		C31.358,36.606,30.362,33.862,31.445,31.553z M14.431,14.448c1.183-1.965,3.741-2.6,5.711-1.423
		c1.971,1.179,2.611,3.725,1.428,5.688c-1.184,1.963-3.742,2.598-5.713,1.419C13.887,18.955,13.247,16.41,14.431,14.448z
		 M13.944,32.861c-3.764-2.249-4.938-7.183-2.626-11.02l6.35,1.46l0.464,2.611l2.665-0.741l4.151,4.813
		C22.632,33.82,17.706,35.109,13.944,32.861z M24.877,25.522c-1.973-1.178-2.611-3.724-1.43-5.687
		c1.184-1.962,3.742-2.598,5.714-1.42c1.972,1.177,2.61,3.723,1.427,5.686S26.849,26.699,24.877,25.522z"/>
	<path fill="#FFB500" d="M37.216,30.191c-1.844-0.857-4.036-0.065-4.895,1.77c-0.86,1.83-0.07,4.004,1.763,4.866l3.159-6.62
		C37.233,30.202,37.226,30.195,37.216,30.191z"/>
	<path fill="#1D1D1B" d="M15.858,20.132c1.971,1.179,4.529,0.544,5.713-1.419c1.183-1.963,0.543-4.509-1.428-5.688
		c-1.97-1.177-4.528-0.542-5.711,1.423C13.247,16.41,13.887,18.955,15.858,20.132z"/>
	<path fill="#1D1D1B" d="M29.161,18.414c-1.972-1.178-4.53-0.542-5.714,1.42c-1.181,1.963-0.543,4.509,1.43,5.687
		c1.972,1.178,4.528,0.542,5.711-1.421S31.133,19.592,29.161,18.414z"/>
	<path fill="#FF342B" d="M18.132,25.912l-0.464-2.611l-6.35-1.46c-2.312,3.837-1.138,8.771,2.626,11.02
		c3.762,2.248,8.689,0.959,11.004-2.877l-4.151-4.813L18.132,25.912z M15.306,30.601c-2.827-1.69-4.157-4.91-3.576-7.958
		c1.627,1.719,3.509,3.251,5.644,4.526c2.133,1.276,4.377,2.209,6.666,2.83C21.611,31.942,18.133,32.29,15.306,30.601z"/>
	<path fill="#FFFFFF" d="M11.73,22.643c-0.581,3.048,0.749,6.268,3.576,7.958c2.827,1.689,6.305,1.341,8.734-0.602
		c-2.289-0.621-4.533-1.554-6.666-2.83C15.239,25.894,13.357,24.362,11.73,22.643z"/>
	<path fill="#AC0084" d="M37.858,30.572c-0.157-0.116-0.333-0.212-0.512-0.304C37.357,30.56,37.547,30.652,37.858,30.572z"/>
	<path fill="#AC0084" d="M31.586,15.781c0.009,0.003,0.015,0.003,0.022,0.006c0.461,0.14,0.917,0.313,1.366,0.526
		c4.891,2.313,6.973,8.135,4.65,13.006c0.43,0.2,0.798,0.473,1.133,0.774c2.664-1.924,7.854-9.06,4.321-17.058
		c-0.68-1.539-6.123-4.735-8.553-6.176c-6.874-4.076-9.943-0.378-9.908,0.178c0,0.004,0.001,0.007,0.001,0.011
		C24.871,11.006,27.548,14.574,31.586,15.781z"/>
	<path fill="#40FFD2" d="M37.624,29.319C37.624,29.319,37.624,29.319,37.624,29.319c-2.326-1.082-5.093-0.083-6.179,2.235
		c-1.083,2.309-0.087,5.053,2.225,6.141c0.007,0.003,0.013,0.008,0.02,0.012c2.325,1.081,5.092,0.081,6.178-2.235
		c0.885-1.888,0.365-4.051-1.111-5.379C38.422,29.791,38.055,29.519,37.624,29.319z M38.993,35.065
		c-0.86,1.835-3.052,2.627-4.896,1.77c-0.005-0.002-0.008-0.005-0.013-0.008c-1.833-0.862-2.623-3.037-1.763-4.866
		c0.859-1.835,3.051-2.627,4.895-1.77c0.01,0.005,0.017,0.011,0.027,0.016c0.037,0.018,0.067,0.043,0.103,0.061
		c0.179,0.092,0.355,0.188,0.512,0.304C39.232,31.59,39.746,33.46,38.993,35.065z"/>
</g>
</svg>
