<?xml version="1.0" encoding="utf-8"?>
<!-- Generator: Adobe Illustrator 17.0.0, SVG Export Plug-In . SVG Version: 6.00 Build 0)  -->
<!DOCTYPE svg PUBLIC "-//W3C//DTD SVG 1.1//EN" "http://www.w3.org/Graphics/SVG/1.1/DTD/svg11.dtd">
<svg version="1.1" id="Layer_1" xmlns="http://www.w3.org/2000/svg" xmlns:xlink="http://www.w3.org/1999/xlink" x="0px" y="0px"
	 width="27px" height="8px" viewBox="0 0 27 8" enable-background="new 0 0 27 8" xml:space="preserve">
<g>
	<path fill="#FFFFFF" d="M5.263,0.438H0l3.448,6.741C3.581,7.438,3.754,7.547,4,7.547h4.493c0.209,0,0.333-0.108,0.418-0.296
		l0.616-1.373l0.732-1.632L6.074,0.717C5.815,0.498,5.608,0.438,5.263,0.438z M5.167,3.936C5.165,3.923,5.263,3.891,5.276,3.887
		C5.295,3.882,5.32,3.885,5.339,3.889c0.043,0.01,0.036,0.027,0.049,0.06c0.013,0.036,0.017,0.043,0.009,0.083
		C5.39,4.067,5.38,4.097,5.348,4.115c-0.038,0.03-0.075,0.061-0.113,0.091c-0.037,0.03-0.067,0.065-0.09,0.107
		C5.132,4.337,5.134,4.363,5.124,4.386C5.099,4.442,5.102,4.5,5.095,4.558C5.079,4.685,5.092,4.814,5.075,4.94
		C5.062,5.039,4.954,5.164,4.843,5.156C4.754,5.15,4.754,5.042,4.756,4.976C4.757,4.936,4.764,4.9,4.769,4.861
		c0.004-0.04-0.006-0.068,0.003-0.109C4.778,4.726,4.765,4.698,4.77,4.669c0.003-0.016,0.003-0.027,0.007-0.042
		C4.788,4.578,4.79,4.525,4.794,4.475C4.802,4.361,4.79,4.242,4.822,4.132c0.014-0.05,0.053-0.084,0.094-0.115
		c0.02-0.014,0.078-0.016,0.09-0.034c0.05,0.013,0.123-0.034,0.17-0.045C5.174,3.932,5.171,3.932,5.167,3.936z M3.924,4.654
		c-0.006,0.021-0.017,0.04-0.02,0.062C3.902,4.739,3.909,4.755,3.9,4.778C3.893,4.799,3.888,4.815,3.886,4.838
		c-0.004,0.045-0.02,0.088-0.025,0.133c-0.002,0.016-0.009,0.043,0,0.058c0.008,0.013,0.02,0.02,0.016,0.038
		C3.868,5.118,3.841,5.16,3.831,5.209c-0.005,0.027-0.023,0.097-0.01,0.122C3.835,5.355,3.81,5.411,3.8,5.443
		C3.777,5.517,3.764,5.608,3.76,5.685c-0.006,0.098-0.029,0.19-0.036,0.287C3.715,6.098,3.705,6.236,3.677,6.359
		C3.665,6.41,3.645,6.47,3.597,6.498C3.551,6.526,3.478,6.526,3.441,6.484c-0.054-0.062-0.06-0.169-0.076-0.245
		c-0.022-0.101-0.026-0.205-0.05-0.305C3.306,5.897,3.313,5.834,3.288,5.805C3.28,5.795,3.272,5.742,3.27,5.727
		c-0.003-0.027,0.005-0.05-0.001-0.078C3.264,5.622,3.257,5.597,3.25,5.571C3.228,5.482,3.215,5.38,3.205,5.289
		c-0.01-0.09-0.031-0.177-0.039-0.268C3.157,4.918,3.133,4.819,3.121,4.716C3.112,4.63,3.114,4.535,3.081,4.453
		C3.072,4.43,3.061,4.407,3.061,4.381c0-0.008,0.011-0.035,0.007-0.043C3.059,4.322,3.044,4.345,3.042,4.321
		C3.036,4.244,2.959,4.341,2.966,4.373C2.942,4.353,2.946,4.398,2.947,4.41c0.001,0.02-0.025,0.046-0.033,0.066
		C2.882,4.549,2.87,4.633,2.84,4.709C2.815,4.774,2.788,4.845,2.731,4.89c-0.057,0.045-0.144,0.031-0.18-0.036
		C2.514,4.784,2.566,4.7,2.588,4.633c0.026-0.08,0.045-0.166,0.082-0.242c0.038-0.076,0.058-0.165,0.085-0.245
		c0.047-0.141,0.096-0.282,0.137-0.425C2.926,3.602,3,3.422,3.155,3.51C3.23,3.552,3.237,3.636,3.251,3.713
		c0.016,0.089,0.03,0.179,0.046,0.268c0.02,0.115,0.041,0.22,0.052,0.338c0.005,0.053,0.023,0.103,0.039,0.153
		c0.013,0.04,0.016,0.089,0.032,0.127c0.01,0.025,0.005,0.055,0.012,0.084c0.01,0.043,0.013,0.086,0.027,0.128
		C3.473,4.856,3.444,4.899,3.459,4.94c0.013,0.035,0.037,0.086,0.028,0.123C3.479,5.099,3.496,5.13,3.494,5.167
		C3.493,5.199,3.517,5.218,3.508,5.254C3.501,5.287,3.541,5.293,3.55,5.256c0.007-0.028,0.008-0.056,0.009-0.084
		C3.562,5.09,3.575,5.008,3.59,4.929c0.042-0.216,0.071-0.435,0.115-0.651c0.083-0.414,0.206-0.816,0.31-1.223
		c0.023-0.09,0.064-0.173,0.092-0.262c0.033-0.105,0.073-0.207,0.111-0.31c0.079-0.215,0.157-0.43,0.239-0.643
		c0.056-0.146,0.134-0.345,0.318-0.357c0.157-0.01,0.279,0.163,0.233,0.309c-0.012,0.039-0.041,0.066-0.061,0.1
		C4.942,1.901,4.944,1.913,4.941,1.924C4.935,1.945,4.925,1.938,4.91,1.951C4.849,2.003,4.787,2.06,4.743,2.128
		C4.65,2.274,4.597,2.435,4.521,2.591C4.499,2.635,4.497,2.686,4.476,2.732c-0.017,0.037-0.043,0.071-0.053,0.11
		C4.399,2.93,4.355,3.013,4.329,3.101C4.314,3.154,4.315,3.208,4.287,3.259C4.278,3.275,4.287,3.294,4.28,3.311
		c-0.011,0.01-0.017,0.03-0.021,0.044C4.234,3.438,4.201,3.523,4.196,3.611C4.193,3.663,4.184,3.683,4.157,3.725
		C4.137,3.755,4.135,3.797,4.12,3.83C4.081,3.917,4.056,4.012,4.03,4.103C4.016,4.15,4.011,4.2,4.002,4.247
		C3.994,4.288,3.979,4.326,3.979,4.368c0,0.044-0.013,0.065-0.028,0.104C3.938,4.507,3.95,4.546,3.941,4.581
		c0.004-0.005,0.006-0.005-0.004,0.016C3.917,4.613,3.93,4.634,3.924,4.654z M4.556,4.42c0.016,0.042-0.019,0.108-0.018,0.152
		C4.539,4.619,4.527,4.672,4.522,4.72C4.516,4.78,4.506,4.837,4.498,4.897C4.491,4.953,4.488,5.01,4.481,5.066
		C4.474,5.119,4.479,5.177,4.466,5.228c-0.009,0.034-0.021,0.071-0.02,0.106c0,0.018,0.011-0.001,0.02,0.004
		c0.011,0.006-0.013,0.05-0.021,0.02c-0.006,0.005-0.003,0.02-0.011,0.023C4.416,5.388,4.412,5.384,4.396,5.402
		C4.372,5.429,4.32,5.458,4.287,5.473c-0.113,0.049-0.11-0.1-0.113-0.163C4.168,5.167,4.2,5.017,4.196,4.878
		C4.195,4.842,4.204,4.804,4.209,4.767c0.005-0.034-0.001-0.062-0.001-0.094c0-0.072,0.008-0.172,0.036-0.236
		C4.283,4.348,4.338,4.27,4.435,4.241c0.032-0.01,0.077-0.011,0.096,0.022c0.009,0.016,0.01,0.089,0.034,0.088
		c0,0.002-0.001,0.003-0.003,0.004C4.558,4.358,4.543,4.358,4.542,4.37C4.54,4.389,4.55,4.404,4.556,4.42z M4.48,3.868
		C4.464,3.87,4.402,3.876,4.4,3.849C4.399,3.832,4.378,3.816,4.377,3.793C4.375,3.768,4.383,3.743,4.392,3.72
		c0.025-0.063,0.064-0.081,0.112-0.122c0.029-0.025,0.103-0.073,0.143-0.046c0.022,0.015,0.058,0.078,0.042,0.104
		c-0.001,0.002,0.012-0.021,0,0C4.677,3.677,4.675,3.708,4.663,3.728C4.643,3.761,4.615,3.78,4.586,3.803
		C4.555,3.828,4.521,3.862,4.48,3.868z M6.944,2.587C6.98,2.582,7.009,2.576,7.046,2.581c0.048,0.007,0.051,0.077,0.037,0.112
		C7.062,2.751,6.994,2.828,6.942,2.86C6.918,2.875,6.892,2.863,6.866,2.865C6.825,2.867,6.8,2.824,6.787,2.792
		c0.016,0.04-0.028-0.066,0,0C6.757,2.719,6.874,2.594,6.944,2.587z M6.616,4.033c0.002-0.071,0.02-0.139,0.021-0.212
		c0.003-0.12,0.025-0.228,0.033-0.344C6.676,3.41,6.683,3.324,6.719,3.268C6.75,3.22,6.77,3.175,6.827,3.151
		c0.023-0.01,0.055-0.011,0.08-0.009c0.05,0.005,0.017,0.041,0.038,0.064C6.947,3.202,6.95,3.201,6.954,3.203
		c0,0.007,0,0.014,0,0.022c0.025,0.002-0.002,0.034-0.001,0.052c0.004,0.04,0,0.078-0.019,0.117c0.005,0.001,0.01,0.002,0.015,0.001
		c0,0.001-0.004,0.012-0.004,0.013C6.93,3.417,6.933,3.421,6.935,3.449c0.001,0.016,0.01,0.048-0.002,0.061
		C6.931,3.511,6.931,3.555,6.932,3.562C6.934,3.572,6.93,3.64,6.931,3.641C6.934,3.64,6.937,3.638,6.938,3.636
		C6.936,3.635,6.943,3.724,6.936,3.731C6.927,3.742,6.915,3.753,6.918,3.769c0.001,0.007,0.024,0.054,0.017,0.057
		C6.928,3.83,6.923,3.812,6.92,3.812c-0.01,0,0.017,0.038,0.015,0.041C6.93,3.86,6.915,3.828,6.909,3.855
		c-0.006,0.026-0.002,0.055,0,0.081C6.91,3.96,6.908,3.981,6.907,4.005C6.905,4.044,6.92,4.093,6.901,4.129
		C6.86,4.214,6.672,4.346,6.61,4.219c0.007,0.015,0.019,0.04-0.001-0.002c-0.005-0.01-0.003-0.008,0-0.002
		C6.585,4.161,6.615,4.089,6.616,4.033z M6.122,3.618c0.005-0.097,0.035-0.185,0.137-0.213c0.1-0.027,0.161,0.04,0.16,0.135
		C6.417,3.705,6.391,3.867,6.381,4.032C6.367,4.262,6.344,4.487,6.345,4.719c0.02,0.017,0.198-0.118,0.219-0.132
		c0.118-0.078,0.238-0.154,0.359-0.228c0.184-0.086,0.35-0.206,0.531-0.297c0.091-0.047,0.178-0.101,0.267-0.152
		C7.747,3.896,7.917,3.821,7.864,3.79c-0.07-0.042-0.06-0.15-0.054-0.217c0.008-0.09,0.003-0.18,0.004-0.269
		C7.816,3.22,7.899,2.934,7.725,2.982C7.689,2.992,7.663,3.015,7.636,3.04C7.611,3.063,7.604,3.103,7.563,3.108
		C7.552,3.133,7.568,3.13,7.54,3.156C7.548,3.178,7.523,3.227,7.518,3.25C7.514,3.266,7.524,3.28,7.508,3.288
		C7.494,3.296,7.494,3.301,7.506,3.315c0.021,0.024-0.023,0.018-0.016,0.04c0.011,0.037,0.004,0.043-0.01,0.076
		c-0.013,0.03,0.015,0.05,0.017,0.079c0-0.001-0.025-0.004-0.025-0.004C7.467,3.543,7.455,3.601,7.467,3.637
		c0.004,0.011,0.016,0.027,0.008,0.039C7.47,3.687,7.461,3.701,7.466,3.713C7.473,3.728,7.487,3.732,7.479,3.75
		c-0.005,0.011-0.02,0.026-0.016,0.039C7.468,3.807,7.464,3.822,7.466,3.84c0.002,0.015-0.019,0.022-0.022,0.035
		C7.437,3.906,7.438,3.915,7.41,3.94C7.391,3.957,7.373,3.973,7.35,3.984C7.304,4.008,7.233,4.025,7.19,3.987
		c-0.057-0.05-0.03-0.176-0.025-0.242c0.009-0.113,0.011-0.226,0.018-0.34c0.009-0.157-0.021-0.404,0.152-0.484
		c0.065-0.03,0.141-0.034,0.21-0.02C7.61,2.928,7.676,2.845,7.711,2.804c0.073-0.086,0.292-0.23,0.374-0.072
		c0.016,0.03,0.019,0.065,0.026,0.098c0.004,0.018,0.009,0.035,0.017,0.052C8.118,2.89,8.106,2.9,8.105,2.915
		C8.104,2.931,8.139,3.042,8.124,3.052c-0.03,0.02-0.014,0.04-0.017,0.076C8.104,3.163,8.084,3.227,8.105,3.258
		c0.012,0.018,0,0.021-0.004,0.04C8.097,3.319,8.114,3.341,8.113,3.363c-0.002,0.035,0.01,0.098-0.008,0.129
		C8.104,3.516,8.136,3.544,8.122,3.559C8.107,3.576,8.15,3.612,8.161,3.627C8.2,3.682,8.352,3.58,8.389,3.56
		c0.077-0.042,0.167-0.1,0.259-0.094C8.74,3.473,8.762,3.497,8.8,3.581C8.796,3.656,8.726,3.738,8.667,3.776
		c-0.079,0.051-0.172,0.081-0.261,0.11c-0.2,0.063-0.38,0.144-0.565,0.242C7.655,4.226,7.465,4.316,7.285,4.424
		c-0.166,0.1-0.331,0.199-0.5,0.295C6.713,4.759,6.652,4.814,6.579,4.854C6.537,4.878,6.494,4.906,6.457,4.938
		C6.426,4.964,6.38,4.992,6.354,5.021C6.305,5.077,6.356,5.155,6.327,5.213C6.318,5.231,6.326,5.225,6.333,5.237
		C6.34,5.251,6.327,5.27,6.324,5.281c-0.01,0.033-0.002,0.099-0.001,0.135C6.323,5.448,6.329,5.478,6.327,5.51
		C6.326,5.542,6.309,5.577,6.324,5.608C6.33,5.65,6.312,5.69,6.314,5.732C6.316,5.776,6.32,5.817,6.319,5.861
		c0,0.021,0.001,0.043,0.01,0.062c-0.007,0.008-0.02,0.014-0.024,0.024C6.293,5.976,6.322,5.977,6.324,5.994
		C6.32,6.001,6.314,6.003,6.305,6.002c0.012,0.02,0.024,0.046,0.012,0.067C6.308,6.084,6.298,6.099,6.312,6.116
		C6.306,6.132,6.337,6.145,6.329,6.159C6.324,6.171,6.314,6.18,6.309,6.191C6.301,6.213,6.335,6.218,6.315,6.237
		C6.301,6.25,6.314,6.26,6.323,6.27C6.34,6.289,6.315,6.29,6.318,6.312C6.323,6.356,6.351,6.394,6.35,6.438
		C6.349,6.482,6.315,6.517,6.356,6.545c0.021,0.015,0.045,0.129-0.003,0.115C6.376,6.666,6.352,6.696,6.354,6.71
		c0.004,0.024,0.051,0.019,0.052,0.052c0.001,0.016-0.014,0.026-0.027,0.031c0.005,0.015,0.01,0.03,0.017,0.044
		c0.009,0.019,0.029,0.044,0.016,0.069C6.407,6.914,6.398,6.917,6.4,6.928c0.007,0.028-0.005,0.016-0.017,0.044
		C6.368,7.011,6.328,7.038,6.291,7.053C6.203,7.086,6.106,7.045,6.063,6.964C6.018,6.882,6.032,6.778,6.035,6.688
		c0.004-0.117,0.012-0.234,0.013-0.351C6.05,6.151,6.061,5.961,6.053,5.774C6.051,5.666,6.051,5.558,6.052,5.45
		c0.001-0.054,0.002-0.108,0.004-0.163c0.001-0.018,0.016-0.065-0.015-0.053C5.954,5.266,5.874,5.35,5.803,5.408
		C5.575,5.596,5.348,5.785,5.114,5.966c-0.074,0.058-0.14,0.123-0.205,0.19c-0.071,0.072-0.154,0.132-0.22,0.207
		C4.626,6.434,4.562,6.501,4.497,6.57C4.429,6.642,4.365,6.73,4.286,6.792C4.256,6.815,4.226,6.84,4.2,6.868
		C4.176,6.895,4.117,6.9,4.082,6.894C4.004,6.882,3.932,6.809,3.94,6.727c0.007-0.077,0.072-0.139,0.123-0.19
		c0.076-0.077,0.151-0.153,0.23-0.225c0.308-0.279,0.628-0.544,0.952-0.803c0.166-0.133,0.343-0.25,0.513-0.377
		c0.087-0.065,0.171-0.132,0.26-0.194c0.052-0.036,0.044-0.112,0.04-0.169C6.055,4.723,5.972,4.785,5.953,4.804
		c-0.016,0.016-0.079,0.034-0.1,0.038c-0.049,0.011-0.109,0.025-0.16,0.021C5.645,4.859,5.542,4.821,5.525,4.768
		C5.51,4.721,5.488,4.675,5.491,4.625c0.002-0.048,0.008-0.095,0.008-0.143c0-0.042-0.014-0.083-0.012-0.125
		C5.488,4.308,5.499,4.26,5.501,4.211C5.505,4.117,5.518,4.017,5.56,3.932c0.057-0.154,0.162-0.298,0.32-0.359
		c0.071-0.027,0.15-0.015,0.132,0.077C5.998,3.721,5.948,3.757,5.911,3.815c-0.002,0.018-0.021,0.03-0.03,0.043
		c-0.012,0.018-0.02,0.039-0.027,0.059C5.842,3.954,5.823,3.984,5.815,4.022C5.81,4.053,5.792,4.082,5.789,4.113
		C5.785,4.154,5.792,4.195,5.787,4.237C5.779,4.321,5.735,4.482,5.812,4.545C5.86,4.584,5.938,4.554,5.977,4.517
		c0.051-0.049,0.08-0.124,0.083-0.193C6.066,4.206,6.1,4.091,6.101,3.972C6.101,3.854,6.115,3.736,6.122,3.618z"/>
	<rect x="21.657" y="4.741" fill="#FFFFFF" width="0.246" height="2.562"/>
	<rect x="21.657" y="4.098" fill="#FFFFFF" width="0.246" height="0.299"/>
	<path fill="#FFFFFF" d="M15.968,4.68c-0.482,0-0.758,0.266-0.924,0.552C14.903,4.937,14.627,4.68,14.18,4.68
		c-0.457,0-0.688,0.251-0.854,0.517V4.741H13.08v2.562h0.246V5.826c0-0.517,0.362-0.919,0.819-0.919s0.748,0.326,0.748,0.859v1.537
		h0.246V5.811c0-0.573,0.377-0.904,0.809-0.904c0.472,0,0.758,0.321,0.758,0.874v1.522h0.246V5.75
		C16.952,5.107,16.576,4.68,15.968,4.68z"/>
	<path fill="#FFFFFF" d="M18.454,4.68c-0.693,0-1.216,0.593-1.216,1.336v0.01c0,0.799,0.583,1.336,1.256,1.336
		c0.492,0,0.799-0.201,1.06-0.482L19.383,6.73c-0.211,0.226-0.482,0.402-0.879,0.402c-0.502,0-0.959-0.372-1.005-1.01h2.125
		c0.005-0.04,0.005-0.055,0.005-0.1C19.629,5.263,19.172,4.68,18.454,4.68z M17.499,5.901c0.045-0.568,0.437-0.995,0.944-0.995
		c0.588,0,0.884,0.477,0.919,0.995H17.499z"/>
	<path fill="#FFFFFF" d="M20.166,5.469V4.741H19.92v2.562h0.246v-1.05c0-0.834,0.517-1.281,1.11-1.281h0.025V4.701
		C20.794,4.68,20.367,5.012,20.166,5.469z"/>
	<path fill="#FFFFFF" d="M23.575,7.132c-0.588,0-1.055-0.492-1.055-1.11v-0.01c0-0.613,0.452-1.1,1.035-1.1
		c0.382,0,0.633,0.196,0.854,0.422l0.176-0.181C24.344,4.901,24.042,4.68,23.56,4.68c-0.733,0-1.306,0.623-1.306,1.341v0.01
		c0,0.718,0.568,1.331,1.306,1.331c0.472,0,0.784-0.211,1.045-0.507l-0.171-0.151C24.218,6.946,23.937,7.132,23.575,7.132z"/>
	<path fill="#FFFFFF" d="M26.739,4.982c-0.186-0.186-0.462-0.281-0.809-0.281c-0.352,0-0.628,0.09-0.909,0.221l0.09,0.216
		c0.236-0.121,0.492-0.206,0.804-0.206c0.527,0,0.844,0.266,0.844,0.784H25.91c-0.663,0-1.12,0.301-1.12,0.834v0.01
		c0,0.532,0.512,0.804,0.989,0.804c0.487,0,0.804-0.241,0.979-0.487v0.427H27V5.705C27,5.389,26.91,5.153,26.739,4.982z
		 M26.764,6.343c0,0.467-0.447,0.789-0.969,0.789c-0.392,0-0.743-0.216-0.743-0.588v-0.01c0-0.357,0.301-0.598,0.844-0.598h0.869
		L26.764,6.343L26.764,6.343z"/>
	<path fill="#FFFFFF" d="M11.652,4.701c-0.352,0-0.628,0.09-0.909,0.221l0.09,0.216c0.236-0.121,0.492-0.206,0.804-0.206
		c0.527,0,0.844,0.266,0.844,0.784h-0.849c-0.663,0-1.12,0.301-1.12,0.834v0.01c0,0.532,0.512,0.804,0.989,0.804
		c0.487,0,0.804-0.241,0.979-0.487v0.427h0.241V5.705c0-0.316-0.09-0.552-0.261-0.723C12.275,4.796,11.999,4.701,11.652,4.701z
		 M12.486,6.343c0,0.467-0.447,0.789-0.969,0.789c-0.392,0-0.743-0.216-0.743-0.588v-0.01c0-0.357,0.301-0.598,0.844-0.598h0.869
		L12.486,6.343L12.486,6.343z"/>
</g>
</svg>
