<?xml version="1.0" encoding="utf-8"?>
<!-- Generator: Adobe Illustrator 17.0.2, SVG Export Plug-In . SVG Version: 6.00 Build 0)  -->
<!DOCTYPE svg PUBLIC "-//W3C//DTD SVG 1.1 Tiny//EN" "http://www.w3.org/Graphics/SVG/1.1/DTD/svg11-tiny.dtd">
<svg version="1.1" baseProfile="tiny" id="Layer_1" xmlns="http://www.w3.org/2000/svg" xmlns:xlink="http://www.w3.org/1999/xlink"
	 x="0px" y="0px" width="300px" height="245px" viewBox="0 0 300 245" xml:space="preserve">
<g>
	<path fill-rule="evenodd" fill="#CECECE" d="M4.469,101.355L230.812,0.659c3.811-1.695,8.287-0.007,9.997,3.771l58.525,129.303
		c1.71,3.778,0.007,8.216-3.804,9.911L69.188,244.341c-3.811,1.695-8.287,0.007-9.997-3.771L0.665,111.266
		C-1.045,107.488,0.658,103.05,4.469,101.355z"/>
	<path fill="#4186C7" d="M175.577,49.19L71.982,95.292l46.664,103.089l103.595-46.102l-15.4-34.022
		c0.145-0.773,0.006-1.618-0.411-2.541c-0.478-1.056-0.977-1.619-1.638-1.987"/>
	<path fill="#FFFFFF" d="M101.512,135.745l-4.173-3.928l0.198,5.697 M144.548,114.289c-0.291,0.419-0.761,0.638-1.328,0.89
		l-3.537,1.574l-1.214-2.683l3.585-1.596c0.507-0.226,1.047-0.439,1.479-0.397c0.458,0.008,0.861,0.278,1.095,0.796
		C144.867,113.402,144.837,113.926,144.548,114.289z M170.65,104.977l-4.195-3.918l0.176,5.707L170.65,104.977z M125.971,131.122
		l-2.985,1.328l-4.293-9.455l0.06,11.339l-2.557,1.138l-8.519-7.585l4.286,9.468l-5.922,2.636l-2.338-2.196l-6.063,2.698
		l0.089,3.197l-3.163,1.407l-0.253-14.399l4.326-1.925l10.129,9.232l-5.177-11.436l4.752-2.115l7.52,6.498l-0.208-9.752l4.848-2.157
		L125.971,131.122L125.971,131.122z M137.868,125.827l-9.727,4.329l-5.468-12.079l9.727-4.329l1.139,2.515l-6.815,3.033l0.985,2.177
		l6.651-2.96l1.121,2.476l-6.651,2.96l1.092,2.412l6.815-3.033L137.868,125.827z M147.588,110.898
		c0.872,1.926,0.026,3.498-0.594,4.133c0.746-0.043,1.483,0.139,1.901,0.376c0.683,0.418,0.997,0.923,1.485,2.002l1.074,2.373
		l-2.937,1.307l-0.701-1.518c-0.329-0.727-0.732-1.803-1.525-2.149c-0.617-0.236-1.308-0.039-2.356,0.427l-3.126,1.391l1.989,4.393
		l-2.912,1.296l-5.468-12.079l6.697-2.98c1.488-0.662,2.602-1.111,3.788-0.991C146.069,109.009,146.978,109.551,147.588,110.898z
		 M156.243,117.65l-2.971,1.322l-5.468-12.079l2.971-1.322L156.243,117.65z M190.71,102.311l-4.126,1.836l-9.623-6.609l4.104,9.066
		l-5.93,2.639l-2.353-2.19l-6.049,2.692l0.12,3.183l-3.407,1.516c-1.415,0.63-3.348,1.117-4.827,0.543
		c-1.488-0.57-2.649-1.722-3.643-3.919c-0.811-1.791-1.234-3.571-0.568-5.422c0.505-1.383,1.778-2.483,3.784-3.376l2.819-1.255
		l1.172,2.588l-2.76,1.228c-1.062,0.473-1.591,0.897-1.916,1.713c-0.266,0.73-0.172,1.842,0.401,3.108
		c0.586,1.294,1.268,2.112,2.085,2.48c0.665,0.279,1.545,0.061,2.311-0.28l1.308-0.582l-0.196-11.325l4.363-1.942l10.101,9.231
		l-5.172-11.425l4.433-1.973l8.926,6.135l-3.808-8.412l2.982-1.327L190.71,102.311L190.71,102.311z M95.607,147.485l4.975-2.214
		l-0.093-3.182l2.511-1.118l2.333,2.185l9.789-4.356l-0.929-2.051l1.806,1.671l5.082-2.261l-0.073-2.479l0.942,2.082l24.327-10.826
		l-2.005-4.399l0.471-0.209c0.335-0.135,0.445-0.148,0.689,0.392l1.73,3.823l12.582-5.599l-0.464-1.025
		c1.259,0.088,3.057-0.129,5.134-1.053l5.293-2.355l-0.082-3.187l2.511-1.118l2.322,2.19l10.2-4.539l-1.154-2.549l2.698,1.861
		l8.174-3.638l-7.626-16.846l-8.09,3.6l0.901,1.99l-2.033-1.485l-8.301,3.694l0.901,1.99l-1.941-1.527l-11.212,4.99
		c-1.877,0.835-3.409,1.829-4.414,3.146l-0.445-0.984l-7.738,3.443l0.445,0.984c-1.186-0.369-2.449-0.092-3.734,0.48l-28.267,12.58
		l0.073,5.195l-3.917-3.484l-8.904,3.962l0.901,1.99l-1.879-1.554l-7.593,3.379l0.099,9.579L95.607,147.485L95.607,147.485z"/>
	<path fill="#FFFFFF" d="M203.235,110.292l-5.307,2.362c-0.53,0.236-0.873,0.412-1.08,0.743c-0.219,0.332-0.206,0.675-0.032,1.059
		c0.206,0.456,0.606,0.65,1.044,0.617c0.355-0.031,0.699-0.147,1.184-0.363l1.597-0.66c1.61-0.669,2.796-0.872,3.744-0.497
		c0.16,0.039,0.277,0.112,0.405,0.179 M206.841,118.257c-0.243,1.34-1.386,2.473-3.252,3.304l-5.623,2.503l-1.173-2.59l5.6-2.492
		c0.555-0.247,0.912-0.493,1.043-0.824c0.118-0.277,0.137-0.612-0.012-0.941c-0.159-0.352-0.427-0.568-0.718-0.641
		c-0.294-0.09-0.64-0.038-1.147,0.188c-2.775,1.125-6.107,2.819-7.837-1.005c-0.793-1.753-0.506-4.096,2.55-5.456l5.8-2.581
		l-1.088-2.404l-5.389,2.398c-1.626,0.724-2.633,1.636-3.198,2.608l-0.447-0.987l-7.971,3.547c-1.275,0.567-2.629,1.546-3.032,2.535
		l-0.447-0.987l-14.234,6.334l0.447,0.987c-1.499-0.306-3.491,0.368-4.373,0.761l-9.388,4.178l0.447,0.987
		c-1.286-0.462-3.336,0.299-4.551,0.84l-10.507,4.676l-1.236,3.65l-3.42-1.578l-15.696,6.985l7.631,16.857l15.4-6.854l1.291-3.723
		l3.52,1.582l9.497-4.216l-1.795-3.966l0.933-0.415c1.268-0.541,2.731-1.253,3.787-2.398l2.059,4.55l7.83-3.484l-1.989-4.394
		l0.378-0.168c0.482-0.214,0.539-0.216,0.755,0.262l1.763,3.896l23.786-10.585c1.51-0.672,2.915-1.758,3.474-2.842l0.488,1.079
		l7.545-3.358c1.57-0.699,3.005-1.599,3.918-2.677L206.841,118.257L206.841,118.257z M193.041,118.6
		c0.83,0.329,1.467,0.928,2.029,2.172c1.176,2.599,0.088,4.541-2.849,5.848l-5.671,2.524l-1.173-2.59l5.649-2.514
		c0.552-0.246,0.911-0.493,1.053-0.829c0.116-0.276,0.137-0.611-0.012-0.941c-0.159-0.352-0.441-0.562-0.717-0.641
		c-0.306-0.085-0.651-0.032-1.158,0.193c-2.765,1.12-6.095,2.813-7.826-1.01c-0.793-1.753-0.518-4.091,2.535-5.45l5.838-2.598
		l1.164,2.572l-5.341,2.377c-0.53,0.236-0.865,0.408-1.068,0.737c-0.23,0.337-0.217,0.68-0.044,1.064
		c0.206,0.456,0.617,0.645,1.045,0.617c0.355-0.031,0.699-0.147,1.195-0.368l1.586-0.656
		C190.874,118.443,192.082,118.231,193.041,118.6z M166.429,129.546c-0.286,0.403-0.758,0.637-1.325,0.889l-3.537,1.574
		l-1.228-2.714l3.585-1.596c0.518-0.231,1.042-0.451,1.488-0.4c0.466,0.028,0.861,0.302,1.095,0.818
		C166.741,128.635,166.704,129.152,166.429,129.546z M168.868,130.267c0.755-0.051,1.478,0.138,1.885,0.38
		c0.678,0.407,0.987,0.931,1.481,1.991l1.084,2.395l-2.923,1.301l-0.684-1.512c-0.329-0.726-0.746-1.834-1.541-2.155
		c-0.622-0.244-1.317-0.059-2.379,0.414l-3.112,1.385l1.997,4.413l-2.926,1.302l-5.469-12.082l6.722-2.992
		c1.474-0.656,2.577-1.069,3.762-0.989c1.168,0.141,2.087,0.638,2.711,2.016C170.35,128.063,169.498,129.624,168.868,130.267z
		 M169.619,122.163l9.718-4.325l1.131,2.499l-6.819,3.034l0.994,2.197l6.652-2.96l1.116,2.465l-6.652,2.96l1.088,2.404l6.824-3.023
		l1.135,2.507l-9.718,4.325L169.619,122.163z M152.498,136.481l-3.763,1.675l-1.393-3.076l3.797-1.69
		c1.051-0.468,1.973-0.368,2.451,0.689C154.063,135.123,153.616,135.983,152.498,136.481z M148.282,144.853l-6.698-2.932
		l2.314-6.754L148.282,144.853z M136.095,148.572l-7.159,3.186l-1.088-2.404l6.392-2.845l-1.116-2.465l-6.392,2.845l-0.994-2.197
		l7.3-3.249l4.779,2.103L136.095,148.572z M156.716,132.687c1.519,3.356-0.692,5.173-3.238,6.306l-3.633,1.617l1.834,4.052
		l-5.66,2.519l-5.396-2.404l-1.916,5.657l-11.534,5.133l-5.469-12.082l11.711-5.212l5.375,2.366l1.911-5.608l9.304-4.141
		C152.318,129.862,155.202,129.341,156.716,132.687z"/>
</g>
</svg>
