<?xml version="1.0" encoding="utf-8"?>
<!-- Generator: Adobe Illustrator 17.1.0, SVG Export Plug-In . SVG Version: 6.00 Build 0)  -->
<!DOCTYPE svg PUBLIC "-//W3C//DTD SVG 1.1 Tiny//EN" "http://www.w3.org/Graphics/SVG/1.1/DTD/svg11-tiny.dtd">
<svg version="1.1" baseProfile="tiny" id="Layer_1" xmlns="http://www.w3.org/2000/svg" xmlns:xlink="http://www.w3.org/1999/xlink"
	 x="0px" y="0px" viewBox="0 0 60 40" xml:space="preserve">
<g>
	<path fill="#F47400" d="M0-0.004V40h10.206L8.365,28.136C6.531,16.324,14.62,5.264,26.433,3.43
		c11.811-1.833,22.873,6.257,24.706,18.069L54.01,40h5.996V-0.004H0z"/>
	<path fill="#FFB500" d="M26.433,3.43C14.62,5.264,6.531,16.324,8.365,28.136L10.206,40H54.01l-2.871-18.502
		C49.306,9.687,38.244,1.597,26.433,3.43z M14.306,15.086l-1.53-0.878c0.972-1.694,2.545-2.908,4.43-3.418
		c1.885-0.511,3.855-0.257,5.549,0.715l-0.878,1.53c-1.285-0.737-2.78-0.93-4.21-0.542C16.236,12.88,15.043,13.8,14.306,15.086z
		 M19.002,14.682c1.746-0.063,3.215,1.3,3.279,3.048c0.063,1.747-1.301,3.215-3.048,3.279c-1.747,0.063-3.215-1.301-3.278-3.047
		C15.89,16.214,17.255,14.747,19.002,14.682z M25.549,37.18c-4.809,0.176-8.849-3.58-9.026-8.389
		c-0.035-0.955,0.09-1.878,0.343-2.748l-0.004,0c0.016-0.055,0.041-0.107,0.058-0.162c0.076-0.244,0.16-0.483,0.256-0.717
		c0.04-0.096,0.083-0.189,0.126-0.284c0.092-0.202,0.19-0.399,0.296-0.593c0.053-0.097,0.107-0.193,0.164-0.288
		c0.114-0.19,0.237-0.374,0.365-0.555c0.058-0.082,0.113-0.167,0.174-0.247c0.192-0.252,0.394-0.496,0.612-0.726l12.179-0.445
		c0.236,0.215,0.456,0.445,0.668,0.684c0.061,0.069,0.117,0.143,0.176,0.214c0.148,0.178,0.29,0.361,0.423,0.551
		c0.058,0.083,0.114,0.168,0.169,0.253c0.128,0.196,0.247,0.397,0.359,0.603c0.043,0.079,0.087,0.157,0.128,0.238
		c0.125,0.25,0.238,0.506,0.34,0.769c0.013,0.034,0.031,0.065,0.044,0.099l-0.003,0c0.316,0.849,0.508,1.76,0.543,2.715
		C34.113,32.964,30.357,37.004,25.549,37.18z M27.44,17.542c-0.063-1.748,1.301-3.215,3.048-3.279
		c1.747-0.064,3.215,1.3,3.279,3.047c0.062,1.747-1.301,3.215-3.048,3.279C28.973,20.652,27.505,19.288,27.44,17.542z
		 M35.201,14.321c-1.712-2.534-5.167-3.204-7.701-1.493l-0.987-1.462c3.341-2.255,7.896-1.372,10.15,1.969L35.201,14.321z"/>
	<circle fill="#1D1D1B" cx="19.118" cy="17.845" r="3.166"/>
	<circle fill="#1D1D1B" cx="30.604" cy="17.426" r="3.166"/>
	<path fill="#1D1D1B" d="M26.513,11.366l0.987,1.462c2.534-1.711,5.989-1.042,7.701,1.493l1.462-0.986
		C34.408,9.994,29.853,9.111,26.513,11.366z"/>
	<path fill="#1D1D1B" d="M21.877,13.034l0.878-1.53c-1.693-0.972-3.664-1.226-5.549-0.715c-1.885,0.51-3.458,1.725-4.43,3.418
		l1.53,0.878c0.737-1.286,1.93-2.206,3.36-2.594C19.097,12.104,20.592,12.297,21.877,13.034z"/>
	<path fill="#FF342B" d="M16.919,25.882c0.076-0.243,0.16-0.483,0.256-0.717C17.079,25.399,16.995,25.639,16.919,25.882z"/>
	<path fill="#FF342B" d="M31.092,22.029c0.236,0.214,0.457,0.445,0.668,0.684C31.548,22.474,31.327,22.243,31.092,22.029z"/>
	<path fill="#FF342B" d="M17.302,24.881c0.091-0.202,0.19-0.399,0.296-0.593C17.492,24.482,17.393,24.68,17.302,24.881z"/>
	<path fill="#FF342B" d="M17.762,24.001c0.114-0.19,0.237-0.374,0.365-0.555C17.999,23.627,17.876,23.811,17.762,24.001z"/>
	<path fill="#FF342B" d="M18.301,23.2c0.192-0.252,0.394-0.496,0.612-0.726C18.695,22.703,18.493,22.947,18.301,23.2z"/>
	<path fill="#FF342B" d="M16.866,26.044c-0.253,0.87-0.378,1.793-0.343,2.748c0.177,4.809,4.217,8.565,9.026,8.389
		c4.809-0.176,8.565-4.216,8.389-9.025c-0.035-0.955-0.227-1.866-0.543-2.715L16.866,26.044z"/>
	<path fill="#FF342B" d="M31.935,22.926c0.147,0.178,0.29,0.361,0.423,0.551C32.225,23.287,32.083,23.104,31.935,22.926z"/>
	<path fill="#FF342B" d="M33.014,24.571c0.125,0.25,0.238,0.506,0.34,0.769C33.252,25.077,33.139,24.821,33.014,24.571z"/>
	<path fill="#FF342B" d="M32.527,23.73c0.127,0.196,0.247,0.397,0.359,0.603C32.774,24.127,32.655,23.926,32.527,23.73z"/>
	<path fill="#F5F5F0" d="M33.397,25.439c-0.013-0.034-0.031-0.066-0.044-0.099c-0.101-0.263-0.214-0.519-0.34-0.769
		c-0.041-0.081-0.085-0.159-0.128-0.238c-0.112-0.206-0.231-0.408-0.359-0.603c-0.055-0.085-0.111-0.17-0.169-0.253
		c-0.133-0.19-0.276-0.372-0.423-0.551c-0.059-0.071-0.115-0.145-0.176-0.214c-0.211-0.239-0.432-0.469-0.668-0.684l-12.179,0.445
		c-0.218,0.23-0.42,0.474-0.612,0.726c-0.061,0.08-0.116,0.164-0.174,0.247c-0.128,0.181-0.251,0.365-0.365,0.555
		c-0.057,0.095-0.11,0.191-0.164,0.288c-0.106,0.193-0.204,0.391-0.296,0.593c-0.043,0.094-0.087,0.188-0.126,0.284
		c-0.096,0.234-0.18,0.474-0.256,0.717c-0.017,0.055-0.042,0.107-0.058,0.162l0.004,0l16.529-0.604L33.397,25.439z"/>
</g>
</svg>
