<?xml version="1.0" encoding="utf-8"?>
<!-- Generator: Adobe Illustrator 17.0.0, SVG Export Plug-In . SVG Version: 6.00 Build 0)  -->
<!DOCTYPE svg PUBLIC "-//W3C//DTD SVG 1.1//EN" "http://www.w3.org/Graphics/SVG/1.1/DTD/svg11.dtd">
<svg version="1.1" id="Layer_1" xmlns="http://www.w3.org/2000/svg" xmlns:xlink="http://www.w3.org/1999/xlink" x="0px" y="0px"
	 width="38px" height="38px" viewBox="0 0 38 38" enable-background="new 0 0 38 38" xml:space="preserve">
<path fill="#7B4397" d="M33.25,4.75h-2.375v3.562c0,1.549-0.995,2.855-2.375,3.344V1.188C28.5,0.532,27.968,0,27.312,0
	s-1.188,0.532-1.188,1.188v10.469c-1.38-0.492-2.375-1.795-2.375-3.344V4.75h-9.5v3.562c0,1.549-0.995,2.855-2.375,3.344V1.188
	C11.875,0.532,11.343,0,10.688,0S9.5,0.532,9.5,1.188v10.469c-1.38-0.489-2.375-1.795-2.375-3.344V4.75H4.75
	C2.126,4.75,0,6.876,0,9.5V38h38V9.5C38,6.876,35.874,4.75,33.25,4.75z M16.625,23.75H19v2.375h4.75v-4.75h-7.125v-4.75
	c0-1.311,1.064-2.375,2.375-2.375h7.125v2.375H19V19h4.75c1.311,0,2.375,1.064,2.375,2.375v4.75c0,1.311-1.064,2.375-2.375,2.375H19
	c-1.311,0-2.375-1.064-2.375-2.375V23.75z M9.5,16.625c1.311,0,2.375-1.064,2.375-2.375h2.375V28.5h-2.375V19H9.5V16.625z
	 M35.625,35.625H2.375V33.25h33.25V35.625z"/>
</svg>
