<?xml version="1.0" encoding="utf-8"?>
<!-- Generator: Adobe Illustrator 17.1.0, SVG Export Plug-In . SVG Version: 6.00 Build 0)  -->
<!DOCTYPE svg PUBLIC "-//W3C//DTD SVG 1.1 Tiny//EN" "http://www.w3.org/Graphics/SVG/1.1/DTD/svg11-tiny.dtd">
<svg version="1.1" baseProfile="tiny" id="Layer_1" xmlns="http://www.w3.org/2000/svg" xmlns:xlink="http://www.w3.org/1999/xlink"
	 x="0px" y="0px" viewBox="0 0 182 40" xml:space="preserve">
<g>
	<path fill="#FFFFFF" d="M167.558,11.755c-7.793,0-14.11,6.317-14.11,14.11c0,7.793,6.317,14.11,14.11,14.11
		s14.11-6.317,14.11-14.11C181.668,18.072,175.35,11.755,167.558,11.755z M177.343,29.044l-7.807-3.483
		c-0.494-0.222-0.938-0.111-0.938,0.605l-0.168,5.833c0,0.414,0.107,0.645,0.321,0.859l1.903,1.509
		c0.605,0.481,0.647,1.086,0.185,1.919c0,0-2.089-1.21-2.364-1.401c-0.275-0.19-0.613-0.385-0.888-0.385h-0.062
		c-0.275,0-0.613,0.195-0.888,0.385c-0.275,0.19-2.364,1.41-2.364,1.41c-0.461-0.833-0.42-1.442,0.185-1.923l1.903-1.511
		c0.214-0.214,0.321-0.446,0.321-0.86l-0.168-5.833c0-0.716-0.444-0.828-0.938-0.605l-7.807,3.483
		c-0.453-1.133-0.737-1.896,0.11-2.411l4.134-2.759v-1.864c0-0.384,0.616-0.696,1-0.696c0.384,0,1,0.312,1,0.696v1.029l1.733-0.962
		c0.389-0.205,0.719-0.614,0.719-1.084l0.022-4.908c0-0.571,0.479-1.035,1.051-1.035s1.043,0.463,1.043,1.035l-0.006,4.908
		c0,0.471,0.355,0.879,0.745,1.084l1.694,0.962v-1.029c0-0.384,0.116-0.696,0.5-0.696c0.384,0,0.5,0.312,0.5,0.696v1.864
		l4.676,2.759C177.539,27.148,177.797,27.911,177.343,29.044z"/>
	<path fill="#FFFFFF" d="M0,25.66v-0.108c0-7.978,5.606-14.34,13.046-14.34c7.709,0,12.614,6.254,12.614,14.394
		c0,0.485,0,0.647-0.054,1.078H2.803C3.289,33.531,8.194,37.52,13.585,37.52c4.259,0,7.17-1.887,9.434-4.313l1.833,1.617
		C22.049,37.844,18.76,40,13.477,40C6.253,40,0,34.232,0,25.66z M22.803,24.313c-0.377-5.553-3.558-10.674-9.865-10.674
		c-5.445,0-9.649,4.582-10.135,10.674H22.803z"/>
	<path fill="#FFFFFF" d="M28.816,0h2.641v39.353h-2.641V0z"/>
	<path fill="#FFFFFF" d="M34.655,25.66v-0.108c0-7.978,5.606-14.34,13.046-14.34c7.709,0,12.614,6.254,12.614,14.394
		c0,0.485,0,0.647-0.054,1.078H37.459C37.944,33.531,42.85,37.52,48.24,37.52c4.259,0,7.17-1.887,9.434-4.313l1.833,1.617
		C56.704,37.844,53.416,40,48.132,40C40.909,40,34.655,34.232,34.655,25.66z M57.459,24.313c-0.377-5.553-3.558-10.674-9.865-10.674
		c-5.445,0-9.65,4.582-10.135,10.674H57.459z"/>
	<path fill="#FFFFFF" d="M59.141,11.86h3.073l10.404,24.528L83.131,11.86h2.965L73.751,39.569h-2.264L59.141,11.86z"/>
	<path fill="#FFFFFF" d="M106.57,22.318c0-5.553-3.396-8.41-9.057-8.41c-3.342,0-6.092,0.916-8.625,2.21l-0.97-2.318
		c3.019-1.402,5.984-2.372,9.757-2.372c3.72,0,6.685,1.024,8.679,3.019c1.833,1.833,2.803,4.367,2.803,7.763v17.143h-2.588v-4.582
		C104.684,37.412,101.288,40,96.059,40c-5.121,0-10.62-2.911-10.62-8.625v-0.108c0-5.714,4.906-8.949,12.022-8.949H106.57z
		 M97.298,24.69c-5.822,0-9.057,2.588-9.057,6.415v0.108c0,3.989,3.773,6.307,7.978,6.307c5.606,0,10.404-3.45,10.404-8.464V24.69
		H97.298z"/>
	<path fill="#FFFFFF" d="M112.463,3.073h2.641v8.787h9.649v2.426h-9.649v25.283h-2.641V3.073z"/>
	<path fill="#FFFFFF" d="M122.53,25.66v-0.108c0-7.978,5.606-14.34,13.046-14.34c7.709,0,12.614,6.254,12.614,14.394
		c0,0.485,0,0.647-0.054,1.078h-22.803c0.485,6.847,5.391,10.836,10.782,10.836c4.259,0,7.17-1.887,9.434-4.313l1.833,1.617
		C144.578,37.844,141.29,40,136.007,40C128.783,40,122.53,34.232,122.53,25.66z M145.333,24.313
		c-0.377-5.553-3.558-10.674-9.865-10.674c-5.445,0-9.65,4.582-10.135,10.674H145.333z"/>
</g>
</svg>
