<?xml version="1.0" encoding="utf-8"?>
<!-- Generator: Adobe Illustrator 17.0.0, SVG Export Plug-In . SVG Version: 6.00 Build 0)  -->
<!DOCTYPE svg PUBLIC "-//W3C//DTD SVG 1.1//EN" "http://www.w3.org/Graphics/SVG/1.1/DTD/svg11.dtd">
<svg version="1.1" id="Layer_1" xmlns="http://www.w3.org/2000/svg" xmlns:xlink="http://www.w3.org/1999/xlink" x="0px" y="0px"
	 width="46.303px" height="38px" viewBox="44.849 0 46.303 38" enable-background="new 44.849 0 46.303 38" xml:space="preserve">
<g>
	<path fill="#D6D5D4" d="M89.132,7.983h-8.519V5.429c0-0.017-0.004-0.032-0.005-0.049c0.025-0.205-0.049-0.417-0.217-0.562
		l-5.429-4.664c-0.009-0.008-0.019-0.013-0.028-0.02c-0.018-0.014-0.037-0.027-0.056-0.039c-0.017-0.011-0.035-0.02-0.053-0.029
		c-0.019-0.009-0.038-0.018-0.058-0.025c-0.02-0.007-0.04-0.014-0.061-0.019c-0.019-0.005-0.038-0.009-0.058-0.012
		c-0.023-0.004-0.046-0.006-0.069-0.007C74.569,0.003,74.558,0,74.546,0H56.855c-1.787,0-1.787,1.456-1.787,2.004v2.467
		c0,0.353,0.286,0.639,0.639,0.639s0.639-0.286,0.639-0.639V2.004c0-0.726,0.068-0.726,0.51-0.726h17.053V4.28
		c0,1.787,1.456,1.787,2.004,1.787h3.425v1.916H47.187c-1.311,0-2.338,0.999-2.338,2.275v15.666c0,1.33,1.093,2.496,2.338,2.496
		h4.367c0.353,0,0.639-0.286,0.639-0.639s-0.286-0.639-0.639-0.639h-4.367c-0.536,0-1.061-0.604-1.061-1.219V10.258
		c0-0.559,0.466-0.998,1.061-0.998h32.788h9.157c0.492,0,0.742,0.336,0.742,0.998v15.666c0,0.422-0.155,1.219-0.742,1.219h-8.519
		v-9.136c0-1.22-0.909-2.041-2.262-2.041h-21.2c-1.304,0-2.083,0.763-2.083,2.041v17.35c0,1.309,1.294,2.642,2.564,2.642h20.72
		c1.333,0,2.262-1.393,2.262-2.642V28.42h8.519c1.17,0,2.019-1.05,2.019-2.496V10.258C91.151,8.876,90.359,7.983,89.132,7.983z
		 M75.185,4.28V2.029l3.213,2.761h-2.487C75.185,4.79,75.185,4.722,75.185,4.28z M79.336,35.358c0,0.614-0.454,1.365-0.985,1.365
		h-20.72c-0.565,0-1.287-0.765-1.287-1.365V18.007c0-0.483,0.132-0.763,0.806-0.763h21.2c0.654,0,0.985,0.257,0.985,0.763
		C79.336,18.007,79.336,35.358,79.336,35.358z"/>
	<path fill="#D6D5D4" d="M75.824,19.798H59.857c-0.353,0-0.639,0.286-0.639,0.639c0,0.353,0.286,0.639,0.639,0.639h15.966
		c0.353,0,0.639-0.286,0.639-0.639S76.176,19.798,75.824,19.798z"/>
	<path fill="#D6D5D4" d="M75.824,22.672H59.857c-0.353,0-0.639,0.286-0.639,0.639c0,0.353,0.286,0.639,0.639,0.639h15.966
		c0.353,0,0.639-0.286,0.639-0.639C76.462,22.958,76.176,22.672,75.824,22.672z"/>
	<path fill="#D6D5D4" d="M75.824,25.866H59.857c-0.353,0-0.639,0.286-0.639,0.639c0,0.353,0.286,0.639,0.639,0.639h15.966
		c0.353,0,0.639-0.286,0.639-0.639C76.462,26.152,76.176,25.866,75.824,25.866z"/>
	<path fill="#D6D5D4" d="M75.824,28.739H59.857c-0.353,0-0.639,0.286-0.639,0.639c0,0.353,0.286,0.639,0.639,0.639h15.966
		c0.353,0,0.639-0.286,0.639-0.639C76.462,29.026,76.176,28.739,75.824,28.739z"/>
	<path fill="#D6D5D4" d="M75.824,31.933H59.857c-0.353,0-0.639,0.286-0.639,0.639c0,0.353,0.286,0.639,0.639,0.639h15.966
		c0.353,0,0.639-0.286,0.639-0.639C76.462,32.219,76.176,31.933,75.824,31.933z"/>
	<path fill="#D6D5D4" d="M48.778,10.538c-0.583,0-1.055,0.472-1.055,1.055v0.125c0,0.582,0.472,1.055,1.055,1.055h0.125
		c0.582,0,1.055-0.472,1.055-1.055v-0.125c0-0.582-0.472-1.055-1.055-1.055H48.778z"/>
</g>
</svg>
