<?xml version="1.0" encoding="utf-8"?>
<!-- Generator: Adobe Illustrator 17.0.2, SVG Export Plug-In . SVG Version: 6.00 Build 0)  -->
<!DOCTYPE svg PUBLIC "-//W3C//DTD SVG 1.1 Tiny//EN" "http://www.w3.org/Graphics/SVG/1.1/DTD/svg11-tiny.dtd">
<svg version="1.1" baseProfile="tiny" id="Layer_1" xmlns="http://www.w3.org/2000/svg" xmlns:xlink="http://www.w3.org/1999/xlink"
	 x="0px" y="0px" width="300px" height="245px" viewBox="0 0 300 245" xml:space="preserve">
<g>
	<path fill-rule="evenodd" fill="#919191" d="M4.469,101.355L230.812,0.659c3.811-1.695,8.287-0.007,9.997,3.771l58.525,129.303
		c1.71,3.778,0.007,8.216-3.804,9.911L69.188,244.341c-3.811,1.695-8.287,0.007-9.997-3.771L0.665,111.266
		C-1.045,107.488,0.658,103.05,4.469,101.355z"/>
	<path fill="#FFFFFF" d="M157.14,89.122c0.155-0.404,0.911-2.234,2.141-2.702c1.229-0.468,1.914,0.511,1.964,1.273
		c0.076,1.165-0.437,2.392-0.894,3.151c-0.457,0.759-0.796,1.071-2.168,1.047C156.811,91.866,156.899,89.75,157.14,89.122z
		 M159.843,100.848c-1.045-3.146,0.734-4.351,1.465-4.674c0.73-0.322,1.503-0.06,2.145,1.786c1.057,3.035,4.897,11.815,5.047,14.156
		c0.106,1.657-2.853,3.768-3.594,2.97C163.932,114.037,160.888,103.995,159.843,100.848z M139.335,121.378
		c1.394-1.513,1.762-2.357,2.899-2.544c1.137-0.187,1.676,1.145,2.022,1.863c0.346,0.717-1.223,3.073-2.135,5.604
		c-0.912,2.531,2.212,8.152,3.245,10.625c1.033,2.472-0.974,4.428-1.79,5.089c-0.815,0.66-1.568,0.464-2.205-0.846
		c-0.636-1.311-4.343-10.731-5.164-13.064c-0.821-2.333-0.043-4.783,1.494-5.637C139.239,121.612,139.335,121.378,139.335,121.378z
		 M132.34,172.514c-1.497,0.978-2.802-0.052-3.587-1.21c-0.786-1.157-17.637-27.385-20.186-29.889c0,0-0.647-0.388-0.622,1.057
		c0.025,1.444,0.293,8.288,0.32,9.16c0.027,0.871-0.7,2.39-2.137,2.458c-1.437,0.068-2.025-0.652-2.097-1.391l-2.166-22.212
		c0,0-0.003-1.211,1.667-1.955c1.67-0.743,2.501,0.242,3.053,0.801c0.552,0.559,16.368,23.708,16.437,24.143
		c0.069,0.435,0.696,0.029,0.604-0.269c-0.092-0.298-10.213-31.675-10.063-63.652c0,0,0.7-5.304,4.619-4.884
		c3.969,0.425,4.138,3.961,3.467,5.707c0,0-7.335,16.887,11.69,79.249C133.339,169.627,133.836,171.536,132.34,172.514z
		 M129.239,123.641c-0.457,0.759-0.677,1.333-2.05,1.309c-1.372-0.024-1.489-2.566-1.346-2.974s1.339-3.057,2.568-3.525
		c1.23-0.468,1.82,1.423,1.87,2.185C130.357,121.802,129.697,122.882,129.239,123.641z M138.57,147.808
		c0.106,1.657-2.915,4.287-3.656,3.488s-5.036-12.274-6.081-15.421c-1.045-3.146,1.315-5.172,2.046-5.494
		c0.73-0.322,1.502,0.259,2.368,2.014C134.453,134.835,138.421,145.467,138.57,147.808z M191.521,96.188
		c-3.597,3.242-4.513,4.23-12.829,14.69c-8.316,10.46-12.666,18.99-12.666,18.99s8.824,19.238,10.931,22.487
		c2.107,3.248,5.525,7.862,1.997,9.777c-3.529,1.914-4.777-2.633-4.777-2.633l-11.104-24.531
		c-13.823,24.271-16.345,34.797-17.256,37.382c-0.912,2.585-1.667,2.577-3.628,2.589c-1.961,0.012-2.276-2.6-2.276-2.6
		c3.454-11.916,20.788-42.738,20.788-42.738s-0.886-1.957-1.059-2.339c-0.173-0.382-0.395,0.405-1.756,1.871
		c-1.361,1.466-2.733,2.65-4.881,2.631c-2.148-0.019-3.13-1.933-5.288-7.337c-2.157-5.405-1.634-8.849-1.325-10.848
		c0.309-2,2.163-4.548,3.284-4.244c1.121,0.304,1.765,0.705,0.978,3.693c-0.787,2.988,0.105,5.343,1.449,9.333
		c1.343,3.989,2.284,3.513,3.285,3.297c1.001-0.216,1.575-1.504,1.745-3.299s-3.659-11.789-4.648-14.101
		c-0.989-2.312,1.491-3.989,1.491-3.989c0.37-0.296,1.558-0.658,2.193,0.314c0.635,0.973,6.668,17.312,7.306,19.152
		c0.638,1.84,0.834,0.981,0.834,0.981c3.592-5.621,17.538-24.511,17.68-25.057c0.142-0.546-0.758,0.047-1.616-1.202
		c-0.858-1.25-3.659-7.652-3.659-7.652c-1.811-4.216-2.385-3.443-3.54-2.473c-2.988,2.511,0.255,9.632,1.767,13.401
		c1.511,3.769-0.872,4.959-0.872,4.959c-1.635,1.543-2.529,0.223-2.783-0.339c-0.255-0.563-3.476-8.11-4.744-11.987
		c-1.268-3.878,0.702-5.334,2.485-6.128c1.783-0.794,1.893-0.553,3.172-3.536c1.279-2.983,3.862-4.809,5.319-3.526
		c1.457,1.283,5.592,11.707,5.592,11.707c0.901,2.206,2.951,2.646,4.026,0.719c1.075-1.927,4.373-5.616,6.26-5.104
		C196.276,89.278,195.118,92.946,191.521,96.188z"/>
</g>
</svg>
