<?xml version="1.0" encoding="utf-8"?>
<!-- Generator: Adobe Illustrator 17.0.0, SVG Export Plug-In . SVG Version: 6.00 Build 0)  -->
<!DOCTYPE svg PUBLIC "-//W3C//DTD SVG 1.1 Tiny//EN" "http://www.w3.org/Graphics/SVG/1.1/DTD/svg11-tiny.dtd">
<svg version="1.1" baseProfile="tiny" id="Layer_1" xmlns="http://www.w3.org/2000/svg" xmlns:xlink="http://www.w3.org/1999/xlink"
	 x="0px" y="0px" width="376.474px" height="101.506px" viewBox="0 0 376.474 101.506" xml:space="preserve">
<path fill="#FFFFFF" d="M87.216,3.623C83.493,0.477,80.521,0,75.567,0H0l49.509,96.504c1.906,3.727,4.402,5.002,7.931,5.002h64.51
	c2.997,0,4.784-1.64,5.997-4.345L136.79,77.4l10.51-23.266L87.216,3.623z M98.114,31.341c0.254-0.254,1.446-1.387,2.53-1.327
	s1.266,1.034,1.044,1.629c-0.34,0.91-1.143,1.667-1.745,2.088s-0.963,0.544-1.987,0.062C96.932,33.312,97.719,31.737,98.114,31.341z
	 M96.154,41.148c0.285-2.739,2.033-3.053,2.693-3.051c0.659,0.002,1.151,0.461,1.005,2.079c-0.239,2.659-0.339,10.615-1.024,12.441
	c-0.485,1.292-3.429,1.895-3.714,1.039C94.74,52.532,95.869,43.888,96.154,41.148z M73.741,49.798
	c1.563-0.677,2.127-1.193,3.046-0.951s0.87,1.434,0.886,2.095c0.016,0.661-1.966,1.918-3.513,3.53s-1.112,6.93-1.177,9.154
	c-0.064,2.224-2.24,3.03-3.078,3.256c-0.838,0.226-1.338-0.177-1.37-1.386c-0.032-1.209,0.387-9.606,0.564-11.653
	s1.596-3.642,3.043-3.771C73.59,49.943,73.741,49.798,73.741,49.798z M51.072,86.223c-1.458,0.237-2.089-0.985-2.286-2.129
	c-0.197-1.143-3.942-26.726-5.006-29.485c0,0-0.355-0.512-0.828,0.591c-0.473,1.104-2.602,6.386-2.878,7.056
	s-1.34,1.577-2.444,1.143s-1.301-1.178-1.104-1.763l5.933-17.579c0,0,0.41-0.92,1.92-0.92c1.509,0,1.798,1.028,2.023,1.638
	s4.239,23.508,4.143,23.861c-0.096,0.353,0.514,0.257,0.546,0s3.102-27.473,14.101-51.677c0,0,2.332-3.787,5.137-2.145
	c2.84,1.662,1.763,4.401,0.665,5.5c0,0-11.266,10.333-18.187,64.057C52.806,84.371,52.53,85.987,51.072,86.223z M65.378,48.106
	c-0.602,0.422-0.963,0.783-1.987,0.301c-1.024-0.482-0.246-2.449,0-2.71s2.047-1.867,3.131-1.807s0.885,1.694,0.662,2.288
	C66.845,47.089,65.981,47.685,65.378,48.106z M64.169,69.587c-0.485,1.292-3.651,2.268-3.937,1.411s0.391-11.01,0.677-13.749
	s2.75-3.479,3.409-3.477s1.042,0.703,1.096,2.327C65.488,58.357,64.853,67.761,64.169,69.587z M121.566,48.307
	c-3.809,1.245-4.834,1.685-14.649,6.812S90.926,65.248,90.926,65.248s0.087,17.571,0.565,20.746c0.478,3.175,1.479,7.829-1.827,8.09
	c-3.305,0.261-2.697-3.61-2.697-3.61V68.118C68.309,81.862,62.829,88.995,61.264,90.647c-1.566,1.653-2.131,1.392-3.61,0.739
	c-1.479-0.652-0.826-2.74-0.826-2.74c6.654-7.872,30.184-25.4,30.184-25.4s0-1.783,0-2.131s-0.435,0.174-1.957,0.826
	s-2.958,1.087-4.567,0.348s-1.696-2.523-1.479-7.35c0.218-4.828,1.783-7.263,2.697-8.676c0.913-1.413,3.175-2.719,3.914-2.11
	s1.087,1.131-0.522,3.132s-1.74,4.088-2.088,7.568s0.522,3.436,1.348,3.61s1.696-0.609,2.436-1.914s1.261-10.177,1.305-12.265
	c0.044-2.088,2.479-2.523,2.479-2.523c0.379-0.1,1.396,0.027,1.543,0.979c0.146,0.952-0.879,15.382-1.025,16.993
	s0.293,1.025,0.293,1.025c4.615-3.051,21.535-12.672,21.828-13.038c0.293-0.366-0.586-0.22-0.806-1.457s-0.146-7.039-0.146-7.039
	c0.073-3.809-0.622-3.417-1.82-3.071c-3.102,0.896-3.087,7.392-3.234,10.762c-0.146,3.369-2.344,3.468-2.344,3.468
	c-1.755,0.619-1.978-0.684-1.978-1.197c0-0.513,0.146-7.325,0.513-10.694c0.366-3.369,2.344-3.809,3.955-3.809
	s1.611,0.22,3.589-1.611s4.541-2.344,5.201-0.879c0.659,1.465,0.22,10.767,0.22,10.767c-0.073,1.978,1.318,3.003,2.783,1.904
	s5.201-2.783,6.446-1.758C127.494,44.671,125.375,47.061,121.566,48.307z"/>
<g>
	<path fill="#FFFFFF" d="M172.065,54.373c-4.94,0-12.556,0.621-13.927,9.835l3.086,0.762h0.206
		c1.167-6.651,5.489-7.413,10.359-7.413c6.312,0,9.811,2.564,9.811,9.213v3.119h-10.153c-7.478,0-14.613,2.146-14.613,11.083
		c0,7.204,5.419,10.879,11.869,10.879c5.42,0,10.36-2.147,12.898-7.138h0.205v6.513h3.431V66.561
		C185.237,57.419,178.925,54.373,172.065,54.373z M181.601,76.263c0,8.243-6.586,12.399-12.142,12.399
		c-5.353,0-8.781-2.843-8.781-7.757c0-6.583,4.732-7.97,11.112-7.97h9.811V76.263z M227.768,54.275
		c-5.145,0-10.153,2.214-12.075,8.309c-1.166-5.262-5.245-8.916-11.214-8.916l-0.009,0.124c-6.778,0.072-13.458,3.149-13.458,12.183
		V91.25h3.638V66.183c0-6.649,4.026-9.118,10.338-9.118l-0.006-0.074c5.715,0.372,7.556,4.994,7.556,10.377v23.761h3.636V69.375
		c0.137-5.544,2.882-11.915,10.907-11.915c6.656,0,8.783,4.365,8.783,9.909V91.13h3.635V67.09
		C239.499,58.843,235.453,54.275,227.768,54.275z M280.55,67.185v24.042h3.635V67.464c0-5.543,2.128-9.907,8.783-9.907
		c2.132,0,3.891,0.45,5.327,1.213l0.018-3.177c-1.852-0.852-3.93-1.22-6.031-1.22C284.596,54.373,280.55,58.941,280.55,67.185z
		 M260.38,88.871c-8.025,0-12.553-5.265-12.416-15.244h27.716v-3.946c0-9.216-5.283-15.308-15.3-15.308
		c-9.535,0-16.258,6.79-16.258,18.908c0,13.165,6.928,18.776,16.191,18.776c7.889,0,14.681-4.227,15.503-11.916l-3.292-0.554
		C271.563,86.304,266.212,88.871,260.38,88.871z M260.449,57.557c7.753,0,11.526,4.989,11.526,11.293v1.593h-23.942
		C248.512,62.408,253.245,57.557,260.449,57.557z M302.468,90.759h3.637V54.735h-3.637V90.759z M329.071,88.871
		c-8.234,0-12.83-6.375-12.83-15.727c0-9.421,4.391-15.588,12.83-15.588c6.517,0,10.908,4.019,10.908,9.768l3.567-0.347
		c0.069-8.312-6.448-12.605-14.544-12.605c-10.018,0-16.603,6.718-16.603,18.702c0,11.987,6.654,18.982,16.672,18.982
		c8.096,0,14.2-3.881,14.954-12.884l-3.567-0.277C339.909,84.784,336,88.871,329.071,88.871z M363.303,54.373
		c-4.94,0-12.554,0.621-13.927,9.835l3.085,0.762h0.207c1.167-6.651,5.489-7.413,10.36-7.413c6.312,0,9.811,2.564,9.811,9.213v3.119
		h-10.154c-7.478,0-14.614,2.146-14.614,11.083c0,7.204,5.42,10.879,11.868,10.879c5.421,0,10.359-2.147,12.899-7.138h0.206v6.513
		h3.429V66.561C376.474,57.419,370.162,54.373,363.303,54.373z M372.839,76.263c0,8.243-6.586,12.399-12.144,12.399
		c-5.35,0-8.781-2.843-8.781-7.757c0-6.583,4.734-7.97,11.114-7.97h9.811V76.263z"/>
</g>
</svg>
